{
copyright = "Copyright (c) 2015, Cadson Demak (info@cadsondemak.com)";
customParameters = (
{
name = vendorID;
value = CDK;
},
{
name = description;
value = "Copyright (c) 2015, Cadson Demak (info@cadsondemak.com)";
},
{
name = license;

glyphs = (
{
glyphname = A;
lastChange = "2015-10-26 02:15:05 +0000";
layers = (
{
layerId = "047EFF1B-D2DC-4EF2-AB21-67EF4112B097";
name = Light;
paths = (
{
closed = 1;
nodes = (
"203 0 LINE",
"203 7 LINE",
"185 15 OFFCURVE",
"160 20 OFFCURVE",
"120 24 CURVE",
"338 632 LINE",
"555 24 LINE",
"517 20 OFFCURVE",
"492 16 OFFCURVE",
"472 8 CURVE",
"472 0 LINE",
"680 0 LINE",
"680 8 LINE",
"656 17 OFFCURVE",
"629 22 OFFCURVE",
"602 25 CURVE",
"359 704 LINE",
"328 704 LINE",
"85 26 LINE",
"61 23 OFFCURVE",
"31 17 OFFCURVE",
"7 8 CURVE",
"7 0 LINE"
);
},
{
closed = 1;
nodes = (
"511 184 LINE",
"511 211 LINE",
"165 211 LINE",
"165 184 LINE"
);
}
);
width = 687;
}
);
leftKerningGroup = A;
note = A;
rightKerningGroup = A;
unicode = 0041;
},
{
glyphname = Aacute;
lastChange = "2015-10-01 14:35:47 +0000";
layers = (
{
layerId = "047EFF1B-D2DC-4EF2-AB21-67EF4112B097";
name = Light;
paths = (
{
closed = 1;
nodes = (
"203 0 LINE",
"203 7 LINE",
"185 15 OFFCURVE",
"160 20 OFFCURVE",
"120 24 CURVE",
"338 632 LINE",
"555 24 LINE",
"517 20 OFFCURVE",
"492 16 OFFCURVE",
"472 8 CURVE",
"472 0 LINE",
"680 0 LINE",
"680 8 LINE",
"656 17 OFFCURVE",
"629 22 OFFCURVE",
"602 25 CURVE",
"359 704 LINE",
"328 704 LINE",
"85 26 LINE",
"61 23 OFFCURVE",
"31 17 OFFCURVE",
"7 8 CURVE",
"7 0 LINE"
);
},
{
closed = 1;
nodes = (
"511 184 LINE",
"511 211 LINE",
"165 211 LINE",
"165 184 LINE"
);
},
{
closed = 1;
nodes = (
"457 862 LINE",
"472 870 OFFCURVE",
"479 881 OFFCURVE",
"479 891 CURVE SMOOTH",
"479 902 OFFCURVE",
"471 910 OFFCURVE",
"459 910 CURVE SMOOTH",
"445 910 OFFCURVE",
"434 901 OFFCURVE",
"427 894 CURVE",
"317 801 LINE",
"327 786 LINE"
);
}
);
width = 687;
}
);
leftKerningGroup = A;
note = Aacute;
rightKerningGroup = A;
unicode = 00C1;
},
{
glyphname = Abreve;
lastChange = "2015-10-01 14:35:46 +0000";
layers = (
{
layerId = "047EFF1B-D2DC-4EF2-AB21-67EF4112B097";
name = Light;
paths = (
{
closed = 1;
nodes = (
"203 0 LINE",
"203 7 LINE",
"185 15 OFFCURVE",
"160 20 OFFCURVE",
"120 24 CURVE",
"338 632 LINE",
"555 24 LINE",
"517 20 OFFCURVE",
"492 16 OFFCURVE",
"472 8 CURVE",
"472 0 LINE",
"680 0 LINE",
"680 8 LINE",
"656 17 OFFCURVE",
"629 22 OFFCURVE",
"602 25 CURVE",
"359 704 LINE",
"328 704 LINE",
"85 26 LINE",
"61 23 OFFCURVE",
"31 17 OFFCURVE",
"7 8 CURVE",
"7 0 LINE"
);
},
{
closed = 1;
nodes = (
"511 184 LINE",
"511 211 LINE",
"165 211 LINE",
"165 184 LINE"
);
},
{
closed = 1;
nodes = (
"418 772 OFFCURVE",
"474 808 OFFCURVE",
"481 889 CURVE",
"445 889 LINE",
"436 811 OFFCURVE",
"384 799 OFFCURVE",
"343 799 CURVE SMOOTH",
"302 799 OFFCURVE",
"249 811 OFFCURVE",
"240 889 CURVE",
"204 889 LINE",
"212 808 OFFCURVE",
"267 772 OFFCURVE",
"343 772 CURVE SMOOTH"
);
}
);
width = 687;
}
);
leftKerningGroup = A;
note = Abreve;
rightKerningGroup = A;
unicode = 0102;
},
{
glyphname = Abreveacute;
lastChange = "2015-10-01 14:35:46 +0000";
layers = (
{
layerId = "047EFF1B-D2DC-4EF2-AB21-67EF4112B097";
name = Light;
paths = (
{
closed = 1;
nodes = (
"203 0 LINE",
"203 7 LINE",
"185 15 OFFCURVE",
"160 20 OFFCURVE",
"120 24 CURVE",
"338 632 LINE",
"555 24 LINE",
"517 20 OFFCURVE",
"492 16 OFFCURVE",
"472 8 CURVE",
"472 0 LINE",
"680 0 LINE",
"680 8 LINE",
"656 17 OFFCURVE",
"629 22 OFFCURVE",
"602 25 CURVE",
"359 704 LINE",
"328 704 LINE",
"85 26 LINE",
"61 23 OFFCURVE",
"31 17 OFFCURVE",
"7 8 CURVE",
"7 0 LINE"
);
},
{
closed = 1;
nodes = (
"511 184 LINE",
"511 211 LINE",
"165 211 LINE",
"165 184 LINE"
);
},
{
closed = 1;
nodes = (
"418 784 OFFCURVE",
"474 818 OFFCURVE",
"481 891 CURVE",
"445 891 LINE",
"437 823 OFFCURVE",
"384 811 OFFCURVE",
"343 811 CURVE SMOOTH",
"302 811 OFFCURVE",
"249 823 OFFCURVE",
"240 891 CURVE",
"204 891 LINE",
"212 818 OFFCURVE",
"267 784 OFFCURVE",
"343 784 CURVE SMOOTH"
);
},
{
closed = 1;
nodes = (
"438 958 LINE SMOOTH",
"455 968 OFFCURVE",
"464 980 OFFCURVE",
"464 991 CURVE SMOOTH",
"464 1001 OFFCURVE",
"456 1008 OFFCURVE",
"446 1008 CURVE SMOOTH",
"434 1008 OFFCURVE",
"422 1000 OFFCURVE",
"409 989 CURVE SMOOTH",
"311 904 LINE",
"321 891 LINE"
);
}
);
width = 687;
}
);
leftKerningGroup = A;
note = Abreveacute;
rightKerningGroup = A;
unicode = 1EAE;
},
{
glyphname = Abrevedotbelow;
lastChange = "2015-10-01 14:35:46 +0000";
layers = (
{
layerId = "047EFF1B-D2DC-4EF2-AB21-67EF4112B097";
name = Light;
paths = (
{
closed = 1;
nodes = (
"203 0 LINE",
"203 7 LINE",
"185 15 OFFCURVE",
"160 20 OFFCURVE",
"120 24 CURVE",
"338 632 LINE",
"555 24 LINE",
"517 20 OFFCURVE",
"492 16 OFFCURVE",
"472 8 CURVE",
"472 0 LINE",
"680 0 LINE",
"680 8 LINE",
"656 17 OFFCURVE",
"629 22 OFFCURVE",
"602 25 CURVE",
"359 704 LINE",
"328 704 LINE",
"85 26 LINE",
"61 23 OFFCURVE",
"31 17 OFFCURVE",
"7 8 CURVE",
"7 0 LINE"
);
},
{
closed = 1;
nodes = (
"361 -133 OFFCURVE",
"375 -120 OFFCURVE",
"375 -98 CURVE SMOOTH",
"375 -76 OFFCURVE",
"361 -63 OFFCURVE",
"342 -63 CURVE SMOOTH",
"322 -63 OFFCURVE",
"308 -76 OFFCURVE",
"308 -98 CURVE SMOOTH",
"308 -120 OFFCURVE",
"322 -133 OFFCURVE",
"342 -133 CURVE SMOOTH"
);
},
{
closed = 1;
nodes = (
"511 184 LINE",
"511 211 LINE",
"165 211 LINE",
"165 184 LINE"
);
},
{
closed = 1;
nodes = (
"412 772 OFFCURVE",
"468 808 OFFCURVE",
"475 889 CURVE",
"439 889 LINE",
"430 811 OFFCURVE",
"378 799 OFFCURVE",
"337 799 CURVE SMOOTH",
"296 799 OFFCURVE",
"243 811 OFFCURVE",
"234 889 CURVE",
"198 889 LINE",
"206 808 OFFCURVE",
"261 772 OFFCURVE",
"337 772 CURVE SMOOTH"
);
}
);
width = 687;
}
);
leftKerningGroup = A;
note = Abrevedotbelow;
rightKerningGroup = A;
unicode = 1EB6;
},
{
glyphname = Abrevegrave;
lastChange = "2015-10-01 14:35:47 +0000";
layers = (
{
layerId = "047EFF1B-D2DC-4EF2-AB21-67EF4112B097";
name = Light;
paths = (
{
closed = 1;
nodes = (
"203 0 LINE",
"203 7 LINE",
"185 15 OFFCURVE",
"160 20 OFFCURVE",
"120 24 CURVE",
"338 632 LINE",
"555 24 LINE",
"517 20 OFFCURVE",
"492 16 OFFCURVE",
"472 8 CURVE",
"472 0 LINE",
"680 0 LINE",
"680 8 LINE",
"656 17 OFFCURVE",
"629 22 OFFCURVE",
"602 25 CURVE",
"359 704 LINE",
"328 704 LINE",
"85 26 LINE",
"61 23 OFFCURVE",
"31 17 OFFCURVE",
"7 8 CURVE",
"7 0 LINE"
);
},
{
closed = 1;
nodes = (
"511 184 LINE",
"511 211 LINE",
"165 211 LINE",
"165 184 LINE"
);
},
{
closed = 1;
nodes = (
"419 784 OFFCURVE",
"475 818 OFFCURVE",
"482 891 CURVE",
"446 891 LINE",
"438 823 OFFCURVE",
"385 811 OFFCURVE",
"344 811 CURVE SMOOTH",
"303 811 OFFCURVE",
"250 823 OFFCURVE",
"241 891 CURVE",
"205 891 LINE",
"213 818 OFFCURVE",
"268 784 OFFCURVE",
"344 784 CURVE SMOOTH"
);
},
{
closed = 1;
nodes = (
"370 904 LINE",
"272 989 LINE SMOOTH",
"259 1000 OFFCURVE",
"247 1008 OFFCURVE",
"235 1008 CURVE SMOOTH",
"225 1008 OFFCURVE",
"217 1001 OFFCURVE",
"217 991 CURVE SMOOTH",
"217 980 OFFCURVE",
"226 968 OFFCURVE",
"243 958 CURVE SMOOTH",
"360 891 LINE"
);
}
);
width = 687;
}
);
leftKerningGroup = A;
note = Abrevegrave;
rightKerningGroup = A;
unicode = 1EB0;
},
{
glyphname = Abrevehookabove;
lastChange = "2015-10-01 14:35:47 +0000";
layers = (
{
layerId = "047EFF1B-D2DC-4EF2-AB21-67EF4112B097";
name = Light;
paths = (
{
closed = 1;
nodes = (
"203 0 LINE",
"203 7 LINE",
"185 15 OFFCURVE",
"160 20 OFFCURVE",
"120 24 CURVE",
"338 632 LINE",
"555 24 LINE",
"517 20 OFFCURVE",
"492 16 OFFCURVE",
"472 8 CURVE",
"472 0 LINE",
"680 0 LINE",
"680 8 LINE",
"656 17 OFFCURVE",
"629 22 OFFCURVE",
"602 25 CURVE",
"359 704 LINE",
"328 704 LINE",
"85 26 LINE",
"61 23 OFFCURVE",
"31 17 OFFCURVE",
"7 8 CURVE",
"7 0 LINE"
);
},
{
closed = 1;
nodes = (
"511 184 LINE",
"511 211 LINE",
"165 211 LINE",
"165 184 LINE"
);
},
{
closed = 1;
nodes = (
"418 784 OFFCURVE",
"474 818 OFFCURVE",
"481 891 CURVE",
"445 891 LINE",
"437 823 OFFCURVE",
"384 811 OFFCURVE",
"343 811 CURVE SMOOTH",
"302 811 OFFCURVE",
"249 823 OFFCURVE",
"240 891 CURVE",
"204 891 LINE",
"212 818 OFFCURVE",
"267 784 OFFCURVE",
"343 784 CURVE SMOOTH"
);
},
{
closed = 1;
nodes = (
"348 872 LINE",
"357 921 LINE",
"400 926 OFFCURVE",
"422 944 OFFCURVE",
"422 980 CURVE SMOOTH",
"422 1021 OFFCURVE",
"388 1038 OFFCURVE",
"352 1038 CURVE SMOOTH",
"329 1038 OFFCURVE",
"307 1031 OFFCURVE",
"293 1024 CURVE",
"298 1004 LINE",
"315 1013 OFFCURVE",
"331 1016 OFFCURVE",
"344 1016 CURVE SMOOTH",
"376 1016 OFFCURVE",
"391 1002 OFFCURVE",
"391 981 CURVE SMOOTH",
"391 958 OFFCURVE",
"376 939 OFFCURVE",
"335 939 CURVE SMOOTH",
"322 939 LINE",
"327 872 LINE"
);
}
);
width = 687;
}
);
leftKerningGroup = A;
note = Abrevehookabove;
rightKerningGroup = A;
unicode = 1EB2;
},
{
glyphname = Abrevetilde;
lastChange = "2015-10-01 14:35:47 +0000";
layers = (
{
layerId = "047EFF1B-D2DC-4EF2-AB21-67EF4112B097";
name = Light;
paths = (
{
closed = 1;
nodes = (
"203 0 LINE",
"203 7 LINE",
"185 15 OFFCURVE",
"160 20 OFFCURVE",
"120 24 CURVE",
"338 632 LINE",
"555 24 LINE",
"517 20 OFFCURVE",
"492 16 OFFCURVE",
"472 8 CURVE",
"472 0 LINE",
"680 0 LINE",
"680 8 LINE",
"656 17 OFFCURVE",
"629 22 OFFCURVE",
"602 25 CURVE",
"359 704 LINE",
"328 704 LINE",
"85 26 LINE",
"61 23 OFFCURVE",
"31 17 OFFCURVE",
"7 8 CURVE",
"7 0 LINE"
);
},
{
closed = 1;
nodes = (
"511 184 LINE",
"511 211 LINE",
"165 211 LINE",
"165 184 LINE"
);
},
{
closed = 1;
nodes = (
"418 784 OFFCURVE",
"474 818 OFFCURVE",
"481 891 CURVE",
"445 891 LINE",
"437 823 OFFCURVE",
"384 811 OFFCURVE",
"343 811 CURVE SMOOTH",
"302 811 OFFCURVE",
"249 823 OFFCURVE",
"240 891 CURVE",
"204 891 LINE",
"212 818 OFFCURVE",
"267 784 OFFCURVE",
"343 784 CURVE SMOOTH"
);
},
{
closed = 1;
nodes = (
"217 948 LINE",
"226 985 OFFCURVE",
"246 1008 OFFCURVE",
"276 1008 CURVE SMOOTH",
"316 1008 OFFCURVE",
"363 949 OFFCURVE",
"405 949 CURVE SMOOTH",
"449 949 OFFCURVE",
"475 986 OFFCURVE",
"483 1044 CURVE",
"466 1044 LINE",
"457 1003 OFFCURVE",
"438 980 OFFCURVE",
"407 980 CURVE SMOOTH",
"368 980 OFFCURVE",
"323 1038 OFFCURVE",
"278 1038 CURVE SMOOTH",
"239 1038 OFFCURVE",
"208 1011 OFFCURVE",
"200 948 CURVE"
);
}
);
width = 687;
}
);
leftKerningGroup = A;
note = Abrevetilde;
rightKerningGroup = A;
unicode = 1EB4;
},
{
glyphname = Acaron;
lastChange = "2015-10-01 14:35:47 +0000";
layers = (
{
layerId = "047EFF1B-D2DC-4EF2-AB21-67EF4112B097";
name = Light;
paths = (
{
closed = 1;
nodes = (
"203 0 LINE",
"203 7 LINE",
"185 15 OFFCURVE",
"160 20 OFFCURVE",
"120 24 CURVE",
"338 632 LINE",
"555 24 LINE",
"517 20 OFFCURVE",
"492 16 OFFCURVE",
"472 8 CURVE",
"472 0 LINE",
"680 0 LINE",
"680 8 LINE",
"656 17 OFFCURVE",
"629 22 OFFCURVE",
"602 25 CURVE",
"359 704 LINE",
"328 704 LINE",
"85 26 LINE",
"61 23 OFFCURVE",
"31 17 OFFCURVE",
"7 8 CURVE",
"7 0 LINE"
);
},
{
closed = 1;
nodes = (
"511 184 LINE",
"511 211 LINE",
"165 211 LINE",
"165 184 LINE"
);
},
{
closed = 1;
nodes = (
"355 786 LINE",
"388 831 OFFCURVE",
"433 870 OFFCURVE",
"470 896 CURVE",
"449 919 LINE",
"414 893 OFFCURVE",
"374 858 OFFCURVE",
"346 823 CURVE",
"341 823 LINE",
"313 858 OFFCURVE",
"273 893 OFFCURVE",
"238 919 CURVE",
"217 896 LINE",
"254 870 OFFCURVE",
"299 831 OFFCURVE",
"332 786 CURVE"
);
}
);
width = 687;
}
);
leftKerningGroup = A;
note = Acaron;
rightKerningGroup = A;
unicode = 01CD;
},
{
glyphname = Acircumflex;
lastChange = "2015-10-01 14:35:47 +0000";
layers = (
{
layerId = "047EFF1B-D2DC-4EF2-AB21-67EF4112B097";
name = Light;
paths = (
{
closed = 1;
nodes = (
"203 0 LINE",
"203 7 LINE",
"185 15 OFFCURVE",
"160 20 OFFCURVE",
"120 24 CURVE",
"338 632 LINE",
"555 24 LINE",
"517 20 OFFCURVE",
"492 16 OFFCURVE",
"472 8 CURVE",
"472 0 LINE",
"680 0 LINE",
"680 8 LINE",
"656 17 OFFCURVE",
"629 22 OFFCURVE",
"602 25 CURVE",
"359 704 LINE",
"328 704 LINE",
"85 26 LINE",
"61 23 OFFCURVE",
"31 17 OFFCURVE",
"7 8 CURVE",
"7 0 LINE"
);
},
{
closed = 1;
nodes = (
"511 184 LINE",
"511 211 LINE",
"165 211 LINE",
"165 184 LINE"
);
},
{
closed = 1;
nodes = (
"273 803 OFFCURVE",
"313 838 OFFCURVE",
"341 873 CURVE",
"346 873 LINE",
"374 838 OFFCURVE",
"414 803 OFFCURVE",
"449 778 CURVE",
"470 800 LINE",
"433 827 OFFCURVE",
"388 866 OFFCURVE",
"355 910 CURVE",
"332 910 LINE",
"299 866 OFFCURVE",
"254 827 OFFCURVE",
"217 800 CURVE",
"238 778 LINE"
);
}
);
width = 687;
}
);
leftKerningGroup = A;
note = Acircumflex;
rightKerningGroup = A;
unicode = 00C2;
},
{
glyphname = Acircumflexacute;
lastChange = "2015-10-01 14:35:46 +0000";
layers = (
{
layerId = "047EFF1B-D2DC-4EF2-AB21-67EF4112B097";
name = Light;
paths = (
{
closed = 1;
nodes = (
"203 0 LINE",
"203 7 LINE",
"185 15 OFFCURVE",
"160 20 OFFCURVE",
"120 24 CURVE",
"338 632 LINE",
"555 24 LINE",
"517 20 OFFCURVE",
"492 16 OFFCURVE",
"472 8 CURVE",
"472 0 LINE",
"680 0 LINE",
"680 8 LINE",
"656 17 OFFCURVE",
"629 22 OFFCURVE",
"602 25 CURVE",
"359 704 LINE",
"328 704 LINE",
"85 26 LINE",
"61 23 OFFCURVE",
"31 17 OFFCURVE",
"7 8 CURVE",
"7 0 LINE"
);
},
{
closed = 1;
nodes = (
"511 184 LINE",
"511 211 LINE",
"165 211 LINE",
"165 184 LINE"
);
},
{
closed = 1;
nodes = (
"273 803 OFFCURVE",
"312 838 OFFCURVE",
"340 873 CURVE",
"346 873 LINE",
"374 838 OFFCURVE",
"413 803 OFFCURVE",
"449 778 CURVE",
"470 800 LINE",
"433 827 OFFCURVE",
"387 866 OFFCURVE",
"355 910 CURVE",
"331 910 LINE",
"299 866 OFFCURVE",
"254 827 OFFCURVE",
"216 800 CURVE",
"238 778 LINE"
);
},
{
closed = 1;
nodes = (
"564 953 LINE",
"582 962 OFFCURVE",
"590 975 OFFCURVE",
"590 986 CURVE SMOOTH",
"590 996 OFFCURVE",
"582 1003 OFFCURVE",
"572 1003 CURVE SMOOTH",
"560 1003 OFFCURVE",
"547 996 OFFCURVE",
"535 984 CURVE",
"437 899 LINE",
"447 886 LINE"
);
}
);
width = 687;
}
);
leftKerningGroup = A;
note = Acircumflexacute;
rightKerningGroup = A;
unicode = 1EA4;
},
{
glyphname = Acircumflexdotbelow;
lastChange = "2015-10-01 14:35:47 +0000";
layers = (
{
layerId = "047EFF1B-D2DC-4EF2-AB21-67EF4112B097";
name = Light;
paths = (
{
closed = 1;
nodes = (
"203 0 LINE",
"203 7 LINE",
"185 15 OFFCURVE",
"160 20 OFFCURVE",
"120 24 CURVE",
"338 632 LINE",
"555 24 LINE",
"517 20 OFFCURVE",
"492 16 OFFCURVE",
"472 8 CURVE",
"472 0 LINE",
"680 0 LINE",
"680 8 LINE",
"656 17 OFFCURVE",
"629 22 OFFCURVE",
"602 25 CURVE",
"359 704 LINE",
"328 704 LINE",
"85 26 LINE",
"61 23 OFFCURVE",
"31 17 OFFCURVE",
"7 8 CURVE",
"7 0 LINE"
);
},
{
closed = 1;
nodes = (
"362 -133 OFFCURVE",
"376 -120 OFFCURVE",
"376 -98 CURVE SMOOTH",
"376 -76 OFFCURVE",
"362 -63 OFFCURVE",
"343 -63 CURVE SMOOTH",
"323 -63 OFFCURVE",
"309 -76 OFFCURVE",
"309 -98 CURVE SMOOTH",
"309 -120 OFFCURVE",
"323 -133 OFFCURVE",
"343 -133 CURVE SMOOTH"
);
},
{
closed = 1;
nodes = (
"511 184 LINE",
"511 211 LINE",
"165 211 LINE",
"165 184 LINE"
);
},
{
closed = 1;
nodes = (
"273 802 OFFCURVE",
"313 837 OFFCURVE",
"341 872 CURVE",
"346 872 LINE",
"374 837 OFFCURVE",
"414 802 OFFCURVE",
"449 777 CURVE",
"470 799 LINE",
"433 826 OFFCURVE",
"388 865 OFFCURVE",
"355 909 CURVE",
"332 909 LINE",
"299 865 OFFCURVE",
"254 826 OFFCURVE",
"217 799 CURVE",
"238 777 LINE"
);
}
);
width = 687;
}
);
leftKerningGroup = A;
note = Acircumflexdotbelow;
rightKerningGroup = A;
unicode = 1EAC;
},
{
glyphname = Acircumflexgrave;
lastChange = "2015-10-01 14:35:46 +0000";
layers = (
{
layerId = "047EFF1B-D2DC-4EF2-AB21-67EF4112B097";
name = Light;
paths = (
{
closed = 1;
nodes = (
"203 0 LINE",
"203 7 LINE",
"185 15 OFFCURVE",
"160 20 OFFCURVE",
"120 24 CURVE",
"338 632 LINE",
"555 24 LINE",
"517 20 OFFCURVE",
"492 16 OFFCURVE",
"472 8 CURVE",
"472 0 LINE",
"680 0 LINE",
"680 8 LINE",
"656 17 OFFCURVE",
"629 22 OFFCURVE",
"602 25 CURVE",
"359 704 LINE",
"328 704 LINE",
"85 26 LINE",
"61 23 OFFCURVE",
"31 17 OFFCURVE",
"7 8 CURVE",
"7 0 LINE"
);
},
{
closed = 1;
nodes = (
"511 184 LINE",
"511 211 LINE",
"165 211 LINE",
"165 184 LINE"
);
},
{
closed = 1;
nodes = (
"260 899 LINE",
"170 976 LINE SMOOTH",
"154 989 OFFCURVE",
"141 1003 OFFCURVE",
"126 1003 CURVE SMOOTH",
"114 1003 OFFCURVE",
"107 994 OFFCURVE",
"107 984 CURVE SMOOTH",
"107 971 OFFCURVE",
"122 959 OFFCURVE",
"143 947 CURVE SMOOTH",
"250 886 LINE"
);
},
{
closed = 1;
nodes = (
"273 803 OFFCURVE",
"312 838 OFFCURVE",
"340 873 CURVE",
"346 873 LINE",
"374 838 OFFCURVE",
"413 803 OFFCURVE",
"449 778 CURVE",
"470 800 LINE",
"433 827 OFFCURVE",
"387 866 OFFCURVE",
"355 910 CURVE",
"331 910 LINE",
"299 866 OFFCURVE",
"254 827 OFFCURVE",
"216 800 CURVE",
"238 778 LINE"
);
}
);
width = 687;
}
);
leftKerningGroup = A;
note = Acircumflexgrave;
rightKerningGroup = A;
unicode = 1EA6;
},
{
glyphname = Acircumflexhookabove;
lastChange = "2015-10-01 14:35:46 +0000";
layers = (
{
layerId = "047EFF1B-D2DC-4EF2-AB21-67EF4112B097";
name = Light;
paths = (
{
closed = 1;
nodes = (
"203 0 LINE",
"203 7 LINE",
"185 15 OFFCURVE",
"160 20 OFFCURVE",
"120 24 CURVE",
"338 632 LINE",
"555 24 LINE",
"517 20 OFFCURVE",
"492 16 OFFCURVE",
"472 8 CURVE",
"472 0 LINE",
"680 0 LINE",
"680 8 LINE",
"656 17 OFFCURVE",
"629 22 OFFCURVE",
"602 25 CURVE",
"359 704 LINE",
"328 704 LINE",
"85 26 LINE",
"61 23 OFFCURVE",
"31 17 OFFCURVE",
"7 8 CURVE",
"7 0 LINE"
);
},
{
closed = 1;
nodes = (
"511 184 LINE",
"511 211 LINE",
"165 211 LINE",
"165 184 LINE"
);
},
{
closed = 1;
nodes = (
"273 803 OFFCURVE",
"312 838 OFFCURVE",
"340 873 CURVE",
"346 873 LINE",
"374 838 OFFCURVE",
"413 803 OFFCURVE",
"449 778 CURVE",
"470 800 LINE",
"433 827 OFFCURVE",
"387 866 OFFCURVE",
"355 910 CURVE",
"331 910 LINE",
"299 866 OFFCURVE",
"254 827 OFFCURVE",
"216 800 CURVE",
"238 778 LINE"
);
},
{
closed = 1;
nodes = (
"460 867 LINE",
"469 916 LINE",
"512 921 OFFCURVE",
"534 939 OFFCURVE",
"534 975 CURVE SMOOTH",
"534 1016 OFFCURVE",
"500 1033 OFFCURVE",
"464 1033 CURVE SMOOTH",
"441 1033 OFFCURVE",
"419 1026 OFFCURVE",
"405 1019 CURVE",
"410 999 LINE",
"427 1008 OFFCURVE",
"443 1011 OFFCURVE",
"456 1011 CURVE SMOOTH",
"488 1011 OFFCURVE",
"503 997 OFFCURVE",
"503 976 CURVE SMOOTH",
"503 953 OFFCURVE",
"488 934 OFFCURVE",
"447 934 CURVE SMOOTH",
"434 934 LINE",
"439 867 LINE"
);
}
);
width = 687;
}
);
leftKerningGroup = A;
note = Acircumflexhookabove;
rightKerningGroup = A;
unicode = 1EA8;
},
{
glyphname = Acircumflextilde;
lastChange = "2015-10-01 14:35:46 +0000";
layers = (
{
layerId = "047EFF1B-D2DC-4EF2-AB21-67EF4112B097";
name = Light;
paths = (
{
closed = 1;
nodes = (
"203 0 LINE",
"203 7 LINE",
"185 15 OFFCURVE",
"160 20 OFFCURVE",
"120 24 CURVE",
"338 632 LINE",
"555 24 LINE",
"517 20 OFFCURVE",
"492 16 OFFCURVE",
"472 8 CURVE",
"472 0 LINE",
"680 0 LINE",
"680 8 LINE",
"656 17 OFFCURVE",
"629 22 OFFCURVE",
"602 25 CURVE",
"359 704 LINE",
"328 704 LINE",
"85 26 LINE",
"61 23 OFFCURVE",
"31 17 OFFCURVE",
"7 8 CURVE",
"7 0 LINE"
);
},
{
closed = 1;
nodes = (
"511 184 LINE",
"511 211 LINE",
"165 211 LINE",
"165 184 LINE"
);
},
{
closed = 1;
nodes = (
"273 803 OFFCURVE",
"312 838 OFFCURVE",
"340 873 CURVE",
"346 873 LINE",
"374 838 OFFCURVE",
"413 803 OFFCURVE",
"449 778 CURVE",
"470 800 LINE",
"433 827 OFFCURVE",
"387 866 OFFCURVE",
"355 910 CURVE",
"331 910 LINE",
"299 866 OFFCURVE",
"254 827 OFFCURVE",
"216 800 CURVE",
"238 778 LINE"
);
},
{
closed = 1;
nodes = (
"219 943 LINE",
"228 980 OFFCURVE",
"248 1003 OFFCURVE",
"278 1003 CURVE SMOOTH",
"318 1003 OFFCURVE",
"365 944 OFFCURVE",
"407 944 CURVE SMOOTH",
"451 944 OFFCURVE",
"477 981 OFFCURVE",
"485 1039 CURVE",
"468 1039 LINE",
"459 998 OFFCURVE",
"440 975 OFFCURVE",
"409 975 CURVE SMOOTH",
"370 975 OFFCURVE",
"325 1033 OFFCURVE",
"280 1033 CURVE SMOOTH",
"241 1033 OFFCURVE",
"210 1006 OFFCURVE",
"202 943 CURVE"
);
}
);
width = 687;
}
);
leftKerningGroup = A;
note = Acircumflextilde;
rightKerningGroup = A;
unicode = 1EAA;
},
{
glyphname = Adieresis;
lastChange = "2015-10-01 14:35:47 +0000";
layers = (
{
layerId = "047EFF1B-D2DC-4EF2-AB21-67EF4112B097";
name = Light;
paths = (
{
closed = 1;
nodes = (
"203 0 LINE",
"203 7 LINE",
"185 15 OFFCURVE",
"160 20 OFFCURVE",
"120 24 CURVE",
"338 632 LINE",
"555 24 LINE",
"517 20 OFFCURVE",
"492 16 OFFCURVE",
"472 8 CURVE",
"472 0 LINE",
"680 0 LINE",
"680 8 LINE",
"656 17 OFFCURVE",
"629 22 OFFCURVE",
"602 25 CURVE",
"359 704 LINE",
"328 704 LINE",
"85 26 LINE",
"61 23 OFFCURVE",
"31 17 OFFCURVE",
"7 8 CURVE",
"7 0 LINE"
);
},
{
closed = 1;
nodes = (
"511 184 LINE",
"511 211 LINE",
"165 211 LINE",
"165 184 LINE"
);
},
{
closed = 1;
nodes = (
"257 785 OFFCURVE",
"271 798 OFFCURVE",
"271 820 CURVE SMOOTH",
"271 842 OFFCURVE",
"257 855 OFFCURVE",
"237 855 CURVE SMOOTH",
"218 855 OFFCURVE",
"204 842 OFFCURVE",
"204 820 CURVE SMOOTH",
"204 798 OFFCURVE",
"218 785 OFFCURVE",
"237 785 CURVE SMOOTH"
);
},
{
closed = 1;
nodes = (
"463 785 OFFCURVE",
"477 798 OFFCURVE",
"477 820 CURVE SMOOTH",
"477 842 OFFCURVE",
"463 855 OFFCURVE",
"444 855 CURVE SMOOTH",
"424 855 OFFCURVE",
"410 842 OFFCURVE",
"410 820 CURVE SMOOTH",
"410 798 OFFCURVE",
"424 785 OFFCURVE",
"444 785 CURVE SMOOTH"
);
}
);
width = 687;
}
);
leftKerningGroup = A;
note = Adieresis;
rightKerningGroup = A;
unicode = 00C4;
},
{
glyphname = Adotbelow;
lastChange = "2015-10-01 14:35:46 +0000";
layers = (
{
layerId = "047EFF1B-D2DC-4EF2-AB21-67EF4112B097";
name = Light;
paths = (
{
closed = 1;
nodes = (
"203 0 LINE",
"203 7 LINE",
"185 15 OFFCURVE",
"160 20 OFFCURVE",
"120 24 CURVE",
"338 632 LINE",
"555 24 LINE",
"517 20 OFFCURVE",
"492 16 OFFCURVE",
"472 8 CURVE",
"472 0 LINE",
"680 0 LINE",
"680 8 LINE",
"656 17 OFFCURVE",
"629 22 OFFCURVE",
"602 25 CURVE",
"359 704 LINE",
"328 704 LINE",
"85 26 LINE",
"61 23 OFFCURVE",
"31 17 OFFCURVE",
"7 8 CURVE",
"7 0 LINE"
);
},
{
closed = 1;
nodes = (
"362 -133 OFFCURVE",
"376 -120 OFFCURVE",
"376 -98 CURVE SMOOTH",
"376 -76 OFFCURVE",
"362 -63 OFFCURVE",
"343 -63 CURVE SMOOTH",
"323 -63 OFFCURVE",
"309 -76 OFFCURVE",
"309 -98 CURVE SMOOTH",
"309 -120 OFFCURVE",
"323 -133 OFFCURVE",
"343 -133 CURVE SMOOTH"
);
},
{
closed = 1;
nodes = (
"511 184 LINE",
"511 211 LINE",
"165 211 LINE",
"165 184 LINE"
);
}
);
width = 687;
}
);
leftKerningGroup = A;
note = Adotbelow;
rightKerningGroup = A;
unicode = 1EA0;
},
{
glyphname = Agrave;
lastChange = "2015-10-01 14:35:46 +0000";
layers = (
{
layerId = "047EFF1B-D2DC-4EF2-AB21-67EF4112B097";
name = Light;
paths = (
{
closed = 1;
nodes = (
"203 0 LINE",
"203 7 LINE",
"185 15 OFFCURVE",
"160 20 OFFCURVE",
"120 24 CURVE",
"338 632 LINE",
"555 24 LINE",
"517 20 OFFCURVE",
"492 16 OFFCURVE",
"472 8 CURVE",
"472 0 LINE",
"680 0 LINE",
"680 8 LINE",
"656 17 OFFCURVE",
"629 22 OFFCURVE",
"602 25 CURVE",
"359 704 LINE",
"328 704 LINE",
"85 26 LINE",
"61 23 OFFCURVE",
"31 17 OFFCURVE",
"7 8 CURVE",
"7 0 LINE"
);
},
{
closed = 1;
nodes = (
"511 184 LINE",
"511 211 LINE",
"165 211 LINE",
"165 184 LINE"
);
},
{
closed = 1;
nodes = (
"378 801 LINE",
"268 894 LINE",
"259 903 OFFCURVE",
"249 910 OFFCURVE",
"236 910 CURVE SMOOTH",
"224 910 OFFCURVE",
"216 902 OFFCURVE",
"216 891 CURVE SMOOTH",
"216 881 OFFCURVE",
"223 870 OFFCURVE",
"238 862 CURVE",
"368 786 LINE"
);
}
);
width = 687;
}
);
leftKerningGroup = A;
note = Agrave;
rightKerningGroup = A;
unicode = 00C0;
},
{
glyphname = Ahookabove;
lastChange = "2015-10-01 14:35:47 +0000";
layers = (
{
layerId = "047EFF1B-D2DC-4EF2-AB21-67EF4112B097";
name = Light;
paths = (
{
closed = 1;
nodes = (
"203 0 LINE",
"203 7 LINE",
"185 15 OFFCURVE",
"160 20 OFFCURVE",
"120 24 CURVE",
"338 632 LINE",
"555 24 LINE",
"517 20 OFFCURVE",
"492 16 OFFCURVE",
"472 8 CURVE",
"472 0 LINE",
"680 0 LINE",
"680 8 LINE",
"656 17 OFFCURVE",
"629 22 OFFCURVE",
"602 25 CURVE",
"359 704 LINE",
"328 704 LINE",
"85 26 LINE",
"61 23 OFFCURVE",
"31 17 OFFCURVE",
"7 8 CURVE",
"7 0 LINE"
);
},
{
closed = 1;
nodes = (
"511 184 LINE",
"511 211 LINE",
"165 211 LINE",
"165 184 LINE"
);
},
{
closed = 1;
nodes = (
"357 777 LINE",
"368 838 LINE",
"419 843 OFFCURVE",
"444 869 OFFCURVE",
"444 908 CURVE SMOOTH",
"444 956 OFFCURVE",
"405 978 OFFCURVE",
"361 978 CURVE SMOOTH",
"333 978 OFFCURVE",
"307 970 OFFCURVE",
"290 962 CURVE",
"297 938 LINE",
"317 949 OFFCURVE",
"337 954 OFFCURVE",
"353 954 CURVE SMOOTH",
"391 954 OFFCURVE",
"410 935 OFFCURVE",
"410 910 CURVE SMOOTH",
"410 883 OFFCURVE",
"392 858 OFFCURVE",
"344 858 CURVE SMOOTH",
"329 858 LINE",
"334 777 LINE"
);
}
);
width = 687;
}
);
leftKerningGroup = A;
note = Ahookabove;
rightKerningGroup = A;
unicode = 1EA2;
},
{
glyphname = Amacron;
lastChange = "2015-10-01 14:35:47 +0000";
layers = (
{
layerId = "047EFF1B-D2DC-4EF2-AB21-67EF4112B097";
name = Light;
paths = (
{
closed = 1;
nodes = (
"203 0 LINE",
"203 7 LINE",
"185 15 OFFCURVE",
"160 20 OFFCURVE",
"120 24 CURVE",
"338 632 LINE",
"555 24 LINE",
"517 20 OFFCURVE",
"492 16 OFFCURVE",
"472 8 CURVE",
"472 0 LINE",
"680 0 LINE",
"680 8 LINE",
"656 17 OFFCURVE",
"629 22 OFFCURVE",
"602 25 CURVE",
"359 704 LINE",
"328 704 LINE",
"85 26 LINE",
"61 23 OFFCURVE",
"31 17 OFFCURVE",
"7 8 CURVE",
"7 0 LINE"
);
},
{
closed = 1;
nodes = (
"511 184 LINE",
"511 211 LINE",
"165 211 LINE",
"165 184 LINE"
);
},
{
closed = 1;
nodes = (
"491 784 LINE",
"491 811 LINE",
"196 811 LINE",
"196 784 LINE"
);
}
);
width = 687;
}
);
leftKerningGroup = A;
note = Amacron;
rightKerningGroup = A;
unicode = 0100;
},
{
glyphname = Aogonek;
lastChange = "2015-10-01 14:35:46 +0000";
layers = (
{
layerId = "047EFF1B-D2DC-4EF2-AB21-67EF4112B097";
name = Light;
paths = (
{
closed = 1;
nodes = (
"203 0 LINE",
"203 7 LINE",
"185 15 OFFCURVE",
"160 20 OFFCURVE",
"120 24 CURVE",
"338 632 LINE",
"555 24 LINE",
"517 20 OFFCURVE",
"492 16 OFFCURVE",
"472 8 CURVE",
"472 0 LINE",
"680 0 LINE",
"680 8 LINE",
"656 17 OFFCURVE",
"629 22 OFFCURVE",
"602 25 CURVE",
"359 704 LINE",
"328 704 LINE",
"85 26 LINE",
"61 23 OFFCURVE",
"31 17 OFFCURVE",
"7 8 CURVE",
"7 0 LINE"
);
},
{
closed = 1;
nodes = (
"511 184 LINE",
"511 211 LINE",
"165 211 LINE",
"165 184 LINE"
);
},
{
closed = 1;
nodes = (
"674 -175 OFFCURVE",
"693 -171 OFFCURVE",
"715 -163 CURVE",
"715 -137 LINE",
"700 -143 OFFCURVE",
"684 -146 OFFCURVE",
"669 -146 CURVE SMOOTH",
"636 -146 OFFCURVE",
"608 -132 OFFCURVE",
"608 -96 CURVE SMOOTH",
"608 -57 OFFCURVE",
"638 -20 OFFCURVE",
"678 0 CURVE",
"644 0 LINE",
"597 -20 OFFCURVE",
"568 -57 OFFCURVE",
"568 -101 CURVE SMOOTH",
"568 -135 OFFCURVE",
"594 -175 OFFCURVE",
"651 -175 CURVE SMOOTH"
);
}
);
width = 687;
}
);
leftKerningGroup = A;
note = Aogonek;
rightKerningGroup = A;
unicode = 0104;
},
{
glyphname = Aring;
lastChange = "2015-10-01 14:35:47 +0000";
layers = (
{
layerId = "047EFF1B-D2DC-4EF2-AB21-67EF4112B097";
name = Light;
paths = (
{
closed = 1;
nodes = (
"203 0 LINE",
"203 7 LINE",
"185 15 OFFCURVE",
"160 20 OFFCURVE",
"120 24 CURVE",
"338 632 LINE",
"555 24 LINE",
"517 20 OFFCURVE",
"492 16 OFFCURVE",
"472 8 CURVE",
"472 0 LINE",
"680 0 LINE",
"680 8 LINE",
"656 17 OFFCURVE",
"629 22 OFFCURVE",
"602 25 CURVE",
"359 704 LINE",
"328 704 LINE",
"85 26 LINE",
"61 23 OFFCURVE",
"31 17 OFFCURVE",
"7 8 CURVE",
"7 0 LINE"
);
},
{
closed = 1;
nodes = (
"511 184 LINE",
"511 211 LINE",
"165 211 LINE",
"165 184 LINE"
);
},
{
closed = 1;
nodes = (
"390 735 OFFCURVE",
"425 767 OFFCURVE",
"425 814 CURVE SMOOTH",
"425 861 OFFCURVE",
"390 893 OFFCURVE",
"343 893 CURVE SMOOTH",
"295 893 OFFCURVE",
"260 861 OFFCURVE",
"260 814 CURVE SMOOTH",
"260 767 OFFCURVE",
"295 735 OFFCURVE",
"343 735 CURVE SMOOTH"
);
},
{
closed = 1;
nodes = (
"310 759 OFFCURVE",
"286 780 OFFCURVE",
"286 814 CURVE SMOOTH",
"286 848 OFFCURVE",
"310 869 OFFCURVE",
"343 869 CURVE SMOOTH",
"376 869 OFFCURVE",
"399 848 OFFCURVE",
"399 814 CURVE SMOOTH",
"399 780 OFFCURVE",
"376 759 OFFCURVE",
"343 759 CURVE SMOOTH"
);
}
);
width = 687;
}
);
leftKerningGroup = A;
note = Aring;
rightKerningGroup = A;
unicode = 00C5;
},
{
glyphname = Aringacute;
lastChange = "2015-10-01 14:35:46 +0000";
layers = (
{
layerId = "047EFF1B-D2DC-4EF2-AB21-67EF4112B097";
name = Light;
paths = (
{
closed = 1;
nodes = (
"203 0 LINE",
"203 7 LINE",
"185 15 OFFCURVE",
"160 20 OFFCURVE",
"120 24 CURVE",
"338 632 LINE",
"555 24 LINE",
"517 20 OFFCURVE",
"492 16 OFFCURVE",
"472 8 CURVE",
"472 0 LINE",
"680 0 LINE",
"680 8 LINE",
"656 17 OFFCURVE",
"629 22 OFFCURVE",
"602 25 CURVE",
"359 704 LINE",
"328 704 LINE",
"85 26 LINE",
"61 23 OFFCURVE",
"31 17 OFFCURVE",
"7 8 CURVE",
"7 0 LINE"
);
},
{
closed = 1;
nodes = (
"511 184 LINE",
"511 211 LINE",
"165 211 LINE",
"165 184 LINE"
);
},
{
closed = 1;
nodes = (
"390 731 OFFCURVE",
"425 763 OFFCURVE",
"425 810 CURVE SMOOTH",
"425 857 OFFCURVE",
"390 889 OFFCURVE",
"343 889 CURVE SMOOTH",
"295 889 OFFCURVE",
"260 857 OFFCURVE",
"260 810 CURVE SMOOTH",
"260 763 OFFCURVE",
"295 731 OFFCURVE",
"343 731 CURVE SMOOTH"
);
},
{
closed = 1;
nodes = (
"310 755 OFFCURVE",
"286 776 OFFCURVE",
"286 810 CURVE SMOOTH",
"286 844 OFFCURVE",
"310 865 OFFCURVE",
"343 865 CURVE SMOOTH",
"376 865 OFFCURVE",
"399 844 OFFCURVE",
"399 810 CURVE SMOOTH",
"399 776 OFFCURVE",
"376 755 OFFCURVE",
"343 755 CURVE SMOOTH"
);
},
{
closed = 1;
nodes = (
"454 994 LINE",
"469 1002 OFFCURVE",
"476 1013 OFFCURVE",
"476 1023 CURVE SMOOTH",
"476 1034 OFFCURVE",
"468 1042 OFFCURVE",
"456 1042 CURVE SMOOTH",
"442 1042 OFFCURVE",
"431 1033 OFFCURVE",
"424 1026 CURVE",
"314 933 LINE",
"324 918 LINE"
);
}
);
width = 687;
}
);
leftKerningGroup = A;
note = Aringacute;
rightKerningGroup = A;
unicode = 01FA;
},
{
glyphname = Atilde;
lastChange = "2015-10-01 14:35:47 +0000";
layers = (
{
layerId = "047EFF1B-D2DC-4EF2-AB21-67EF4112B097";
name = Light;
paths = (
{
closed = 1;
nodes = (
"203 0 LINE",
"203 7 LINE",
"185 15 OFFCURVE",
"160 20 OFFCURVE",
"120 24 CURVE",
"338 632 LINE",
"555 24 LINE",
"517 20 OFFCURVE",
"492 16 OFFCURVE",
"472 8 CURVE",
"472 0 LINE",
"680 0 LINE",
"680 8 LINE",
"656 17 OFFCURVE",
"629 22 OFFCURVE",
"602 25 CURVE",
"359 704 LINE",
"328 704 LINE",
"85 26 LINE",
"61 23 OFFCURVE",
"31 17 OFFCURVE",
"7 8 CURVE",
"7 0 LINE"
);
},
{
closed = 1;
nodes = (
"511 184 LINE",
"511 211 LINE",
"165 211 LINE",
"165 184 LINE"
);
},
{
closed = 1;
nodes = (
"211 786 LINE",
"220 823 OFFCURVE",
"242 846 OFFCURVE",
"273 846 CURVE SMOOTH",
"315 846 OFFCURVE",
"364 787 OFFCURVE",
"409 787 CURVE SMOOTH",
"455 787 OFFCURVE",
"483 824 OFFCURVE",
"492 882 CURVE",
"474 882 LINE",
"464 841 OFFCURVE",
"444 818 OFFCURVE",
"411 818 CURVE SMOOTH",
"370 818 OFFCURVE",
"323 876 OFFCURVE",
"275 876 CURVE SMOOTH",
"233 876 OFFCURVE",
"201 849 OFFCURVE",
"193 786 CURVE"
);
}
);
width = 687;
}
);
leftKerningGroup = A;
note = Atilde;
rightKerningGroup = A;
unicode = 00C3;
},
{
glyphname = AE;
lastChange = "2015-10-01 14:35:46 +0000";
layers = (
{
layerId = "047EFF1B-D2DC-4EF2-AB21-67EF4112B097";
name = Light;
paths = (
{
closed = 1;
nodes = (
"205 0 LINE",
"205 7 LINE",
"186 15 OFFCURVE",
"160 20 OFFCURVE",
"120 24 CURVE",
"217 184 LINE",
"520 184 LINE",
"520 24 LINE",
"480 20 OFFCURVE",
"457 14 OFFCURVE",
"439 8 CURVE",
"439 0 LINE",
"909 0 LINE",
"920 124 LINE",
"907 124 LINE",
"898 105 OFFCURVE",
"880 51 OFFCURVE",
"878 26 CURVE",
"570 26 LINE",
"570 346 LINE",
"802 346 LINE",
"804 328 OFFCURVE",
"810 288 OFFCURVE",
"819 265 CURVE",
"830 265 LINE",
"830 454 LINE",
"819 454 LINE",
"810 432 OFFCURVE",
"804 391 OFFCURVE",
"802 373 CURVE",
"570 373 LINE",
"570 673 LINE",
"877 673 LINE",
"879 649 OFFCURVE",
"887 594 OFFCURVE",
"896 575 CURVE",
"909 575 LINE",
"909 700 LINE",
"434 700 LINE",
"434 692 LINE",
"448 685 OFFCURVE",
"463 684 OFFCURVE",
"480 680 CURVE",
"79 26 LINE",
"53 22 OFFCURVE",
"31 17 OFFCURVE",
"7 8 CURVE",
"7 0 LINE"
);
},
{
closed = 1;
nodes = (
"510 673 LINE",
"520 673 LINE",
"520 211 LINE",
"233 211 LINE"
);
}
);
width = 974;
}
);
leftKerningGroup = A;
note = AE;
unicode = 00C6;
},
{
glyphname = AEacute;
lastChange = "2015-10-01 14:35:47 +0000";
layers = (
{
layerId = "047EFF1B-D2DC-4EF2-AB21-67EF4112B097";
name = Light;
paths = (
{
closed = 1;
nodes = (
"205 0 LINE",
"205 7 LINE",
"186 15 OFFCURVE",
"160 20 OFFCURVE",
"120 24 CURVE",
"217 184 LINE",
"520 184 LINE",
"520 24 LINE",
"480 20 OFFCURVE",
"457 14 OFFCURVE",
"439 8 CURVE",
"439 0 LINE",
"909 0 LINE",
"920 124 LINE",
"907 124 LINE",
"898 105 OFFCURVE",
"880 51 OFFCURVE",
"878 26 CURVE",
"570 26 LINE",
"570 346 LINE",
"802 346 LINE",
"804 328 OFFCURVE",
"810 288 OFFCURVE",
"819 265 CURVE",
"830 265 LINE",
"830 454 LINE",
"819 454 LINE",
"810 432 OFFCURVE",
"804 391 OFFCURVE",
"802 373 CURVE",
"570 373 LINE",
"570 673 LINE",
"877 673 LINE",
"879 649 OFFCURVE",
"887 594 OFFCURVE",
"896 575 CURVE",
"909 575 LINE",
"909 700 LINE",
"434 700 LINE",
"434 692 LINE",
"448 685 OFFCURVE",
"463 684 OFFCURVE",
"480 680 CURVE",
"79 26 LINE",
"53 22 OFFCURVE",
"31 17 OFFCURVE",
"7 8 CURVE",
"7 0 LINE"
);
},
{
closed = 1;
nodes = (
"510 673 LINE",
"520 673 LINE",
"520 211 LINE",
"233 211 LINE"
);
},
{
closed = 1;
nodes = (
"774 862 LINE",
"789 870 OFFCURVE",
"796 881 OFFCURVE",
"796 891 CURVE SMOOTH",
"796 902 OFFCURVE",
"788 910 OFFCURVE",
"776 910 CURVE SMOOTH",
"762 910 OFFCURVE",
"751 901 OFFCURVE",
"744 894 CURVE",
"634 801 LINE",
"644 786 LINE"
);
}
);
width = 974;
}
);
leftKerningGroup = A;
note = AEacute;
unicode = 01FC;
},
{
glyphname = B;
lastChange = "2015-10-01 14:35:47 +0000";
layers = (
{
layerId = "047EFF1B-D2DC-4EF2-AB21-67EF4112B097";
name = Light;
paths = (
{
closed = 1;
nodes = (
"336 0 LINE SMOOTH",
"486 0 OFFCURVE",
"545 67 OFFCURVE",
"545 189 CURVE SMOOTH",
"545 264 OFFCURVE",
"512 352 OFFCURVE",
"384 369 CURVE",
"384 373 LINE",
"479 388 OFFCURVE",
"515 468 OFFCURVE",
"515 534 CURVE SMOOTH",
"515 648 OFFCURVE",
"456 700 OFFCURVE",
"305 700 CURVE SMOOTH",
"45 700 LINE",
"45 691 LINE",
"70 684 OFFCURVE",
"99 679 OFFCURVE",
"127 675 CURVE",
"127 24 LINE",
"87 20 OFFCURVE",
"67 16 OFFCURVE",
"45 8 CURVE",
"45 0 LINE"
);
},
{
closed = 1;
nodes = (
"177 355 LINE",
"321 355 LINE SMOOTH",
"433 355 OFFCURVE",
"498 295 OFFCURVE",
"498 190 CURVE SMOOTH",
"498 82 OFFCURVE",
"448 26 OFFCURVE",
"334 26 CURVE SMOOTH",
"177 26 LINE"
);
},
{
closed = 1;
nodes = (
"177 673 LINE",
"303 673 LINE SMOOTH",
"419 673 OFFCURVE",
"467 630 OFFCURVE",
"467 534 CURVE SMOOTH",
"467 442 OFFCURVE",
"412 382 OFFCURVE",
"299 382 CURVE SMOOTH",
"177 382 LINE"
);
}
);
width = 580;
}
);
note = B;
unicode = 0042;
},
{
glyphname = C;
lastChange = "2015-10-01 14:35:45 +0000";
layers = (
{
layerId = "047EFF1B-D2DC-4EF2-AB21-67EF4112B097";
name = Light;
paths = (
{
closed = 1;
nodes = (
"431 -10 OFFCURVE",
"498 11 OFFCURVE",
"541 49 CURVE",
"533 66 LINE",
"480 34 OFFCURVE",
"410 17 OFFCURVE",
"367 17 CURVE SMOOTH",
"168 17 OFFCURVE",
"103 165 OFFCURVE",
"103 350 CURVE SMOOTH",
"103 536 OFFCURVE",
"176 683 OFFCURVE",
"369 683 CURVE SMOOTH",
"429 683 OFFCURVE",
"480 661 OFFCURVE",
"504 640 CURVE",
"507 613 OFFCURVE",
"513 562 OFFCURVE",
"521 541 CURVE",
"535 541 LINE",
"542 647 LINE",
"499 685 OFFCURVE",
"436 710 OFFCURVE",
"356 710 CURVE SMOOTH",
"161 710 OFFCURVE",
"53 572 OFFCURVE",
"53 350 CURVE SMOOTH",
"53 127 OFFCURVE",
"154 -10 OFFCURVE",
"355 -10 CURVE SMOOTH"
);
}
);
width = 589;
}
);
leftKerningGroup = C;
note = C;
unicode = 0043;
},
{
glyphname = Cacute;
lastChange = "2015-10-01 14:35:47 +0000";
layers = (
{
layerId = "047EFF1B-D2DC-4EF2-AB21-67EF4112B097";
name = Light;
paths = (
{
closed = 1;
nodes = (
"431 -10 OFFCURVE",
"498 11 OFFCURVE",
"541 49 CURVE",
"533 66 LINE",
"480 34 OFFCURVE",
"410 17 OFFCURVE",
"367 17 CURVE SMOOTH",
"168 17 OFFCURVE",
"103 165 OFFCURVE",
"103 350 CURVE SMOOTH",
"103 536 OFFCURVE",
"176 683 OFFCURVE",
"369 683 CURVE SMOOTH",
"429 683 OFFCURVE",
"480 661 OFFCURVE",
"504 640 CURVE",
"507 613 OFFCURVE",
"513 562 OFFCURVE",
"521 541 CURVE",
"535 541 LINE",
"542 647 LINE",
"499 685 OFFCURVE",
"436 710 OFFCURVE",
"356 710 CURVE SMOOTH",
"161 710 OFFCURVE",
"53 572 OFFCURVE",
"53 350 CURVE SMOOTH",
"53 127 OFFCURVE",
"154 -10 OFFCURVE",
"355 -10 CURVE SMOOTH"
);
},
{
closed = 1;
nodes = (
"424 862 LINE",
"439 870 OFFCURVE",
"446 881 OFFCURVE",
"446 891 CURVE SMOOTH",
"446 902 OFFCURVE",
"438 910 OFFCURVE",
"426 910 CURVE SMOOTH",
"412 910 OFFCURVE",
"401 901 OFFCURVE",
"394 894 CURVE",
"284 801 LINE",
"294 786 LINE"
);
}
);
width = 589;
}
);
leftKerningGroup = C;
note = Cacute;
unicode = 0106;
},
{
glyphname = Ccaron;
lastChange = "2015-10-01 14:35:47 +0000";
layers = (
{
layerId = "047EFF1B-D2DC-4EF2-AB21-67EF4112B097";
name = Light;
paths = (
{
closed = 1;
nodes = (
"431 -10 OFFCURVE",
"498 11 OFFCURVE",
"541 49 CURVE",
"533 66 LINE",
"480 34 OFFCURVE",
"410 17 OFFCURVE",
"367 17 CURVE SMOOTH",
"168 17 OFFCURVE",
"103 165 OFFCURVE",
"103 350 CURVE SMOOTH",
"103 536 OFFCURVE",
"176 683 OFFCURVE",
"369 683 CURVE SMOOTH",
"429 683 OFFCURVE",
"480 661 OFFCURVE",
"504 640 CURVE",
"507 613 OFFCURVE",
"513 562 OFFCURVE",
"521 541 CURVE",
"535 541 LINE",
"542 647 LINE",
"499 685 OFFCURVE",
"436 710 OFFCURVE",
"356 710 CURVE SMOOTH",
"161 710 OFFCURVE",
"53 572 OFFCURVE",
"53 350 CURVE SMOOTH",
"53 127 OFFCURVE",
"154 -10 OFFCURVE",
"355 -10 CURVE SMOOTH"
);
},
{
closed = 1;
nodes = (
"377 786 LINE",
"410 831 OFFCURVE",
"455 870 OFFCURVE",
"492 896 CURVE",
"471 919 LINE",
"436 893 OFFCURVE",
"396 858 OFFCURVE",
"368 823 CURVE",
"363 823 LINE",
"335 858 OFFCURVE",
"295 893 OFFCURVE",
"260 919 CURVE",
"239 896 LINE",
"276 870 OFFCURVE",
"321 831 OFFCURVE",
"354 786 CURVE"
);
}
);
width = 589;
}
);
leftKerningGroup = C;
note = Ccaron;
unicode = 010C;
},
{
glyphname = Ccedilla;
lastChange = "2015-10-01 14:35:47 +0000";
layers = (
{
layerId = "047EFF1B-D2DC-4EF2-AB21-67EF4112B097";
name = Light;
paths = (
{
closed = 1;
nodes = (
"431 -10 OFFCURVE",
"498 11 OFFCURVE",
"541 49 CURVE",
"533 66 LINE",
"480 34 OFFCURVE",
"410 17 OFFCURVE",
"367 17 CURVE SMOOTH",
"168 17 OFFCURVE",
"103 165 OFFCURVE",
"103 350 CURVE SMOOTH",
"103 536 OFFCURVE",
"176 683 OFFCURVE",
"369 683 CURVE SMOOTH",
"429 683 OFFCURVE",
"480 661 OFFCURVE",
"504 640 CURVE",
"507 613 OFFCURVE",
"513 562 OFFCURVE",
"521 541 CURVE",
"535 541 LINE",
"542 647 LINE",
"499 685 OFFCURVE",
"436 710 OFFCURVE",
"356 710 CURVE SMOOTH",
"161 710 OFFCURVE",
"53 572 OFFCURVE",
"53 350 CURVE SMOOTH",
"53 127 OFFCURVE",
"154 -10 OFFCURVE",
"355 -10 CURVE SMOOTH"
);
},
{
closed = 1;
nodes = (
"384 -198 OFFCURVE",
"429 -174 OFFCURVE",
"429 -124 CURVE SMOOTH",
"429 -85 OFFCURVE",
"393 -68 OFFCURVE",
"348 -68 CURVE SMOOTH",
"342 -68 OFFCURVE",
"336 -68 OFFCURVE",
"331 -69 CURVE",
"363 3 LINE",
"332 3 LINE",
"297 -68 LINE",
"317 -93 LINE",
"324 -92 OFFCURVE",
"333 -91 OFFCURVE",
"342 -91 CURVE SMOOTH",
"367 -91 OFFCURVE",
"395 -99 OFFCURVE",
"395 -123 CURVE SMOOTH",
"395 -158 OFFCURVE",
"367 -173 OFFCURVE",
"325 -173 CURVE SMOOTH",
"309 -173 OFFCURVE",
"290 -171 OFFCURVE",
"272 -167 CURVE",
"261 -188 LINE",
"281 -195 OFFCURVE",
"304 -198 OFFCURVE",
"325 -198 CURVE SMOOTH"
);
}
);
width = 589;
}
);
leftKerningGroup = C;
note = Ccedilla;
unicode = 00C7;
},
{
glyphname = Ccircumflex;
lastChange = "2015-10-01 14:35:46 +0000";
layers = (
{
layerId = "047EFF1B-D2DC-4EF2-AB21-67EF4112B097";
name = Light;
paths = (
{
closed = 1;
nodes = (
"431 -10 OFFCURVE",
"498 11 OFFCURVE",
"541 49 CURVE",
"533 66 LINE",
"480 34 OFFCURVE",
"410 17 OFFCURVE",
"367 17 CURVE SMOOTH",
"168 17 OFFCURVE",
"103 165 OFFCURVE",
"103 350 CURVE SMOOTH",
"103 536 OFFCURVE",
"176 683 OFFCURVE",
"369 683 CURVE SMOOTH",
"429 683 OFFCURVE",
"480 661 OFFCURVE",
"504 640 CURVE",
"507 613 OFFCURVE",
"513 562 OFFCURVE",
"521 541 CURVE",
"535 541 LINE",
"542 647 LINE",
"499 685 OFFCURVE",
"436 710 OFFCURVE",
"356 710 CURVE SMOOTH",
"161 710 OFFCURVE",
"53 572 OFFCURVE",
"53 350 CURVE SMOOTH",
"53 127 OFFCURVE",
"154 -10 OFFCURVE",
"355 -10 CURVE SMOOTH"
);
},
{
closed = 1;
nodes = (
"290 803 OFFCURVE",
"330 838 OFFCURVE",
"358 873 CURVE",
"363 873 LINE",
"391 838 OFFCURVE",
"431 803 OFFCURVE",
"466 778 CURVE",
"487 800 LINE",
"450 827 OFFCURVE",
"405 866 OFFCURVE",
"372 910 CURVE",
"349 910 LINE",
"316 866 OFFCURVE",
"271 827 OFFCURVE",
"234 800 CURVE",
"255 778 LINE"
);
}
);
width = 589;
}
);
leftKerningGroup = C;
note = Ccircumflex;
unicode = 0108;
},
{
glyphname = Cdotaccent;
lastChange = "2015-10-01 14:35:47 +0000";
layers = (
{
layerId = "047EFF1B-D2DC-4EF2-AB21-67EF4112B097";
name = Light;
paths = (
{
closed = 1;
nodes = (
"431 -10 OFFCURVE",
"498 11 OFFCURVE",
"541 49 CURVE",
"533 66 LINE",
"480 34 OFFCURVE",
"410 17 OFFCURVE",
"367 17 CURVE SMOOTH",
"168 17 OFFCURVE",
"103 165 OFFCURVE",
"103 350 CURVE SMOOTH",
"103 536 OFFCURVE",
"176 683 OFFCURVE",
"369 683 CURVE SMOOTH",
"429 683 OFFCURVE",
"480 661 OFFCURVE",
"504 640 CURVE",
"507 613 OFFCURVE",
"513 562 OFFCURVE",
"521 541 CURVE",
"535 541 LINE",
"542 647 LINE",
"499 685 OFFCURVE",
"436 710 OFFCURVE",
"356 710 CURVE SMOOTH",
"161 710 OFFCURVE",
"53 572 OFFCURVE",
"53 350 CURVE SMOOTH",
"53 127 OFFCURVE",
"154 -10 OFFCURVE",
"355 -10 CURVE SMOOTH"
);
},
{
closed = 1;
nodes = (
"391 785 OFFCURVE",
"405 798 OFFCURVE",
"405 820 CURVE SMOOTH",
"405 842 OFFCURVE",
"391 855 OFFCURVE",
"372 855 CURVE SMOOTH",
"352 855 OFFCURVE",
"338 842 OFFCURVE",
"338 820 CURVE SMOOTH",
"338 798 OFFCURVE",
"352 785 OFFCURVE",
"372 785 CURVE SMOOTH"
);
}
);
width = 589;
}
);
leftKerningGroup = C;
note = Cdotaccent;
unicode = 010A;
},
{
glyphname = D;
lastChange = "2015-10-01 14:35:47 +0000";
layers = (
{
layerId = "047EFF1B-D2DC-4EF2-AB21-67EF4112B097";
name = Light;
paths = (
{
closed = 1;
nodes = (
"325 0 LINE SMOOTH",
"520 0 OFFCURVE",
"599 127 OFFCURVE",
"599 350 CURVE SMOOTH",
"599 573 OFFCURVE",
"521 700 OFFCURVE",
"326 700 CURVE SMOOTH",
"46 700 LINE",
"46 692 LINE",
"70 684 OFFCURVE",
"99 679 OFFCURVE",
"127 675 CURVE",
"127 24 LINE",
"88 20 OFFCURVE",
"65 14 OFFCURVE",
"46 8 CURVE",
"46 0 LINE"
);
},
{
closed = 1;
nodes = (
"177 673 LINE",
"325 673 LINE SMOOTH",
"496 673 OFFCURVE",
"549 543 OFFCURVE",
"549 350 CURVE SMOOTH",
"549 156 OFFCURVE",
"496 26 OFFCURVE",
"323 26 CURVE SMOOTH",
"177 26 LINE"
);
}
);
width = 638;
}
);
note = D;
rightKerningGroup = D;
unicode = 0044;
},
{
glyphname = Eth;
lastChange = "2015-10-01 14:35:47 +0000";
layers = (
{
layerId = "047EFF1B-D2DC-4EF2-AB21-67EF4112B097";
name = Light;
paths = (
{
closed = 1;
nodes = (
"325 0 LINE SMOOTH",
"520 0 OFFCURVE",
"599 127 OFFCURVE",
"599 350 CURVE SMOOTH",
"599 573 OFFCURVE",
"521 700 OFFCURVE",
"326 700 CURVE SMOOTH",
"46 700 LINE",
"46 692 LINE",
"70 684 OFFCURVE",
"99 679 OFFCURVE",
"127 675 CURVE",
"127 24 LINE",
"88 20 OFFCURVE",
"65 14 OFFCURVE",
"46 8 CURVE",
"46 0 LINE"
);
},
{
closed = 1;
nodes = (
"360 319 LINE",
"360 346 LINE",
"49 346 LINE",
"49 319 LINE"
);
},
{
closed = 1;
nodes = (
"177 673 LINE",
"325 673 LINE SMOOTH",
"496 673 OFFCURVE",
"549 543 OFFCURVE",
"549 350 CURVE SMOOTH",
"549 156 OFFCURVE",
"496 26 OFFCURVE",
"323 26 CURVE SMOOTH",
"177 26 LINE"
);
}
);
width = 638;
}
);
note = Eth;
rightKerningGroup = D;
unicode = 00D0;
},
{
glyphname = Dcaron;
lastChange = "2015-10-01 14:35:46 +0000";
layers = (
{
layerId = "047EFF1B-D2DC-4EF2-AB21-67EF4112B097";
name = Light;
paths = (
{
closed = 1;
nodes = (
"325 0 LINE SMOOTH",
"520 0 OFFCURVE",
"599 127 OFFCURVE",
"599 350 CURVE SMOOTH",
"599 573 OFFCURVE",
"521 700 OFFCURVE",
"326 700 CURVE SMOOTH",
"46 700 LINE",
"46 692 LINE",
"70 684 OFFCURVE",
"99 679 OFFCURVE",
"127 675 CURVE",
"127 24 LINE",
"88 20 OFFCURVE",
"65 14 OFFCURVE",
"46 8 CURVE",
"46 0 LINE"
);
},
{
closed = 1;
nodes = (
"177 673 LINE",
"325 673 LINE SMOOTH",
"496 673 OFFCURVE",
"549 543 OFFCURVE",
"549 350 CURVE SMOOTH",
"549 156 OFFCURVE",
"496 26 OFFCURVE",
"323 26 CURVE SMOOTH",
"177 26 LINE"
);
},
{
closed = 1;
nodes = (
"337 786 LINE",
"370 831 OFFCURVE",
"415 870 OFFCURVE",
"452 896 CURVE",
"431 919 LINE",
"396 893 OFFCURVE",
"356 858 OFFCURVE",
"328 823 CURVE",
"323 823 LINE",
"295 858 OFFCURVE",
"255 893 OFFCURVE",
"220 919 CURVE",
"199 896 LINE",
"236 870 OFFCURVE",
"281 831 OFFCURVE",
"314 786 CURVE"
);
}
);
width = 638;
}
);
note = Dcaron;
rightKerningGroup = D;
unicode = 010E;
},
{
glyphname = Dcroat;
lastChange = "2015-10-01 14:35:47 +0000";
layers = (
{
layerId = "047EFF1B-D2DC-4EF2-AB21-67EF4112B097";
name = Light;
paths = (
{
closed = 1;
nodes = (
"325 0 LINE SMOOTH",
"520 0 OFFCURVE",
"599 127 OFFCURVE",
"599 350 CURVE SMOOTH",
"599 573 OFFCURVE",
"521 700 OFFCURVE",
"326 700 CURVE SMOOTH",
"46 700 LINE",
"46 692 LINE",
"70 684 OFFCURVE",
"99 679 OFFCURVE",
"127 675 CURVE",
"127 24 LINE",
"88 20 OFFCURVE",
"65 14 OFFCURVE",
"46 8 CURVE",
"46 0 LINE"
);
},
{
closed = 1;
nodes = (
"360 319 LINE",
"360 346 LINE",
"49 346 LINE",
"49 319 LINE"
);
},
{
closed = 1;
nodes = (
"177 673 LINE",
"325 673 LINE SMOOTH",
"496 673 OFFCURVE",
"549 543 OFFCURVE",
"549 350 CURVE SMOOTH",
"549 156 OFFCURVE",
"496 26 OFFCURVE",
"323 26 CURVE SMOOTH",
"177 26 LINE"
);
}
);
width = 638;
}
);
note = Dcroat;
rightKerningGroup = D;
unicode = 0110;
},
{
glyphname = Ddotbelow;
lastChange = "2015-10-01 14:35:47 +0000";
layers = (
{
layerId = "047EFF1B-D2DC-4EF2-AB21-67EF4112B097";
name = Light;
paths = (
{
closed = 1;
nodes = (
"325 0 LINE SMOOTH",
"520 0 OFFCURVE",
"599 127 OFFCURVE",
"599 350 CURVE SMOOTH",
"599 573 OFFCURVE",
"521 700 OFFCURVE",
"326 700 CURVE SMOOTH",
"46 700 LINE",
"46 692 LINE",
"70 684 OFFCURVE",
"99 679 OFFCURVE",
"127 675 CURVE",
"127 24 LINE",
"88 20 OFFCURVE",
"65 14 OFFCURVE",
"46 8 CURVE",
"46 0 LINE"
);
},
{
closed = 1;
nodes = (
"325 -133 OFFCURVE",
"339 -120 OFFCURVE",
"339 -98 CURVE SMOOTH",
"339 -76 OFFCURVE",
"325 -63 OFFCURVE",
"306 -63 CURVE SMOOTH",
"286 -63 OFFCURVE",
"272 -76 OFFCURVE",
"272 -98 CURVE SMOOTH",
"272 -120 OFFCURVE",
"286 -133 OFFCURVE",
"306 -133 CURVE SMOOTH"
);
},
{
closed = 1;
nodes = (
"177 673 LINE",
"325 673 LINE SMOOTH",
"496 673 OFFCURVE",
"549 543 OFFCURVE",
"549 350 CURVE SMOOTH",
"549 156 OFFCURVE",
"496 26 OFFCURVE",
"323 26 CURVE SMOOTH",
"177 26 LINE"
);
}
);
width = 638;
}
);
note = Ddotbelow;
rightKerningGroup = D;
unicode = 1E0C;
},
{
glyphname = Dlinebelow;
lastChange = "2015-10-01 14:35:46 +0000";
layers = (
{
layerId = "047EFF1B-D2DC-4EF2-AB21-67EF4112B097";
name = Light;
paths = (
{
closed = 1;
nodes = (
"325 0 LINE SMOOTH",
"520 0 OFFCURVE",
"599 127 OFFCURVE",
"599 350 CURVE SMOOTH",
"599 573 OFFCURVE",
"521 700 OFFCURVE",
"326 700 CURVE SMOOTH",
"46 700 LINE",
"46 692 LINE",
"70 684 OFFCURVE",
"99 679 OFFCURVE",
"127 675 CURVE",
"127 24 LINE",
"88 20 OFFCURVE",
"65 14 OFFCURVE",
"46 8 CURVE",
"46 0 LINE"
);
},
{
closed = 1;
nodes = (
"432 -100 LINE",
"432 -74 LINE",
"137 -74 LINE",
"137 -100 LINE"
);
},
{
closed = 1;
nodes = (
"177 673 LINE",
"325 673 LINE SMOOTH",
"496 673 OFFCURVE",
"549 543 OFFCURVE",
"549 350 CURVE SMOOTH",
"549 156 OFFCURVE",
"496 26 OFFCURVE",
"323 26 CURVE SMOOTH",
"177 26 LINE"
);
}
);
width = 638;
}
);
note = Dlinebelow;
rightKerningGroup = D;
unicode = 1E0E;
},
{
glyphname = E;
lastChange = "2015-10-01 14:35:45 +0000";
layers = (
{
layerId = "047EFF1B-D2DC-4EF2-AB21-67EF4112B097";
name = Light;
paths = (
{
closed = 1;
nodes = (
"517 0 LINE",
"528 124 LINE",
"515 124 LINE",
"505 105 OFFCURVE",
"488 51 OFFCURVE",
"486 26 CURVE",
"178 26 LINE",
"178 341 LINE",
"410 341 LINE",
"412 323 OFFCURVE",
"418 283 OFFCURVE",
"427 260 CURVE",
"437 260 LINE",
"437 449 LINE",
"427 449 LINE",
"418 427 OFFCURVE",
"412 386 OFFCURVE",
"410 368 CURVE",
"178 368 LINE",
"178 673 LINE",
"485 673 LINE",
"487 649 OFFCURVE",
"495 594 OFFCURVE",
"504 575 CURVE",
"517 575 LINE",
"517 700 LINE",
"46 700 LINE",
"46 692 LINE",
"70 684 OFFCURVE",
"101 678 OFFCURVE",
"128 675 CURVE",
"128 24 LINE",
"89 20 OFFCURVE",
"65 14 OFFCURVE",
"46 8 CURVE",
"46 0 LINE"
);
}
);
width = 581;
}
);
note = E;
unicode = 0045;
},
{
glyphname = Eacute;
lastChange = "2015-10-01 14:35:47 +0000";
layers = (
{
layerId = "047EFF1B-D2DC-4EF2-AB21-67EF4112B097";
name = Light;
paths = (
{
closed = 1;
nodes = (
"517 0 LINE",
"528 124 LINE",
"515 124 LINE",
"505 105 OFFCURVE",
"488 51 OFFCURVE",
"486 26 CURVE",
"178 26 LINE",
"178 341 LINE",
"410 341 LINE",
"412 323 OFFCURVE",
"418 283 OFFCURVE",
"427 260 CURVE",
"437 260 LINE",
"437 449 LINE",
"427 449 LINE",
"418 427 OFFCURVE",
"412 386 OFFCURVE",
"410 368 CURVE",
"178 368 LINE",
"178 673 LINE",
"485 673 LINE",
"487 649 OFFCURVE",
"495 594 OFFCURVE",
"504 575 CURVE",
"517 575 LINE",
"517 700 LINE",
"46 700 LINE",
"46 692 LINE",
"70 684 OFFCURVE",
"101 678 OFFCURVE",
"128 675 CURVE",
"128 24 LINE",
"89 20 OFFCURVE",
"65 14 OFFCURVE",
"46 8 CURVE",
"46 0 LINE"
);
},
{
closed = 1;
nodes = (
"356 862 LINE",
"371 870 OFFCURVE",
"378 881 OFFCURVE",
"378 891 CURVE SMOOTH",
"378 902 OFFCURVE",
"370 910 OFFCURVE",
"358 910 CURVE SMOOTH",
"344 910 OFFCURVE",
"333 901 OFFCURVE",
"326 894 CURVE",
"216 801 LINE",
"226 786 LINE"
);
}
);
width = 581;
}
);
note = Eacute;
unicode = 00C9;
},
{
glyphname = Ebreve;
lastChange = "2015-10-01 14:35:46 +0000";
layers = (
{
layerId = "047EFF1B-D2DC-4EF2-AB21-67EF4112B097";
name = Light;
paths = (
{
closed = 1;
nodes = (
"517 0 LINE",
"528 124 LINE",
"515 124 LINE",
"505 105 OFFCURVE",
"488 51 OFFCURVE",
"486 26 CURVE",
"178 26 LINE",
"178 341 LINE",
"410 341 LINE",
"412 323 OFFCURVE",
"418 283 OFFCURVE",
"427 260 CURVE",
"437 260 LINE",
"437 449 LINE",
"427 449 LINE",
"418 427 OFFCURVE",
"412 386 OFFCURVE",
"410 368 CURVE",
"178 368 LINE",
"178 673 LINE",
"485 673 LINE",
"487 649 OFFCURVE",
"495 594 OFFCURVE",
"504 575 CURVE",
"517 575 LINE",
"517 700 LINE",
"46 700 LINE",
"46 692 LINE",
"70 684 OFFCURVE",
"101 678 OFFCURVE",
"128 675 CURVE",
"128 24 LINE",
"89 20 OFFCURVE",
"65 14 OFFCURVE",
"46 8 CURVE",
"46 0 LINE"
);
},
{
closed = 1;
nodes = (
"395 774 OFFCURVE",
"451 810 OFFCURVE",
"458 891 CURVE",
"422 891 LINE",
"413 813 OFFCURVE",
"361 801 OFFCURVE",
"320 801 CURVE SMOOTH",
"279 801 OFFCURVE",
"226 813 OFFCURVE",
"217 891 CURVE",
"181 891 LINE",
"189 810 OFFCURVE",
"244 774 OFFCURVE",
"320 774 CURVE SMOOTH"
);
}
);
width = 581;
}
);
note = Ebreve;
unicode = 0114;
},
{
glyphname = Ecaron;
lastChange = "2015-10-01 14:35:46 +0000";
layers = (
{
layerId = "047EFF1B-D2DC-4EF2-AB21-67EF4112B097";
name = Light;
paths = (
{
closed = 1;
nodes = (
"517 0 LINE",
"528 124 LINE",
"515 124 LINE",
"505 105 OFFCURVE",
"488 51 OFFCURVE",
"486 26 CURVE",
"178 26 LINE",
"178 341 LINE",
"410 341 LINE",
"412 323 OFFCURVE",
"418 283 OFFCURVE",
"427 260 CURVE",
"437 260 LINE",
"437 449 LINE",
"427 449 LINE",
"418 427 OFFCURVE",
"412 386 OFFCURVE",
"410 368 CURVE",
"178 368 LINE",
"178 673 LINE",
"485 673 LINE",
"487 649 OFFCURVE",
"495 594 OFFCURVE",
"504 575 CURVE",
"517 575 LINE",
"517 700 LINE",
"46 700 LINE",
"46 692 LINE",
"70 684 OFFCURVE",
"101 678 OFFCURVE",
"128 675 CURVE",
"128 24 LINE",
"89 20 OFFCURVE",
"65 14 OFFCURVE",
"46 8 CURVE",
"46 0 LINE"
);
},
{
closed = 1;
nodes = (
"329 786 LINE",
"362 831 OFFCURVE",
"407 870 OFFCURVE",
"444 896 CURVE",
"423 919 LINE",
"388 893 OFFCURVE",
"348 858 OFFCURVE",
"320 823 CURVE",
"315 823 LINE",
"287 858 OFFCURVE",
"247 893 OFFCURVE",
"212 919 CURVE",
"191 896 LINE",
"228 870 OFFCURVE",
"273 831 OFFCURVE",
"306 786 CURVE"
);
}
);
width = 581;
}
);
note = Ecaron;
unicode = 011A;
},
{
glyphname = Ecircumflex;
lastChange = "2015-10-01 14:35:46 +0000";
layers = (
{
layerId = "047EFF1B-D2DC-4EF2-AB21-67EF4112B097";
name = Light;
paths = (
{
closed = 1;
nodes = (
"517 0 LINE",
"528 124 LINE",
"515 124 LINE",
"505 105 OFFCURVE",
"488 51 OFFCURVE",
"486 26 CURVE",
"178 26 LINE",
"178 341 LINE",
"410 341 LINE",
"412 323 OFFCURVE",
"418 283 OFFCURVE",
"427 260 CURVE",
"437 260 LINE",
"437 449 LINE",
"427 449 LINE",
"418 427 OFFCURVE",
"412 386 OFFCURVE",
"410 368 CURVE",
"178 368 LINE",
"178 673 LINE",
"485 673 LINE",
"487 649 OFFCURVE",
"495 594 OFFCURVE",
"504 575 CURVE",
"517 575 LINE",
"517 700 LINE",
"46 700 LINE",
"46 692 LINE",
"70 684 OFFCURVE",
"101 678 OFFCURVE",
"128 675 CURVE",
"128 24 LINE",
"89 20 OFFCURVE",
"65 14 OFFCURVE",
"46 8 CURVE",
"46 0 LINE"
);
},
{
closed = 1;
nodes = (
"252 803 OFFCURVE",
"292 838 OFFCURVE",
"320 873 CURVE",
"325 873 LINE",
"353 838 OFFCURVE",
"393 803 OFFCURVE",
"428 778 CURVE",
"449 800 LINE",
"412 827 OFFCURVE",
"367 866 OFFCURVE",
"334 910 CURVE",
"311 910 LINE",
"278 866 OFFCURVE",
"233 827 OFFCURVE",
"196 800 CURVE",
"217 778 LINE"
);
}
);
width = 581;
}
);
note = Ecircumflex;
unicode = 00CA;
},
{
glyphname = Ecircumflexacute;
lastChange = "2015-10-01 14:35:46 +0000";
layers = (
{
layerId = "047EFF1B-D2DC-4EF2-AB21-67EF4112B097";
name = Light;
paths = (
{
closed = 1;
nodes = (
"517 0 LINE",
"528 124 LINE",
"515 124 LINE",
"505 105 OFFCURVE",
"488 51 OFFCURVE",
"486 26 CURVE",
"178 26 LINE",
"178 341 LINE",
"410 341 LINE",
"412 323 OFFCURVE",
"418 283 OFFCURVE",
"427 260 CURVE",
"437 260 LINE",
"437 449 LINE",
"427 449 LINE",
"418 427 OFFCURVE",
"412 386 OFFCURVE",
"410 368 CURVE",
"178 368 LINE",
"178 673 LINE",
"485 673 LINE",
"487 649 OFFCURVE",
"495 594 OFFCURVE",
"504 575 CURVE",
"517 575 LINE",
"517 700 LINE",
"46 700 LINE",
"46 692 LINE",
"70 684 OFFCURVE",
"101 678 OFFCURVE",
"128 675 CURVE",
"128 24 LINE",
"89 20 OFFCURVE",
"65 14 OFFCURVE",
"46 8 CURVE",
"46 0 LINE"
);
},
{
closed = 1;
nodes = (
"254 803 OFFCURVE",
"293 838 OFFCURVE",
"321 873 CURVE",
"327 873 LINE",
"355 838 OFFCURVE",
"394 803 OFFCURVE",
"430 778 CURVE",
"451 800 LINE",
"414 827 OFFCURVE",
"368 866 OFFCURVE",
"336 910 CURVE",
"312 910 LINE",
"280 866 OFFCURVE",
"235 827 OFFCURVE",
"197 800 CURVE",
"219 778 LINE"
);
},
{
closed = 1;
nodes = (
"545 953 LINE",
"563 962 OFFCURVE",
"571 975 OFFCURVE",
"571 986 CURVE SMOOTH",
"571 996 OFFCURVE",
"563 1003 OFFCURVE",
"553 1003 CURVE SMOOTH",
"541 1003 OFFCURVE",
"528 996 OFFCURVE",
"516 984 CURVE",
"418 899 LINE",
"428 886 LINE"
);
}
);
width = 581;
}
);
note = Ecircumflexacute;
unicode = 1EBE;
},
{
glyphname = Ecircumflexdotbelow;
lastChange = "2015-10-01 14:35:46 +0000";
layers = (
{
layerId = "047EFF1B-D2DC-4EF2-AB21-67EF4112B097";
name = Light;
paths = (
{
closed = 1;
nodes = (
"517 0 LINE",
"528 124 LINE",
"515 124 LINE",
"505 105 OFFCURVE",
"488 51 OFFCURVE",
"486 26 CURVE",
"178 26 LINE",
"178 341 LINE",
"410 341 LINE",
"412 323 OFFCURVE",
"418 283 OFFCURVE",
"427 260 CURVE",
"437 260 LINE",
"437 449 LINE",
"427 449 LINE",
"418 427 OFFCURVE",
"412 386 OFFCURVE",
"410 368 CURVE",
"178 368 LINE",
"178 673 LINE",
"485 673 LINE",
"487 649 OFFCURVE",
"495 594 OFFCURVE",
"504 575 CURVE",
"517 575 LINE",
"517 700 LINE",
"46 700 LINE",
"46 692 LINE",
"70 684 OFFCURVE",
"101 678 OFFCURVE",
"128 675 CURVE",
"128 24 LINE",
"89 20 OFFCURVE",
"65 14 OFFCURVE",
"46 8 CURVE",
"46 0 LINE"
);
},
{
closed = 1;
nodes = (
"344 -133 OFFCURVE",
"358 -120 OFFCURVE",
"358 -98 CURVE SMOOTH",
"358 -76 OFFCURVE",
"344 -63 OFFCURVE",
"325 -63 CURVE SMOOTH",
"305 -63 OFFCURVE",
"291 -76 OFFCURVE",
"291 -98 CURVE SMOOTH",
"291 -120 OFFCURVE",
"305 -133 OFFCURVE",
"325 -133 CURVE SMOOTH"
);
},
{
closed = 1;
nodes = (
"253 803 OFFCURVE",
"293 838 OFFCURVE",
"321 873 CURVE",
"326 873 LINE",
"354 838 OFFCURVE",
"394 803 OFFCURVE",
"429 778 CURVE",
"450 800 LINE",
"413 827 OFFCURVE",
"368 866 OFFCURVE",
"335 910 CURVE",
"312 910 LINE",
"279 866 OFFCURVE",
"234 827 OFFCURVE",
"197 800 CURVE",
"218 778 LINE"
);
}
);
width = 581;
}
);
note = Ecircumflexdotbelow;
unicode = 1EC6;
},
{
glyphname = Ecircumflexgrave;
lastChange = "2015-10-01 14:35:46 +0000";
layers = (
{
layerId = "047EFF1B-D2DC-4EF2-AB21-67EF4112B097";
name = Light;
paths = (
{
closed = 1;
nodes = (
"517 0 LINE",
"528 124 LINE",
"515 124 LINE",
"505 105 OFFCURVE",
"488 51 OFFCURVE",
"486 26 CURVE",
"178 26 LINE",
"178 341 LINE",
"410 341 LINE",
"412 323 OFFCURVE",
"418 283 OFFCURVE",
"427 260 CURVE",
"437 260 LINE",
"437 449 LINE",
"427 449 LINE",
"418 427 OFFCURVE",
"412 386 OFFCURVE",
"410 368 CURVE",
"178 368 LINE",
"178 673 LINE",
"485 673 LINE",
"487 649 OFFCURVE",
"495 594 OFFCURVE",
"504 575 CURVE",
"517 575 LINE",
"517 700 LINE",
"46 700 LINE",
"46 692 LINE",
"70 684 OFFCURVE",
"101 678 OFFCURVE",
"128 675 CURVE",
"128 24 LINE",
"89 20 OFFCURVE",
"65 14 OFFCURVE",
"46 8 CURVE",
"46 0 LINE"
);
},
{
closed = 1;
nodes = (
"241 899 LINE",
"151 976 LINE SMOOTH",
"135 989 OFFCURVE",
"122 1003 OFFCURVE",
"107 1003 CURVE SMOOTH",
"95 1003 OFFCURVE",
"88 994 OFFCURVE",
"88 984 CURVE SMOOTH",
"88 971 OFFCURVE",
"103 959 OFFCURVE",
"124 947 CURVE SMOOTH",
"231 886 LINE"
);
},
{
closed = 1;
nodes = (
"254 803 OFFCURVE",
"293 838 OFFCURVE",
"321 873 CURVE",
"327 873 LINE",
"355 838 OFFCURVE",
"394 803 OFFCURVE",
"430 778 CURVE",
"451 800 LINE",
"414 827 OFFCURVE",
"368 866 OFFCURVE",
"336 910 CURVE",
"312 910 LINE",
"280 866 OFFCURVE",
"235 827 OFFCURVE",
"197 800 CURVE",
"219 778 LINE"
);
}
);
width = 581;
}
);
note = Ecircumflexgrave;
unicode = 1EC0;
},
{
glyphname = Ecircumflexhookabove;
lastChange = "2015-10-01 14:35:47 +0000";
layers = (
{
layerId = "047EFF1B-D2DC-4EF2-AB21-67EF4112B097";
name = Light;
paths = (
{
closed = 1;
nodes = (
"517 0 LINE",
"528 124 LINE",
"515 124 LINE",
"505 105 OFFCURVE",
"488 51 OFFCURVE",
"486 26 CURVE",
"178 26 LINE",
"178 341 LINE",
"410 341 LINE",
"412 323 OFFCURVE",
"418 283 OFFCURVE",
"427 260 CURVE",
"437 260 LINE",
"437 449 LINE",
"427 449 LINE",
"418 427 OFFCURVE",
"412 386 OFFCURVE",
"410 368 CURVE",
"178 368 LINE",
"178 673 LINE",
"485 673 LINE",
"487 649 OFFCURVE",
"495 594 OFFCURVE",
"504 575 CURVE",
"517 575 LINE",
"517 700 LINE",
"46 700 LINE",
"46 692 LINE",
"70 684 OFFCURVE",
"101 678 OFFCURVE",
"128 675 CURVE",
"128 24 LINE",
"89 20 OFFCURVE",
"65 14 OFFCURVE",
"46 8 CURVE",
"46 0 LINE"
);
},
{
closed = 1;
nodes = (
"254 803 OFFCURVE",
"293 838 OFFCURVE",
"321 873 CURVE",
"327 873 LINE",
"355 838 OFFCURVE",
"394 803 OFFCURVE",
"430 778 CURVE",
"451 800 LINE",
"414 827 OFFCURVE",
"368 866 OFFCURVE",
"336 910 CURVE",
"312 910 LINE",
"280 866 OFFCURVE",
"235 827 OFFCURVE",
"197 800 CURVE",
"219 778 LINE"
);
},
{
closed = 1;
nodes = (
"441 867 LINE",
"450 916 LINE",
"493 921 OFFCURVE",
"515 939 OFFCURVE",
"515 975 CURVE SMOOTH",
"515 1016 OFFCURVE",
"481 1033 OFFCURVE",
"445 1033 CURVE SMOOTH",
"422 1033 OFFCURVE",
"400 1026 OFFCURVE",
"386 1019 CURVE",
"391 999 LINE",
"408 1008 OFFCURVE",
"424 1011 OFFCURVE",
"437 1011 CURVE SMOOTH",
"469 1011 OFFCURVE",
"484 997 OFFCURVE",
"484 976 CURVE SMOOTH",
"484 953 OFFCURVE",
"469 934 OFFCURVE",
"428 934 CURVE SMOOTH",
"415 934 LINE",
"420 867 LINE"
);
}
);
width = 581;
}
);
note = Ecircumflexhookabove;
unicode = 1EC2;
},
{
glyphname = Ecircumflextilde;
lastChange = "2015-10-01 14:35:46 +0000";
layers = (
{
layerId = "047EFF1B-D2DC-4EF2-AB21-67EF4112B097";
name = Light;
paths = (
{
closed = 1;
nodes = (
"517 0 LINE",
"528 124 LINE",
"515 124 LINE",
"505 105 OFFCURVE",
"488 51 OFFCURVE",
"486 26 CURVE",
"178 26 LINE",
"178 341 LINE",
"410 341 LINE",
"412 323 OFFCURVE",
"418 283 OFFCURVE",
"427 260 CURVE",
"437 260 LINE",
"437 449 LINE",
"427 449 LINE",
"418 427 OFFCURVE",
"412 386 OFFCURVE",
"410 368 CURVE",
"178 368 LINE",
"178 673 LINE",
"485 673 LINE",
"487 649 OFFCURVE",
"495 594 OFFCURVE",
"504 575 CURVE",
"517 575 LINE",
"517 700 LINE",
"46 700 LINE",
"46 692 LINE",
"70 684 OFFCURVE",
"101 678 OFFCURVE",
"128 675 CURVE",
"128 24 LINE",
"89 20 OFFCURVE",
"65 14 OFFCURVE",
"46 8 CURVE",
"46 0 LINE"
);
},
{
closed = 1;
nodes = (
"254 803 OFFCURVE",
"293 838 OFFCURVE",
"321 873 CURVE",
"327 873 LINE",
"355 838 OFFCURVE",
"394 803 OFFCURVE",
"430 778 CURVE",
"451 800 LINE",
"414 827 OFFCURVE",
"368 866 OFFCURVE",
"336 910 CURVE",
"312 910 LINE",
"280 866 OFFCURVE",
"235 827 OFFCURVE",
"197 800 CURVE",
"219 778 LINE"
);
},
{
closed = 1;
nodes = (
"200 943 LINE",
"209 980 OFFCURVE",
"229 1003 OFFCURVE",
"259 1003 CURVE SMOOTH",
"299 1003 OFFCURVE",
"346 944 OFFCURVE",
"388 944 CURVE SMOOTH",
"432 944 OFFCURVE",
"458 981 OFFCURVE",
"466 1039 CURVE",
"449 1039 LINE",
"440 998 OFFCURVE",
"421 975 OFFCURVE",
"390 975 CURVE SMOOTH",
"351 975 OFFCURVE",
"306 1033 OFFCURVE",
"261 1033 CURVE SMOOTH",
"222 1033 OFFCURVE",
"191 1006 OFFCURVE",
"183 943 CURVE"
);
}
);
width = 581;
}
);
note = Ecircumflextilde;
unicode = 1EC4;
},
{
glyphname = Edieresis;
lastChange = "2015-10-01 14:35:46 +0000";
layers = (
{
layerId = "047EFF1B-D2DC-4EF2-AB21-67EF4112B097";
name = Light;
paths = (
{
closed = 1;
nodes = (
"517 0 LINE",
"528 124 LINE",
"515 124 LINE",
"505 105 OFFCURVE",
"488 51 OFFCURVE",
"486 26 CURVE",
"178 26 LINE",
"178 341 LINE",
"410 341 LINE",
"412 323 OFFCURVE",
"418 283 OFFCURVE",
"427 260 CURVE",
"437 260 LINE",
"437 449 LINE",
"427 449 LINE",
"418 427 OFFCURVE",
"412 386 OFFCURVE",
"410 368 CURVE",
"178 368 LINE",
"178 673 LINE",
"485 673 LINE",
"487 649 OFFCURVE",
"495 594 OFFCURVE",
"504 575 CURVE",
"517 575 LINE",
"517 700 LINE",
"46 700 LINE",
"46 692 LINE",
"70 684 OFFCURVE",
"101 678 OFFCURVE",
"128 675 CURVE",
"128 24 LINE",
"89 20 OFFCURVE",
"65 14 OFFCURVE",
"46 8 CURVE",
"46 0 LINE"
);
},
{
closed = 1;
nodes = (
"235 785 OFFCURVE",
"249 798 OFFCURVE",
"249 820 CURVE SMOOTH",
"249 842 OFFCURVE",
"235 855 OFFCURVE",
"215 855 CURVE SMOOTH",
"196 855 OFFCURVE",
"182 842 OFFCURVE",
"182 820 CURVE SMOOTH",
"182 798 OFFCURVE",
"196 785 OFFCURVE",
"215 785 CURVE SMOOTH"
);
},
{
closed = 1;
nodes = (
"441 785 OFFCURVE",
"455 798 OFFCURVE",
"455 820 CURVE SMOOTH",
"455 842 OFFCURVE",
"441 855 OFFCURVE",
"422 855 CURVE SMOOTH",
"402 855 OFFCURVE",
"388 842 OFFCURVE",
"388 820 CURVE SMOOTH",
"388 798 OFFCURVE",
"402 785 OFFCURVE",
"422 785 CURVE SMOOTH"
);
}
);
width = 581;
}
);
note = Edieresis;
unicode = 00CB;
},
{
glyphname = Edotaccent;
lastChange = "2015-10-01 14:35:46 +0000";
layers = (
{
layerId = "047EFF1B-D2DC-4EF2-AB21-67EF4112B097";
name = Light;
paths = (
{
closed = 1;
nodes = (
"517 0 LINE",
"528 124 LINE",
"515 124 LINE",
"505 105 OFFCURVE",
"488 51 OFFCURVE",
"486 26 CURVE",
"178 26 LINE",
"178 341 LINE",
"410 341 LINE",
"412 323 OFFCURVE",
"418 283 OFFCURVE",
"427 260 CURVE",
"437 260 LINE",
"437 449 LINE",
"427 449 LINE",
"418 427 OFFCURVE",
"412 386 OFFCURVE",
"410 368 CURVE",
"178 368 LINE",
"178 673 LINE",
"485 673 LINE",
"487 649 OFFCURVE",
"495 594 OFFCURVE",
"504 575 CURVE",
"517 575 LINE",
"517 700 LINE",
"46 700 LINE",
"46 692 LINE",
"70 684 OFFCURVE",
"101 678 OFFCURVE",
"128 675 CURVE",
"128 24 LINE",
"89 20 OFFCURVE",
"65 14 OFFCURVE",
"46 8 CURVE",
"46 0 LINE"
);
},
{
closed = 1;
nodes = (
"344 785 OFFCURVE",
"358 798 OFFCURVE",
"358 820 CURVE SMOOTH",
"358 842 OFFCURVE",
"344 855 OFFCURVE",
"325 855 CURVE SMOOTH",
"305 855 OFFCURVE",
"291 842 OFFCURVE",
"291 820 CURVE SMOOTH",
"291 798 OFFCURVE",
"305 785 OFFCURVE",
"325 785 CURVE SMOOTH"
);
}
);
width = 581;
}
);
note = Edotaccent;
unicode = 0116;
},
{
glyphname = Edotbelow;
lastChange = "2015-10-01 14:35:46 +0000";
layers = (
{
layerId = "047EFF1B-D2DC-4EF2-AB21-67EF4112B097";
name = Light;
paths = (
{
closed = 1;
nodes = (
"517 0 LINE",
"528 124 LINE",
"515 124 LINE",
"505 105 OFFCURVE",
"488 51 OFFCURVE",
"486 26 CURVE",
"178 26 LINE",
"178 341 LINE",
"410 341 LINE",
"412 323 OFFCURVE",
"418 283 OFFCURVE",
"427 260 CURVE",
"437 260 LINE",
"437 449 LINE",
"427 449 LINE",
"418 427 OFFCURVE",
"412 386 OFFCURVE",
"410 368 CURVE",
"178 368 LINE",
"178 673 LINE",
"485 673 LINE",
"487 649 OFFCURVE",
"495 594 OFFCURVE",
"504 575 CURVE",
"517 575 LINE",
"517 700 LINE",
"46 700 LINE",
"46 692 LINE",
"70 684 OFFCURVE",
"101 678 OFFCURVE",
"128 675 CURVE",
"128 24 LINE",
"89 20 OFFCURVE",
"65 14 OFFCURVE",
"46 8 CURVE",
"46 0 LINE"
);
},
{
closed = 1;
nodes = (
"321 -133 OFFCURVE",
"335 -120 OFFCURVE",
"335 -98 CURVE SMOOTH",
"335 -76 OFFCURVE",
"321 -63 OFFCURVE",
"302 -63 CURVE SMOOTH",
"282 -63 OFFCURVE",
"268 -76 OFFCURVE",
"268 -98 CURVE SMOOTH",
"268 -120 OFFCURVE",
"282 -133 OFFCURVE",
"302 -133 CURVE SMOOTH"
);
}
);
width = 581;
}
);
note = Edotbelow;
unicode = 1EB8;
},
{
glyphname = Egrave;
lastChange = "2015-10-01 14:35:46 +0000";
layers = (
{
layerId = "047EFF1B-D2DC-4EF2-AB21-67EF4112B097";
name = Light;
paths = (
{
closed = 1;
nodes = (
"517 0 LINE",
"528 124 LINE",
"515 124 LINE",
"505 105 OFFCURVE",
"488 51 OFFCURVE",
"486 26 CURVE",
"178 26 LINE",
"178 341 LINE",
"410 341 LINE",
"412 323 OFFCURVE",
"418 283 OFFCURVE",
"427 260 CURVE",
"437 260 LINE",
"437 449 LINE",
"427 449 LINE",
"418 427 OFFCURVE",
"412 386 OFFCURVE",
"410 368 CURVE",
"178 368 LINE",
"178 673 LINE",
"485 673 LINE",
"487 649 OFFCURVE",
"495 594 OFFCURVE",
"504 575 CURVE",
"517 575 LINE",
"517 700 LINE",
"46 700 LINE",
"46 692 LINE",
"70 684 OFFCURVE",
"101 678 OFFCURVE",
"128 675 CURVE",
"128 24 LINE",
"89 20 OFFCURVE",
"65 14 OFFCURVE",
"46 8 CURVE",
"46 0 LINE"
);
},
{
closed = 1;
nodes = (
"401 801 LINE",
"291 894 LINE",
"282 903 OFFCURVE",
"272 910 OFFCURVE",
"259 910 CURVE SMOOTH",
"247 910 OFFCURVE",
"239 902 OFFCURVE",
"239 891 CURVE SMOOTH",
"239 881 OFFCURVE",
"246 870 OFFCURVE",
"261 862 CURVE",
"391 786 LINE"
);
}
);
width = 581;
}
);
note = Egrave;
unicode = 00C8;
},
{
glyphname = Ehookabove;
lastChange = "2015-10-01 14:35:47 +0000";
layers = (
{
layerId = "047EFF1B-D2DC-4EF2-AB21-67EF4112B097";
name = Light;
paths = (
{
closed = 1;
nodes = (
"517 0 LINE",
"528 124 LINE",
"515 124 LINE",
"505 105 OFFCURVE",
"488 51 OFFCURVE",
"486 26 CURVE",
"178 26 LINE",
"178 341 LINE",
"410 341 LINE",
"412 323 OFFCURVE",
"418 283 OFFCURVE",
"427 260 CURVE",
"437 260 LINE",
"437 449 LINE",
"427 449 LINE",
"418 427 OFFCURVE",
"412 386 OFFCURVE",
"410 368 CURVE",
"178 368 LINE",
"178 673 LINE",
"485 673 LINE",
"487 649 OFFCURVE",
"495 594 OFFCURVE",
"504 575 CURVE",
"517 575 LINE",
"517 700 LINE",
"46 700 LINE",
"46 692 LINE",
"70 684 OFFCURVE",
"101 678 OFFCURVE",
"128 675 CURVE",
"128 24 LINE",
"89 20 OFFCURVE",
"65 14 OFFCURVE",
"46 8 CURVE",
"46 0 LINE"
);
},
{
closed = 1;
nodes = (
"329 777 LINE",
"340 838 LINE",
"391 843 OFFCURVE",
"416 869 OFFCURVE",
"416 908 CURVE SMOOTH",
"416 956 OFFCURVE",
"377 978 OFFCURVE",
"333 978 CURVE SMOOTH",
"305 978 OFFCURVE",
"279 970 OFFCURVE",
"262 962 CURVE",
"269 938 LINE",
"289 949 OFFCURVE",
"309 954 OFFCURVE",
"325 954 CURVE SMOOTH",
"363 954 OFFCURVE",
"382 935 OFFCURVE",
"382 910 CURVE SMOOTH",
"382 883 OFFCURVE",
"364 858 OFFCURVE",
"316 858 CURVE SMOOTH",
"301 858 LINE",
"306 777 LINE"
);
}
);
width = 581;
}
);
note = Ehookabove;
unicode = 1EBA;
},
{
glyphname = Emacron;
lastChange = "2015-10-01 14:35:47 +0000";
layers = (
{
layerId = "047EFF1B-D2DC-4EF2-AB21-67EF4112B097";
name = Light;
paths = (
{
closed = 1;
nodes = (
"517 0 LINE",
"528 124 LINE",
"515 124 LINE",
"505 105 OFFCURVE",
"488 51 OFFCURVE",
"486 26 CURVE",
"178 26 LINE",
"178 341 LINE",
"410 341 LINE",
"412 323 OFFCURVE",
"418 283 OFFCURVE",
"427 260 CURVE",
"437 260 LINE",
"437 449 LINE",
"427 449 LINE",
"418 427 OFFCURVE",
"412 386 OFFCURVE",
"410 368 CURVE",
"178 368 LINE",
"178 673 LINE",
"485 673 LINE",
"487 649 OFFCURVE",
"495 594 OFFCURVE",
"504 575 CURVE",
"517 575 LINE",
"517 700 LINE",
"46 700 LINE",
"46 692 LINE",
"70 684 OFFCURVE",
"101 678 OFFCURVE",
"128 675 CURVE",
"128 24 LINE",
"89 20 OFFCURVE",
"65 14 OFFCURVE",
"46 8 CURVE",
"46 0 LINE"
);
},
{
closed = 1;
nodes = (
"463 784 LINE",
"463 811 LINE",
"168 811 LINE",
"168 784 LINE"
);
}
);
width = 581;
}
);
note = Emacron;
unicode = 0112;
},
{
glyphname = Eogonek;
lastChange = "2015-10-01 14:35:46 +0000";
layers = (
{
layerId = "047EFF1B-D2DC-4EF2-AB21-67EF4112B097";
name = Light;
paths = (
{
closed = 1;
nodes = (
"517 0 LINE",
"528 124 LINE",
"515 124 LINE",
"505 105 OFFCURVE",
"488 51 OFFCURVE",
"486 26 CURVE",
"178 26 LINE",
"178 341 LINE",
"410 341 LINE",
"412 323 OFFCURVE",
"418 283 OFFCURVE",
"427 260 CURVE",
"437 260 LINE",
"437 449 LINE",
"427 449 LINE",
"418 427 OFFCURVE",
"412 386 OFFCURVE",
"410 368 CURVE",
"178 368 LINE",
"178 673 LINE",
"485 673 LINE",
"487 649 OFFCURVE",
"495 594 OFFCURVE",
"504 575 CURVE",
"517 575 LINE",
"517 700 LINE",
"46 700 LINE",
"46 692 LINE",
"70 684 OFFCURVE",
"101 678 OFFCURVE",
"128 675 CURVE",
"128 24 LINE",
"89 20 OFFCURVE",
"65 14 OFFCURVE",
"46 8 CURVE",
"46 0 LINE"
);
},
{
closed = 1;
nodes = (
"490 -175 OFFCURVE",
"509 -171 OFFCURVE",
"531 -163 CURVE",
"531 -137 LINE",
"516 -143 OFFCURVE",
"500 -146 OFFCURVE",
"485 -146 CURVE SMOOTH",
"452 -146 OFFCURVE",
"424 -132 OFFCURVE",
"424 -96 CURVE SMOOTH",
"424 -57 OFFCURVE",
"454 -20 OFFCURVE",
"494 0 CURVE",
"460 0 LINE",
"413 -20 OFFCURVE",
"384 -57 OFFCURVE",
"384 -101 CURVE SMOOTH",
"384 -135 OFFCURVE",
"410 -175 OFFCURVE",
"467 -175 CURVE SMOOTH"
);
}
);
width = 581;
}
);
note = Eogonek;
unicode = 0118;
},
{
glyphname = Etilde;
lastChange = "2015-10-01 14:35:47 +0000";
layers = (
{
layerId = "047EFF1B-D2DC-4EF2-AB21-67EF4112B097";
name = Light;
paths = (
{
closed = 1;
nodes = (
"517 0 LINE",
"528 124 LINE",
"515 124 LINE",
"505 105 OFFCURVE",
"488 51 OFFCURVE",
"486 26 CURVE",
"178 26 LINE",
"178 341 LINE",
"410 341 LINE",
"412 323 OFFCURVE",
"418 283 OFFCURVE",
"427 260 CURVE",
"437 260 LINE",
"437 449 LINE",
"427 449 LINE",
"418 427 OFFCURVE",
"412 386 OFFCURVE",
"410 368 CURVE",
"178 368 LINE",
"178 673 LINE",
"485 673 LINE",
"487 649 OFFCURVE",
"495 594 OFFCURVE",
"504 575 CURVE",
"517 575 LINE",
"517 700 LINE",
"46 700 LINE",
"46 692 LINE",
"70 684 OFFCURVE",
"101 678 OFFCURVE",
"128 675 CURVE",
"128 24 LINE",
"89 20 OFFCURVE",
"65 14 OFFCURVE",
"46 8 CURVE",
"46 0 LINE"
);
},
{
closed = 1;
nodes = (
"181 785 LINE",
"190 822 OFFCURVE",
"212 845 OFFCURVE",
"243 845 CURVE SMOOTH",
"285 845 OFFCURVE",
"334 786 OFFCURVE",
"379 786 CURVE SMOOTH",
"425 786 OFFCURVE",
"453 823 OFFCURVE",
"462 881 CURVE",
"444 881 LINE",
"434 840 OFFCURVE",
"414 817 OFFCURVE",
"381 817 CURVE SMOOTH",
"340 817 OFFCURVE",
"293 875 OFFCURVE",
"245 875 CURVE SMOOTH",
"203 875 OFFCURVE",
"171 848 OFFCURVE",
"163 785 CURVE"
);
}
);
width = 581;
}
);
note = Etilde;
unicode = 1EBC;
},
{
glyphname = F;
lastChange = "2015-10-01 14:35:47 +0000";
layers = (
{
layerId = "047EFF1B-D2DC-4EF2-AB21-67EF4112B097";
name = Light;
paths = (
{
closed = 1;
nodes = (
"260 0 LINE",
"260 7 LINE",
"236 15 OFFCURVE",
"206 20 OFFCURVE",
"178 24 CURVE",
"178 673 LINE",
"482 673 LINE",
"484 649 OFFCURVE",
"492 594 OFFCURVE",
"501 575 CURVE",
"514 575 LINE",
"514 700 LINE",
"46 700 LINE",
"46 692 LINE",
"70 684 OFFCURVE",
"101 679 OFFCURVE",
"128 675 CURVE",
"128 24 LINE",
"88 20 OFFCURVE",
"65 14 OFFCURVE",
"46 8 CURVE",
"46 0 LINE"
);
},
{
closed = 1;
nodes = (
"437 260 LINE",
"437 449 LINE",
"427 449 LINE",
"418 427 OFFCURVE",
"412 386 OFFCURVE",
"410 368 CURVE",
"151 368 LINE",
"151 341 LINE",
"410 341 LINE",
"412 323 OFFCURVE",
"418 283 OFFCURVE",
"427 260 CURVE"
);
}
);
width = 542;
}
);
note = F;
unicode = 0046;
},
{
glyphname = G;
lastChange = "2015-10-01 14:35:45 +0000";
layers = (
{
layerId = "047EFF1B-D2DC-4EF2-AB21-67EF4112B097";
name = Light;
paths = (
{
closed = 1;
nodes = (
"418 -10 OFFCURVE",
"505 10 OFFCURVE",
"555 50 CURVE",
"555 313 LINE",
"592 317 OFFCURVE",
"611 324 OFFCURVE",
"626 331 CURVE",
"626 338 LINE",
"427 338 LINE",
"427 331 LINE",
"451 324 OFFCURVE",
"479 318 OFFCURVE",
"508 313 CURVE",
"508 55 LINE",
"461 28 OFFCURVE",
"391 17 OFFCURVE",
"354 17 CURVE SMOOTH",
"155 17 OFFCURVE",
"89 165 OFFCURVE",
"89 350 CURVE SMOOTH",
"89 536 OFFCURVE",
"169 683 OFFCURVE",
"363 683 CURVE SMOOTH",
"423 683 OFFCURVE",
"506 661 OFFCURVE",
"530 640 CURVE",
"533 613 OFFCURVE",
"537 563 OFFCURVE",
"547 541 CURVE",
"561 541 LINE",
"568 647 LINE",
"525 685 OFFCURVE",
"429 710 OFFCURVE",
"350 710 CURVE SMOOTH",
"155 710 OFFCURVE",
"39 572 OFFCURVE",
"39 350 CURVE SMOOTH",
"39 127 OFFCURVE",
"141 -10 OFFCURVE",
"342 -10 CURVE SMOOTH"
);
}
);
width = 637;
}
);
leftKerningGroup = G;
note = G;
unicode = 0047;
},
{
glyphname = Gbreve;
lastChange = "2015-10-01 14:35:47 +0000";
layers = (
{
layerId = "047EFF1B-D2DC-4EF2-AB21-67EF4112B097";
name = Light;
paths = (
{
closed = 1;
nodes = (
"418 -10 OFFCURVE",
"505 10 OFFCURVE",
"555 50 CURVE",
"555 313 LINE",
"592 317 OFFCURVE",
"611 324 OFFCURVE",
"626 331 CURVE",
"626 338 LINE",
"427 338 LINE",
"427 331 LINE",
"451 324 OFFCURVE",
"479 318 OFFCURVE",
"508 313 CURVE",
"508 55 LINE",
"461 28 OFFCURVE",
"391 17 OFFCURVE",
"354 17 CURVE SMOOTH",
"155 17 OFFCURVE",
"89 165 OFFCURVE",
"89 350 CURVE SMOOTH",
"89 536 OFFCURVE",
"169 683 OFFCURVE",
"363 683 CURVE SMOOTH",
"423 683 OFFCURVE",
"506 661 OFFCURVE",
"530 640 CURVE",
"533 613 OFFCURVE",
"537 563 OFFCURVE",
"547 541 CURVE",
"561 541 LINE",
"568 647 LINE",
"525 685 OFFCURVE",
"429 710 OFFCURVE",
"350 710 CURVE SMOOTH",
"155 710 OFFCURVE",
"39 572 OFFCURVE",
"39 350 CURVE SMOOTH",
"39 127 OFFCURVE",
"141 -10 OFFCURVE",
"342 -10 CURVE SMOOTH"
);
},
{
closed = 1;
nodes = (
"424 774 OFFCURVE",
"480 810 OFFCURVE",
"487 891 CURVE",
"451 891 LINE",
"442 813 OFFCURVE",
"390 801 OFFCURVE",
"349 801 CURVE SMOOTH",
"308 801 OFFCURVE",
"255 813 OFFCURVE",
"246 891 CURVE",
"210 891 LINE",
"218 810 OFFCURVE",
"273 774 OFFCURVE",
"349 774 CURVE SMOOTH"
);
}
);
width = 637;
}
);
leftKerningGroup = G;
note = Gbreve;
unicode = 011E;
},
{
glyphname = Gcaron;
lastChange = "2015-10-01 14:35:46 +0000";
layers = (
{
layerId = "047EFF1B-D2DC-4EF2-AB21-67EF4112B097";
name = Light;
paths = (
{
closed = 1;
nodes = (
"418 -10 OFFCURVE",
"505 10 OFFCURVE",
"555 50 CURVE",
"555 313 LINE",
"592 317 OFFCURVE",
"611 324 OFFCURVE",
"626 331 CURVE",
"626 338 LINE",
"427 338 LINE",
"427 331 LINE",
"451 324 OFFCURVE",
"479 318 OFFCURVE",
"508 313 CURVE",
"508 55 LINE",
"461 28 OFFCURVE",
"391 17 OFFCURVE",
"354 17 CURVE SMOOTH",
"155 17 OFFCURVE",
"89 165 OFFCURVE",
"89 350 CURVE SMOOTH",
"89 536 OFFCURVE",
"169 683 OFFCURVE",
"363 683 CURVE SMOOTH",
"423 683 OFFCURVE",
"506 661 OFFCURVE",
"530 640 CURVE",
"533 613 OFFCURVE",
"537 563 OFFCURVE",
"547 541 CURVE",
"561 541 LINE",
"568 647 LINE",
"525 685 OFFCURVE",
"429 710 OFFCURVE",
"350 710 CURVE SMOOTH",
"155 710 OFFCURVE",
"39 572 OFFCURVE",
"39 350 CURVE SMOOTH",
"39 127 OFFCURVE",
"141 -10 OFFCURVE",
"342 -10 CURVE SMOOTH"
);
},
{
closed = 1;
nodes = (
"358 802 LINE",
"391 847 OFFCURVE",
"436 886 OFFCURVE",
"473 912 CURVE",
"452 935 LINE",
"417 909 OFFCURVE",
"377 874 OFFCURVE",
"349 839 CURVE",
"344 839 LINE",
"316 874 OFFCURVE",
"276 909 OFFCURVE",
"241 935 CURVE",
"220 912 LINE",
"257 886 OFFCURVE",
"302 847 OFFCURVE",
"335 802 CURVE"
);
}
);
width = 637;
}
);
leftKerningGroup = G;
note = Gcaron;
unicode = 01E6;
},
{
glyphname = Gcircumflex;
lastChange = "2015-10-01 14:35:46 +0000";
layers = (
{
layerId = "047EFF1B-D2DC-4EF2-AB21-67EF4112B097";
name = Light;
paths = (
{
closed = 1;
nodes = (
"418 -10 OFFCURVE",
"505 10 OFFCURVE",
"555 50 CURVE",
"555 313 LINE",
"592 317 OFFCURVE",
"611 324 OFFCURVE",
"626 331 CURVE",
"626 338 LINE",
"427 338 LINE",
"427 331 LINE",
"451 324 OFFCURVE",
"479 318 OFFCURVE",
"508 313 CURVE",
"508 55 LINE",
"461 28 OFFCURVE",
"391 17 OFFCURVE",
"354 17 CURVE SMOOTH",
"155 17 OFFCURVE",
"89 165 OFFCURVE",
"89 350 CURVE SMOOTH",
"89 536 OFFCURVE",
"169 683 OFFCURVE",
"363 683 CURVE SMOOTH",
"423 683 OFFCURVE",
"506 661 OFFCURVE",
"530 640 CURVE",
"533 613 OFFCURVE",
"537 563 OFFCURVE",
"547 541 CURVE",
"561 541 LINE",
"568 647 LINE",
"525 685 OFFCURVE",
"429 710 OFFCURVE",
"350 710 CURVE SMOOTH",
"155 710 OFFCURVE",
"39 572 OFFCURVE",
"39 350 CURVE SMOOTH",
"39 127 OFFCURVE",
"141 -10 OFFCURVE",
"342 -10 CURVE SMOOTH"
);
},
{
closed = 1;
nodes = (
"293 803 OFFCURVE",
"333 838 OFFCURVE",
"361 873 CURVE",
"366 873 LINE",
"394 838 OFFCURVE",
"434 803 OFFCURVE",
"469 778 CURVE",
"490 800 LINE",
"453 827 OFFCURVE",
"408 866 OFFCURVE",
"375 910 CURVE",
"352 910 LINE",
"319 866 OFFCURVE",
"274 827 OFFCURVE",
"237 800 CURVE",
"258 778 LINE"
);
}
);
width = 637;
}
);
leftKerningGroup = G;
note = Gcircumflex;
unicode = 011C;
},
{
glyphname = Gcommaaccent;
lastChange = "2015-10-01 14:35:46 +0000";
layers = (
{
layerId = "047EFF1B-D2DC-4EF2-AB21-67EF4112B097";
name = Light;
paths = (
{
closed = 1;
nodes = (
"418 -10 OFFCURVE",
"505 10 OFFCURVE",
"555 50 CURVE",
"555 313 LINE",
"592 317 OFFCURVE",
"611 324 OFFCURVE",
"626 331 CURVE",
"626 338 LINE",
"427 338 LINE",
"427 331 LINE",
"451 324 OFFCURVE",
"479 318 OFFCURVE",
"508 313 CURVE",
"508 55 LINE",
"461 28 OFFCURVE",
"391 17 OFFCURVE",
"354 17 CURVE SMOOTH",
"155 17 OFFCURVE",
"89 165 OFFCURVE",
"89 350 CURVE SMOOTH",
"89 536 OFFCURVE",
"169 683 OFFCURVE",
"363 683 CURVE SMOOTH",
"423 683 OFFCURVE",
"506 661 OFFCURVE",
"530 640 CURVE",
"533 613 OFFCURVE",
"537 563 OFFCURVE",
"547 541 CURVE",
"561 541 LINE",
"568 647 LINE",
"525 685 OFFCURVE",
"429 710 OFFCURVE",
"350 710 CURVE SMOOTH",
"155 710 OFFCURVE",
"39 572 OFFCURVE",
"39 350 CURVE SMOOTH",
"39 127 OFFCURVE",
"141 -10 OFFCURVE",
"342 -10 CURVE SMOOTH"
);
},
{
closed = 1;
nodes = (
"369 -225 OFFCURVE",
"390 -160 OFFCURVE",
"390 -119 CURVE SMOOTH",
"390 -85 OFFCURVE",
"376 -61 OFFCURVE",
"341 -61 CURVE SMOOTH",
"321 -61 OFFCURVE",
"302 -72 OFFCURVE",
"302 -98 CURVE SMOOTH",
"302 -119 OFFCURVE",
"317 -135 OFFCURVE",
"336 -135 CURVE SMOOTH",
"341 -135 OFFCURVE",
"348 -134 OFFCURVE",
"353 -132 CURVE",
"351 -147 LINE",
"348 -180 OFFCURVE",
"335 -216 OFFCURVE",
"315 -241 CURVE",
"336 -258 LINE"
);
}
);
width = 637;
}
);
leftKerningGroup = G;
note = Gcommaaccent;
unicode = 0122;
},
{
glyphname = Gdotaccent;
lastChange = "2015-10-01 14:35:46 +0000";
layers = (
{
layerId = "047EFF1B-D2DC-4EF2-AB21-67EF4112B097";
name = Light;
paths = (
{
closed = 1;
nodes = (
"418 -10 OFFCURVE",
"505 10 OFFCURVE",
"555 50 CURVE",
"555 313 LINE",
"592 317 OFFCURVE",
"611 324 OFFCURVE",
"626 331 CURVE",
"626 338 LINE",
"427 338 LINE",
"427 331 LINE",
"451 324 OFFCURVE",
"479 318 OFFCURVE",
"508 313 CURVE",
"508 55 LINE",
"461 28 OFFCURVE",
"391 17 OFFCURVE",
"354 17 CURVE SMOOTH",
"155 17 OFFCURVE",
"89 165 OFFCURVE",
"89 350 CURVE SMOOTH",
"89 536 OFFCURVE",
"169 683 OFFCURVE",
"363 683 CURVE SMOOTH",
"423 683 OFFCURVE",
"506 661 OFFCURVE",
"530 640 CURVE",
"533 613 OFFCURVE",
"537 563 OFFCURVE",
"547 541 CURVE",
"561 541 LINE",
"568 647 LINE",
"525 685 OFFCURVE",
"429 710 OFFCURVE",
"350 710 CURVE SMOOTH",
"155 710 OFFCURVE",
"39 572 OFFCURVE",
"39 350 CURVE SMOOTH",
"39 127 OFFCURVE",
"141 -10 OFFCURVE",
"342 -10 CURVE SMOOTH"
);
},
{
closed = 1;
nodes = (
"375 785 OFFCURVE",
"389 798 OFFCURVE",
"389 820 CURVE SMOOTH",
"389 842 OFFCURVE",
"375 855 OFFCURVE",
"356 855 CURVE SMOOTH",
"336 855 OFFCURVE",
"322 842 OFFCURVE",
"322 820 CURVE SMOOTH",
"322 798 OFFCURVE",
"336 785 OFFCURVE",
"356 785 CURVE SMOOTH"
);
}
);
width = 637;
}
);
leftKerningGroup = G;
note = Gdotaccent;
unicode = 0120;
},
{
glyphname = Gmacron;
lastChange = "2015-10-01 14:35:47 +0000";
layers = (
{
layerId = "047EFF1B-D2DC-4EF2-AB21-67EF4112B097";
name = Light;
paths = (
{
closed = 1;
nodes = (
"418 -10 OFFCURVE",
"505 10 OFFCURVE",
"555 50 CURVE",
"555 313 LINE",
"592 317 OFFCURVE",
"611 324 OFFCURVE",
"626 331 CURVE",
"626 338 LINE",
"427 338 LINE",
"427 331 LINE",
"451 324 OFFCURVE",
"479 318 OFFCURVE",
"508 313 CURVE",
"508 55 LINE",
"461 28 OFFCURVE",
"391 17 OFFCURVE",
"354 17 CURVE SMOOTH",
"155 17 OFFCURVE",
"89 165 OFFCURVE",
"89 350 CURVE SMOOTH",
"89 536 OFFCURVE",
"169 683 OFFCURVE",
"363 683 CURVE SMOOTH",
"423 683 OFFCURVE",
"506 661 OFFCURVE",
"530 640 CURVE",
"533 613 OFFCURVE",
"537 563 OFFCURVE",
"547 541 CURVE",
"561 541 LINE",
"568 647 LINE",
"525 685 OFFCURVE",
"429 710 OFFCURVE",
"350 710 CURVE SMOOTH",
"155 710 OFFCURVE",
"39 572 OFFCURVE",
"39 350 CURVE SMOOTH",
"39 127 OFFCURVE",
"141 -10 OFFCURVE",
"342 -10 CURVE SMOOTH"
);
},
{
closed = 1;
nodes = (
"502 784 LINE",
"502 811 LINE",
"207 811 LINE",
"207 784 LINE"
);
}
);
width = 637;
}
);
leftKerningGroup = G;
note = Gmacron;
unicode = 1E20;
},
{
glyphname = H;
lastChange = "2015-10-01 14:35:47 +0000";
layers = (
{
layerId = "047EFF1B-D2DC-4EF2-AB21-67EF4112B097";
name = Light;
paths = (
{
closed = 1;
nodes = (
"256 0 LINE",
"256 7 LINE",
"232 15 OFFCURVE",
"205 20 OFFCURVE",
"177 24 CURVE",
"177 675 LINE",
"216 679 OFFCURVE",
"233 683 OFFCURVE",
"256 692 CURVE",
"256 700 LINE",
"46 700 LINE",
"46 692 LINE",
"70 684 OFFCURVE",
"99 679 OFFCURVE",
"127 675 CURVE",
"127 24 LINE",
"88 20 OFFCURVE",
"65 14 OFFCURVE",
"46 8 CURVE",
"46 0 LINE"
);
},
{
closed = 1;
nodes = (
"615 342 LINE",
"615 369 LINE",
"153 369 LINE",
"153 342 LINE"
);
},
{
closed = 1;
nodes = (
"721 0 LINE",
"721 7 LINE",
"697 15 OFFCURVE",
"667 20 OFFCURVE",
"640 24 CURVE",
"640 675 LINE",
"679 679 OFFCURVE",
"702 685 OFFCURVE",
"721 691 CURVE",
"721 700 LINE",
"512 700 LINE",
"512 692 LINE",
"536 684 OFFCURVE",
"563 679 OFFCURVE",
"590 675 CURVE",
"590 24 LINE",
"552 20 OFFCURVE",
"535 16 OFFCURVE",
"512 7 CURVE",
"512 0 LINE"
);
}
);
width = 767;
}
);
note = H;
unicode = 0048;
},
{
glyphname = Hbar;
lastChange = "2015-10-01 14:35:46 +0000";
layers = (
{
layerId = "047EFF1B-D2DC-4EF2-AB21-67EF4112B097";
name = Light;
paths = (
{
closed = 1;
nodes = (
"256 0 LINE",
"256 7 LINE",
"232 15 OFFCURVE",
"205 20 OFFCURVE",
"177 24 CURVE",
"177 675 LINE",
"216 679 OFFCURVE",
"233 683 OFFCURVE",
"256 692 CURVE",
"256 700 LINE",
"46 700 LINE",
"46 692 LINE",
"70 684 OFFCURVE",
"99 679 OFFCURVE",
"127 675 CURVE",
"127 24 LINE",
"88 20 OFFCURVE",
"65 14 OFFCURVE",
"46 8 CURVE",
"46 0 LINE"
);
},
{
closed = 1;
nodes = (
"615 342 LINE",
"615 369 LINE",
"154 369 LINE",
"154 342 LINE"
);
},
{
closed = 1;
nodes = (
"701 511 LINE",
"701 538 LINE",
"66 538 LINE",
"66 511 LINE"
);
},
{
closed = 1;
nodes = (
"721 0 LINE",
"721 7 LINE",
"697 15 OFFCURVE",
"667 20 OFFCURVE",
"640 24 CURVE",
"640 675 LINE",
"679 679 OFFCURVE",
"702 685 OFFCURVE",
"721 691 CURVE",
"721 700 LINE",
"512 700 LINE",
"512 692 LINE",
"536 684 OFFCURVE",
"563 679 OFFCURVE",
"590 675 CURVE",
"590 24 LINE",
"552 20 OFFCURVE",
"535 16 OFFCURVE",
"512 7 CURVE",
"512 0 LINE"
);
}
);
width = 767;
}
);
note = Hbar;
unicode = 0126;
},
{
glyphname = Hbrevebelow;
lastChange = "2015-10-01 14:35:46 +0000";
layers = (
{
layerId = "047EFF1B-D2DC-4EF2-AB21-67EF4112B097";
name = Light;
paths = (
{
closed = 1;
nodes = (
"256 0 LINE",
"256 7 LINE",
"232 15 OFFCURVE",
"205 20 OFFCURVE",
"177 24 CURVE",
"177 675 LINE",
"216 679 OFFCURVE",
"233 683 OFFCURVE",
"256 692 CURVE",
"256 700 LINE",
"46 700 LINE",
"46 692 LINE",
"70 684 OFFCURVE",
"99 679 OFFCURVE",
"127 675 CURVE",
"127 24 LINE",
"88 20 OFFCURVE",
"65 14 OFFCURVE",
"46 8 CURVE",
"46 0 LINE"
);
},
{
closed = 1;
nodes = (
"458 -167 OFFCURVE",
"514 -131 OFFCURVE",
"521 -50 CURVE",
"485 -50 LINE",
"476 -128 OFFCURVE",
"424 -140 OFFCURVE",
"383 -140 CURVE SMOOTH",
"342 -140 OFFCURVE",
"289 -128 OFFCURVE",
"280 -50 CURVE",
"244 -50 LINE",
"252 -131 OFFCURVE",
"307 -167 OFFCURVE",
"383 -167 CURVE SMOOTH"
);
},
{
closed = 1;
nodes = (
"615 342 LINE",
"615 369 LINE",
"153 369 LINE",
"153 342 LINE"
);
},
{
closed = 1;
nodes = (
"721 0 LINE",
"721 7 LINE",
"697 15 OFFCURVE",
"667 20 OFFCURVE",
"640 24 CURVE",
"640 675 LINE",
"679 679 OFFCURVE",
"702 685 OFFCURVE",
"721 691 CURVE",
"721 700 LINE",
"512 700 LINE",
"512 692 LINE",
"536 684 OFFCURVE",
"563 679 OFFCURVE",
"590 675 CURVE",
"590 24 LINE",
"552 20 OFFCURVE",
"535 16 OFFCURVE",
"512 7 CURVE",
"512 0 LINE"
);
}
);
width = 767;
}
);
note = Hbrevebelow;
unicode = 1E2A;
},
{
glyphname = Hcircumflex;
lastChange = "2015-10-01 14:35:47 +0000";
layers = (
{
layerId = "047EFF1B-D2DC-4EF2-AB21-67EF4112B097";
name = Light;
paths = (
{
closed = 1;
nodes = (
"256 0 LINE",
"256 7 LINE",
"232 15 OFFCURVE",
"205 20 OFFCURVE",
"177 24 CURVE",
"177 675 LINE",
"216 679 OFFCURVE",
"233 683 OFFCURVE",
"256 692 CURVE",
"256 700 LINE",
"46 700 LINE",
"46 692 LINE",
"70 684 OFFCURVE",
"99 679 OFFCURVE",
"127 675 CURVE",
"127 24 LINE",
"88 20 OFFCURVE",
"65 14 OFFCURVE",
"46 8 CURVE",
"46 0 LINE"
);
},
{
closed = 1;
nodes = (
"615 342 LINE",
"615 369 LINE",
"153 369 LINE",
"153 342 LINE"
);
},
{
closed = 1;
nodes = (
"721 0 LINE",
"721 7 LINE",
"697 15 OFFCURVE",
"667 20 OFFCURVE",
"640 24 CURVE",
"640 675 LINE",
"679 679 OFFCURVE",
"702 685 OFFCURVE",
"721 691 CURVE",
"721 700 LINE",
"512 700 LINE",
"512 692 LINE",
"536 684 OFFCURVE",
"563 679 OFFCURVE",
"590 675 CURVE",
"590 24 LINE",
"552 20 OFFCURVE",
"535 16 OFFCURVE",
"512 7 CURVE",
"512 0 LINE"
);
},
{
closed = 1;
nodes = (
"313 803 OFFCURVE",
"353 838 OFFCURVE",
"381 873 CURVE",
"386 873 LINE",
"414 838 OFFCURVE",
"454 803 OFFCURVE",
"489 778 CURVE",
"510 800 LINE",
"473 827 OFFCURVE",
"428 866 OFFCURVE",
"395 910 CURVE",
"372 910 LINE",
"339 866 OFFCURVE",
"294 827 OFFCURVE",
"257 800 CURVE",
"278 778 LINE"
);
}
);
width = 767;
}
);
note = Hcircumflex;
unicode = 0124;
},
{
glyphname = Hdotbelow;
lastChange = "2015-10-01 14:35:46 +0000";
layers = (
{
layerId = "047EFF1B-D2DC-4EF2-AB21-67EF4112B097";
name = Light;
paths = (
{
closed = 1;
nodes = (
"256 0 LINE",
"256 7 LINE",
"232 15 OFFCURVE",
"205 20 OFFCURVE",
"177 24 CURVE",
"177 675 LINE",
"216 679 OFFCURVE",
"233 683 OFFCURVE",
"256 692 CURVE",
"256 700 LINE",
"46 700 LINE",
"46 692 LINE",
"70 684 OFFCURVE",
"99 679 OFFCURVE",
"127 675 CURVE",
"127 24 LINE",
"88 20 OFFCURVE",
"65 14 OFFCURVE",
"46 8 CURVE",
"46 0 LINE"
);
},
{
closed = 1;
nodes = (
"397 -133 OFFCURVE",
"411 -120 OFFCURVE",
"411 -98 CURVE SMOOTH",
"411 -76 OFFCURVE",
"397 -63 OFFCURVE",
"378 -63 CURVE SMOOTH",
"358 -63 OFFCURVE",
"344 -76 OFFCURVE",
"344 -98 CURVE SMOOTH",
"344 -120 OFFCURVE",
"358 -133 OFFCURVE",
"378 -133 CURVE SMOOTH"
);
},
{
closed = 1;
nodes = (
"615 342 LINE",
"615 369 LINE",
"153 369 LINE",
"153 342 LINE"
);
},
{
closed = 1;
nodes = (
"721 0 LINE",
"721 7 LINE",
"697 15 OFFCURVE",
"667 20 OFFCURVE",
"640 24 CURVE",
"640 675 LINE",
"679 679 OFFCURVE",
"702 685 OFFCURVE",
"721 691 CURVE",
"721 700 LINE",
"512 700 LINE",
"512 692 LINE",
"536 684 OFFCURVE",
"563 679 OFFCURVE",
"590 675 CURVE",
"590 24 LINE",
"552 20 OFFCURVE",
"535 16 OFFCURVE",
"512 7 CURVE",
"512 0 LINE"
);
}
);
width = 767;
}
);
note = Hdotbelow;
unicode = 1E24;
},
{
glyphname = I;
lastChange = "2015-10-01 14:35:45 +0000";
layers = (
{
layerId = "047EFF1B-D2DC-4EF2-AB21-67EF4112B097";
name = Light;
paths = (
{
closed = 1;
nodes = (
"264 0 LINE",
"264 7 LINE",
"239 15 OFFCURVE",
"210 20 OFFCURVE",
"182 24 CURVE",
"182 675 LINE",
"211 679 OFFCURVE",
"240 684 OFFCURVE",
"264 692 CURVE",
"264 700 LINE",
"51 700 LINE",
"51 692 LINE",
"75 684 OFFCURVE",
"104 679 OFFCURVE",
"132 675 CURVE",
"132 24 LINE",
"104 20 OFFCURVE",
"75 15 OFFCURVE",
"51 7 CURVE",
"51 0 LINE"
);
}
);
width = 315;
}
);
note = I;
unicode = 0049;
},
{
glyphname = IJ;
lastChange = "2015-10-01 14:35:47 +0000";
layers = (
{
layerId = "047EFF1B-D2DC-4EF2-AB21-67EF4112B097";
name = Light;
paths = (
{
closed = 1;
nodes = (
"571 -10 OFFCURVE",
"626 43 OFFCURVE",
"626 131 CURVE SMOOTH",
"626 675 LINE",
"665 679 OFFCURVE",
"688 685 OFFCURVE",
"707 691 CURVE",
"707 700 LINE",
"496 700 LINE",
"496 690 LINE",
"515 684 OFFCURVE",
"535 679 OFFCURVE",
"576 674 CURVE",
"576 135 LINE SMOOTH",
"576 51 OFFCURVE",
"527 21 OFFCURVE",
"457 21 CURVE SMOOTH",
"413 21 OFFCURVE",
"376 32 OFFCURVE",
"345 48 CURVE",
"336 33 LINE",
"370 6 OFFCURVE",
"412 -10 OFFCURVE",
"472 -10 CURVE SMOOTH"
);
},
{
closed = 1;
nodes = (
"264 0 LINE",
"264 7 LINE",
"239 15 OFFCURVE",
"210 20 OFFCURVE",
"182 24 CURVE",
"182 675 LINE",
"211 679 OFFCURVE",
"240 684 OFFCURVE",
"264 692 CURVE",
"264 700 LINE",
"51 700 LINE",
"51 692 LINE",
"75 684 OFFCURVE",
"104 679 OFFCURVE",
"132 675 CURVE",
"132 24 LINE",
"104 20 OFFCURVE",
"75 15 OFFCURVE",
"51 7 CURVE",
"51 0 LINE"
);
}
);
width = 754;
}
);
note = IJ;
rightKerningGroup = J;
unicode = 0132;
},
{
glyphname = Iacute;
lastChange = "2015-10-01 14:35:46 +0000";
layers = (
{
layerId = "047EFF1B-D2DC-4EF2-AB21-67EF4112B097";
name = Light;
paths = (
{
closed = 1;
nodes = (
"264 0 LINE",
"264 7 LINE",
"239 15 OFFCURVE",
"210 20 OFFCURVE",
"182 24 CURVE",
"182 675 LINE",
"211 679 OFFCURVE",
"240 684 OFFCURVE",
"264 692 CURVE",
"264 700 LINE",
"51 700 LINE",
"51 692 LINE",
"75 684 OFFCURVE",
"104 679 OFFCURVE",
"132 675 CURVE",
"132 24 LINE",
"104 20 OFFCURVE",
"75 15 OFFCURVE",
"51 7 CURVE",
"51 0 LINE"
);
},
{
closed = 1;
nodes = (
"215 862 LINE",
"230 870 OFFCURVE",
"237 881 OFFCURVE",
"237 891 CURVE SMOOTH",
"237 902 OFFCURVE",
"229 910 OFFCURVE",
"217 910 CURVE SMOOTH",
"203 910 OFFCURVE",
"192 901 OFFCURVE",
"185 894 CURVE",
"75 801 LINE",
"85 786 LINE"
);
}
);
width = 315;
}
);
note = Iacute;
unicode = 00CD;
},
{
glyphname = Ibreve;
lastChange = "2015-10-01 14:35:46 +0000";
layers = (
{
layerId = "047EFF1B-D2DC-4EF2-AB21-67EF4112B097";
name = Light;
paths = (
{
closed = 1;
nodes = (
"264 0 LINE",
"264 7 LINE",
"239 15 OFFCURVE",
"210 20 OFFCURVE",
"182 24 CURVE",
"182 675 LINE",
"211 679 OFFCURVE",
"240 684 OFFCURVE",
"264 692 CURVE",
"264 700 LINE",
"51 700 LINE",
"51 692 LINE",
"75 684 OFFCURVE",
"104 679 OFFCURVE",
"132 675 CURVE",
"132 24 LINE",
"104 20 OFFCURVE",
"75 15 OFFCURVE",
"51 7 CURVE",
"51 0 LINE"
);
},
{
closed = 1;
nodes = (
"232 774 OFFCURVE",
"288 810 OFFCURVE",
"295 891 CURVE",
"259 891 LINE",
"250 813 OFFCURVE",
"198 801 OFFCURVE",
"157 801 CURVE SMOOTH",
"116 801 OFFCURVE",
"63 813 OFFCURVE",
"54 891 CURVE",
"18 891 LINE",
"26 810 OFFCURVE",
"81 774 OFFCURVE",
"157 774 CURVE SMOOTH"
);
}
);
width = 315;
}
);
note = Ibreve;
unicode = 012C;
},
{
glyphname = Icaron;
lastChange = "2015-10-01 14:35:47 +0000";
layers = (
{
layerId = "047EFF1B-D2DC-4EF2-AB21-67EF4112B097";
name = Light;
paths = (
{
closed = 1;
nodes = (
"264 0 LINE",
"264 7 LINE",
"239 15 OFFCURVE",
"210 20 OFFCURVE",
"182 24 CURVE",
"182 675 LINE",
"211 679 OFFCURVE",
"240 684 OFFCURVE",
"264 692 CURVE",
"264 700 LINE",
"51 700 LINE",
"51 692 LINE",
"75 684 OFFCURVE",
"104 679 OFFCURVE",
"132 675 CURVE",
"132 24 LINE",
"104 20 OFFCURVE",
"75 15 OFFCURVE",
"51 7 CURVE",
"51 0 LINE"
);
},
{
closed = 1;
nodes = (
"168 786 LINE",
"201 831 OFFCURVE",
"246 870 OFFCURVE",
"283 896 CURVE",
"262 919 LINE",
"227 893 OFFCURVE",
"187 858 OFFCURVE",
"159 823 CURVE",
"154 823 LINE",
"126 858 OFFCURVE",
"86 893 OFFCURVE",
"51 919 CURVE",
"30 896 LINE",
"67 870 OFFCURVE",
"112 831 OFFCURVE",
"145 786 CURVE"
);
}
);
width = 315;
}
);
note = Icaron;
unicode = 01CF;
},
{
glyphname = Icircumflex;
lastChange = "2015-10-01 14:35:47 +0000";
layers = (
{
layerId = "047EFF1B-D2DC-4EF2-AB21-67EF4112B097";
name = Light;
paths = (
{
closed = 1;
nodes = (
"264 0 LINE",
"264 7 LINE",
"239 15 OFFCURVE",
"210 20 OFFCURVE",
"182 24 CURVE",
"182 675 LINE",
"211 679 OFFCURVE",
"240 684 OFFCURVE",
"264 692 CURVE",
"264 700 LINE",
"51 700 LINE",
"51 692 LINE",
"75 684 OFFCURVE",
"104 679 OFFCURVE",
"132 675 CURVE",
"132 24 LINE",
"104 20 OFFCURVE",
"75 15 OFFCURVE",
"51 7 CURVE",
"51 0 LINE"
);
},
{
closed = 1;
nodes = (
"86 803 OFFCURVE",
"126 838 OFFCURVE",
"154 873 CURVE",
"159 873 LINE",
"187 838 OFFCURVE",
"227 803 OFFCURVE",
"262 778 CURVE",
"283 800 LINE",
"246 827 OFFCURVE",
"201 866 OFFCURVE",
"168 910 CURVE",
"145 910 LINE",
"112 866 OFFCURVE",
"67 827 OFFCURVE",
"30 800 CURVE",
"51 778 LINE"
);
}
);
width = 315;
}
);
note = Icircumflex;
unicode = 00CE;
},
{
glyphname = Idieresis;
lastChange = "2015-10-01 14:35:46 +0000";
layers = (
{
layerId = "047EFF1B-D2DC-4EF2-AB21-67EF4112B097";
name = Light;
paths = (
{
closed = 1;
nodes = (
"264 0 LINE",
"264 7 LINE",
"239 15 OFFCURVE",
"210 20 OFFCURVE",
"182 24 CURVE",
"182 675 LINE",
"211 679 OFFCURVE",
"240 684 OFFCURVE",
"264 692 CURVE",
"264 700 LINE",
"51 700 LINE",
"51 692 LINE",
"75 684 OFFCURVE",
"104 679 OFFCURVE",
"132 675 CURVE",
"132 24 LINE",
"104 20 OFFCURVE",
"75 15 OFFCURVE",
"51 7 CURVE",
"51 0 LINE"
);
},
{
closed = 1;
nodes = (
"73 785 OFFCURVE",
"87 798 OFFCURVE",
"87 820 CURVE SMOOTH",
"87 842 OFFCURVE",
"73 855 OFFCURVE",
"53 855 CURVE SMOOTH",
"34 855 OFFCURVE",
"20 842 OFFCURVE",
"20 820 CURVE SMOOTH",
"20 798 OFFCURVE",
"34 785 OFFCURVE",
"53 785 CURVE SMOOTH"
);
},
{
closed = 1;
nodes = (
"279 785 OFFCURVE",
"293 798 OFFCURVE",
"293 820 CURVE SMOOTH",
"293 842 OFFCURVE",
"279 855 OFFCURVE",
"260 855 CURVE SMOOTH",
"240 855 OFFCURVE",
"226 842 OFFCURVE",
"226 820 CURVE SMOOTH",
"226 798 OFFCURVE",
"240 785 OFFCURVE",
"260 785 CURVE SMOOTH"
);
}
);
width = 315;
}
);
note = Idieresis;
unicode = 00CF;
},
{
glyphname = Idotaccent;
lastChange = "2015-10-01 14:35:46 +0000";
layers = (
{
layerId = "047EFF1B-D2DC-4EF2-AB21-67EF4112B097";
name = Light;
paths = (
{
closed = 1;
nodes = (
"264 0 LINE",
"264 7 LINE",
"239 15 OFFCURVE",
"210 20 OFFCURVE",
"182 24 CURVE",
"182 675 LINE",
"211 679 OFFCURVE",
"240 684 OFFCURVE",
"264 692 CURVE",
"264 700 LINE",
"51 700 LINE",
"51 692 LINE",
"75 684 OFFCURVE",
"104 679 OFFCURVE",
"132 675 CURVE",
"132 24 LINE",
"104 20 OFFCURVE",
"75 15 OFFCURVE",
"51 7 CURVE",
"51 0 LINE"
);
},
{
closed = 1;
nodes = (
"176 785 OFFCURVE",
"190 798 OFFCURVE",
"190 820 CURVE SMOOTH",
"190 842 OFFCURVE",
"176 855 OFFCURVE",
"157 855 CURVE SMOOTH",
"137 855 OFFCURVE",
"123 842 OFFCURVE",
"123 820 CURVE SMOOTH",
"123 798 OFFCURVE",
"137 785 OFFCURVE",
"157 785 CURVE SMOOTH"
);
}
);
width = 315;
}
);
note = Idotaccent;
unicode = 0130;
},
{
glyphname = Idotbelow;
lastChange = "2015-10-01 14:35:46 +0000";
layers = (
{
layerId = "047EFF1B-D2DC-4EF2-AB21-67EF4112B097";
name = Light;
paths = (
{
closed = 1;
nodes = (
"264 0 LINE",
"264 7 LINE",
"239 15 OFFCURVE",
"210 20 OFFCURVE",
"182 24 CURVE",
"182 675 LINE",
"211 679 OFFCURVE",
"240 684 OFFCURVE",
"264 692 CURVE",
"264 700 LINE",
"51 700 LINE",
"51 692 LINE",
"75 684 OFFCURVE",
"104 679 OFFCURVE",
"132 675 CURVE",
"132 24 LINE",
"104 20 OFFCURVE",
"75 15 OFFCURVE",
"51 7 CURVE",
"51 0 LINE"
);
},
{
closed = 1;
nodes = (
"176 -133 OFFCURVE",
"190 -120 OFFCURVE",
"190 -98 CURVE SMOOTH",
"190 -76 OFFCURVE",
"176 -63 OFFCURVE",
"157 -63 CURVE SMOOTH",
"137 -63 OFFCURVE",
"123 -76 OFFCURVE",
"123 -98 CURVE SMOOTH",
"123 -120 OFFCURVE",
"137 -133 OFFCURVE",
"157 -133 CURVE SMOOTH"
);
}
);
width = 315;
}
);
note = Idotbelow;
unicode = 1ECA;
},
{
glyphname = Igrave;
lastChange = "2015-10-01 14:35:46 +0000";
layers = (
{
layerId = "047EFF1B-D2DC-4EF2-AB21-67EF4112B097";
name = Light;
paths = (
{
closed = 1;
nodes = (
"264 0 LINE",
"264 7 LINE",
"239 15 OFFCURVE",
"210 20 OFFCURVE",
"182 24 CURVE",
"182 675 LINE",
"211 679 OFFCURVE",
"240 684 OFFCURVE",
"264 692 CURVE",
"264 700 LINE",
"51 700 LINE",
"51 692 LINE",
"75 684 OFFCURVE",
"104 679 OFFCURVE",
"132 675 CURVE",
"132 24 LINE",
"104 20 OFFCURVE",
"75 15 OFFCURVE",
"51 7 CURVE",
"51 0 LINE"
);
},
{
closed = 1;
nodes = (
"237 801 LINE",
"127 894 LINE",
"118 903 OFFCURVE",
"108 910 OFFCURVE",
"95 910 CURVE SMOOTH",
"83 910 OFFCURVE",
"75 902 OFFCURVE",
"75 891 CURVE SMOOTH",
"75 881 OFFCURVE",
"82 870 OFFCURVE",
"97 862 CURVE",
"227 786 LINE"
);
}
);
width = 315;
}
);
note = Igrave;
unicode = 00CC;
},
{
glyphname = Ihookabove;
lastChange = "2015-10-01 14:35:47 +0000";
layers = (
{
layerId = "047EFF1B-D2DC-4EF2-AB21-67EF4112B097";
name = Light;
paths = (
{
closed = 1;
nodes = (
"264 0 LINE",
"264 7 LINE",
"239 15 OFFCURVE",
"210 20 OFFCURVE",
"182 24 CURVE",
"182 675 LINE",
"211 679 OFFCURVE",
"240 684 OFFCURVE",
"264 692 CURVE",
"264 700 LINE",
"51 700 LINE",
"51 692 LINE",
"75 684 OFFCURVE",
"104 679 OFFCURVE",
"132 675 CURVE",
"132 24 LINE",
"104 20 OFFCURVE",
"75 15 OFFCURVE",
"51 7 CURVE",
"51 0 LINE"
);
},
{
closed = 1;
nodes = (
"171 777 LINE",
"182 838 LINE",
"233 843 OFFCURVE",
"258 869 OFFCURVE",
"258 908 CURVE SMOOTH",
"258 956 OFFCURVE",
"219 978 OFFCURVE",
"175 978 CURVE SMOOTH",
"147 978 OFFCURVE",
"121 970 OFFCURVE",
"104 962 CURVE",
"111 938 LINE",
"131 949 OFFCURVE",
"151 954 OFFCURVE",
"167 954 CURVE SMOOTH",
"205 954 OFFCURVE",
"224 935 OFFCURVE",
"224 910 CURVE SMOOTH",
"224 883 OFFCURVE",
"206 858 OFFCURVE",
"158 858 CURVE SMOOTH",
"143 858 LINE",
"148 777 LINE"
);
}
);
width = 315;
}
);
note = Ihookabove;
unicode = 1EC8;
},
{
glyphname = Imacron;
lastChange = "2015-10-01 14:35:47 +0000";
layers = (
{
layerId = "047EFF1B-D2DC-4EF2-AB21-67EF4112B097";
name = Light;
paths = (
{
closed = 1;
nodes = (
"264 0 LINE",
"264 7 LINE",
"239 15 OFFCURVE",
"210 20 OFFCURVE",
"182 24 CURVE",
"182 675 LINE",
"211 679 OFFCURVE",
"240 684 OFFCURVE",
"264 692 CURVE",
"264 700 LINE",
"51 700 LINE",
"51 692 LINE",
"75 684 OFFCURVE",
"104 679 OFFCURVE",
"132 675 CURVE",
"132 24 LINE",
"104 20 OFFCURVE",
"75 15 OFFCURVE",
"51 7 CURVE",
"51 0 LINE"
);
},
{
closed = 1;
nodes = (
"309 785 LINE",
"309 811 LINE",
"8 811 LINE",
"8 785 LINE"
);
}
);
width = 315;
}
);
note = Imacron;
unicode = 012A;
},
{
glyphname = Iogonek;
lastChange = "2015-10-01 14:35:46 +0000";
layers = (
{
layerId = "047EFF1B-D2DC-4EF2-AB21-67EF4112B097";
name = Light;
paths = (
{
closed = 1;
nodes = (
"264 0 LINE",
"264 7 LINE",
"239 15 OFFCURVE",
"210 20 OFFCURVE",
"182 24 CURVE",
"182 675 LINE",
"211 679 OFFCURVE",
"240 684 OFFCURVE",
"264 692 CURVE",
"264 700 LINE",
"51 700 LINE",
"51 692 LINE",
"75 684 OFFCURVE",
"104 679 OFFCURVE",
"132 675 CURVE",
"132 24 LINE",
"104 20 OFFCURVE",
"75 15 OFFCURVE",
"51 7 CURVE",
"51 0 LINE"
);
},
{
closed = 1;
nodes = (
"232 -175 OFFCURVE",
"251 -171 OFFCURVE",
"273 -163 CURVE",
"273 -137 LINE",
"258 -143 OFFCURVE",
"242 -146 OFFCURVE",
"227 -146 CURVE SMOOTH",
"194 -146 OFFCURVE",
"166 -132 OFFCURVE",
"166 -96 CURVE SMOOTH",
"166 -57 OFFCURVE",
"196 -20 OFFCURVE",
"236 0 CURVE",
"202 0 LINE",
"155 -20 OFFCURVE",
"126 -57 OFFCURVE",
"126 -101 CURVE SMOOTH",
"126 -135 OFFCURVE",
"152 -175 OFFCURVE",
"209 -175 CURVE SMOOTH"
);
}
);
width = 315;
}
);
note = Iogonek;
unicode = 012E;
},
{
glyphname = Itilde;
lastChange = "2015-10-01 14:35:46 +0000";
layers = (
{
layerId = "047EFF1B-D2DC-4EF2-AB21-67EF4112B097";
name = Light;
paths = (
{
closed = 1;
nodes = (
"264 0 LINE",
"264 7 LINE",
"239 15 OFFCURVE",
"210 20 OFFCURVE",
"182 24 CURVE",
"182 675 LINE",
"211 679 OFFCURVE",
"240 684 OFFCURVE",
"264 692 CURVE",
"264 700 LINE",
"51 700 LINE",
"51 692 LINE",
"75 684 OFFCURVE",
"104 679 OFFCURVE",
"132 675 CURVE",
"132 24 LINE",
"104 20 OFFCURVE",
"75 15 OFFCURVE",
"51 7 CURVE",
"51 0 LINE"
);
},
{
closed = 1;
nodes = (
"25 786 LINE",
"34 823 OFFCURVE",
"56 846 OFFCURVE",
"87 846 CURVE SMOOTH",
"129 846 OFFCURVE",
"178 787 OFFCURVE",
"223 787 CURVE SMOOTH",
"269 787 OFFCURVE",
"297 824 OFFCURVE",
"306 882 CURVE",
"288 882 LINE",
"278 841 OFFCURVE",
"258 818 OFFCURVE",
"225 818 CURVE SMOOTH",
"184 818 OFFCURVE",
"137 876 OFFCURVE",
"89 876 CURVE SMOOTH",
"47 876 OFFCURVE",
"15 849 OFFCURVE",
"7 786 CURVE"
);
}
);
width = 315;
}
);
note = Itilde;
unicode = 0128;
},
{
glyphname = J;
lastChange = "2015-10-01 14:35:45 +0000";
layers = (
{
layerId = "047EFF1B-D2DC-4EF2-AB21-67EF4112B097";
name = Light;
paths = (
{
closed = 1;
nodes = (
"258 -10 OFFCURVE",
"313 43 OFFCURVE",
"313 131 CURVE SMOOTH",
"313 675 LINE",
"352 679 OFFCURVE",
"375 685 OFFCURVE",
"394 691 CURVE",
"394 700 LINE",
"183 700 LINE",
"183 690 LINE",
"202 684 OFFCURVE",
"222 679 OFFCURVE",
"263 674 CURVE",
"263 135 LINE SMOOTH",
"263 51 OFFCURVE",
"214 21 OFFCURVE",
"144 21 CURVE SMOOTH",
"100 21 OFFCURVE",
"63 32 OFFCURVE",
"32 48 CURVE",
"23 33 LINE",
"57 6 OFFCURVE",
"99 -10 OFFCURVE",
"159 -10 CURVE SMOOTH"
);
}
);
width = 441;
}
);
leftKerningGroup = J;
note = J;
rightKerningGroup = J;
unicode = 004A;
},
{
glyphname = Jcircumflex;
lastChange = "2015-10-01 14:35:47 +0000";
layers = (
{
layerId = "047EFF1B-D2DC-4EF2-AB21-67EF4112B097";
name = Light;
paths = (
{
closed = 1;
nodes = (
"258 -10 OFFCURVE",
"313 43 OFFCURVE",
"313 131 CURVE SMOOTH",
"313 675 LINE",
"352 679 OFFCURVE",
"375 685 OFFCURVE",
"394 691 CURVE",
"394 700 LINE",
"183 700 LINE",
"183 690 LINE",
"202 684 OFFCURVE",
"222 679 OFFCURVE",
"263 674 CURVE",
"263 135 LINE SMOOTH",
"263 51 OFFCURVE",
"214 21 OFFCURVE",
"144 21 CURVE SMOOTH",
"100 21 OFFCURVE",
"63 32 OFFCURVE",
"32 48 CURVE",
"23 33 LINE",
"57 6 OFFCURVE",
"99 -10 OFFCURVE",
"159 -10 CURVE SMOOTH"
);
},
{
closed = 1;
nodes = (
"218 803 OFFCURVE",
"258 838 OFFCURVE",
"286 873 CURVE",
"291 873 LINE",
"319 838 OFFCURVE",
"359 803 OFFCURVE",
"394 778 CURVE",
"415 800 LINE",
"378 827 OFFCURVE",
"333 866 OFFCURVE",
"300 910 CURVE",
"277 910 LINE",
"244 866 OFFCURVE",
"199 827 OFFCURVE",
"162 800 CURVE",
"183 778 LINE"
);
}
);
width = 441;
}
);
leftKerningGroup = J;
note = Jcircumflex;
rightKerningGroup = J;
unicode = 0134;
},
{
glyphname = K;
lastChange = "2015-10-01 14:35:45 +0000";
layers = (
{
layerId = "047EFF1B-D2DC-4EF2-AB21-67EF4112B097";
name = Light;
paths = (
{
closed = 1;
nodes = (
"260 0 LINE",
"260 7 LINE",
"236 15 OFFCURVE",
"207 20 OFFCURVE",
"178 24 CURVE",
"178 275 LINE",
"262 369 LINE",
"559 0 LINE",
"678 0 LINE",
"678 7 LINE",
"650 15 OFFCURVE",
"619 20 OFFCURVE",
"597 24 CURVE",
"292 401 LINE",
"531 666 LINE",
"552 686 OFFCURVE",
"579 685 OFFCURVE",
"599 690 CURVE",
"599 700 LINE",
"418 700 LINE",
"418 690 LINE",
"438 684 OFFCURVE",
"487 685 OFFCURVE",
"491 667 CURVE",
"178 318 LINE",
"178 675 LINE",
"207 679 OFFCURVE",
"236 684 OFFCURVE",
"260 692 CURVE",
"260 700 LINE",
"46 700 LINE",
"46 692 LINE",
"71 684 OFFCURVE",
"100 679 OFFCURVE",
"128 675 CURVE",
"128 24 LINE",
"103 21 OFFCURVE",
"71 15 OFFCURVE",
"46 7 CURVE",
"46 0 LINE"
);
}
);
width = 690;
}
);
note = K;
rightKerningGroup = K;
unicode = 004B;
},
{
glyphname = Kcommaaccent;
lastChange = "2015-10-01 14:35:47 +0000";
layers = (
{
layerId = "047EFF1B-D2DC-4EF2-AB21-67EF4112B097";
name = Light;
paths = (
{
closed = 1;
nodes = (
"260 0 LINE",
"260 7 LINE",
"236 15 OFFCURVE",
"207 20 OFFCURVE",
"178 24 CURVE",
"178 275 LINE",
"262 369 LINE",
"559 0 LINE",
"678 0 LINE",
"678 7 LINE",
"650 15 OFFCURVE",
"619 20 OFFCURVE",
"597 24 CURVE",
"292 401 LINE",
"531 666 LINE",
"552 686 OFFCURVE",
"579 685 OFFCURVE",
"599 690 CURVE",
"599 700 LINE",
"418 700 LINE",
"418 690 LINE",
"438 684 OFFCURVE",
"487 685 OFFCURVE",
"491 667 CURVE",
"178 318 LINE",
"178 675 LINE",
"207 679 OFFCURVE",
"236 684 OFFCURVE",
"260 692 CURVE",
"260 700 LINE",
"46 700 LINE",
"46 692 LINE",
"71 684 OFFCURVE",
"100 679 OFFCURVE",
"128 675 CURVE",
"128 24 LINE",
"103 21 OFFCURVE",
"71 15 OFFCURVE",
"46 7 CURVE",
"46 0 LINE"
);
},
{
closed = 1;
nodes = (
"397 -225 OFFCURVE",
"418 -160 OFFCURVE",
"418 -119 CURVE SMOOTH",
"418 -85 OFFCURVE",
"404 -61 OFFCURVE",
"369 -61 CURVE SMOOTH",
"349 -61 OFFCURVE",
"330 -72 OFFCURVE",
"330 -98 CURVE SMOOTH",
"330 -119 OFFCURVE",
"345 -135 OFFCURVE",
"364 -135 CURVE SMOOTH",
"369 -135 OFFCURVE",
"376 -134 OFFCURVE",
"381 -132 CURVE",
"379 -147 LINE",
"376 -180 OFFCURVE",
"363 -216 OFFCURVE",
"343 -241 CURVE",
"364 -258 LINE"
);
}
);
width = 690;
}
);
note = Kcommaaccent;
rightKerningGroup = K;
unicode = 0136;
},
{
glyphname = L;
lastChange = "2015-10-01 14:35:45 +0000";
layers = (
{
layerId = "047EFF1B-D2DC-4EF2-AB21-67EF4112B097";
name = Light;
paths = (
{
closed = 1;
nodes = (
"505 0 LINE",
"517 124 LINE",
"504 124 LINE",
"494 105 OFFCURVE",
"476 51 OFFCURVE",
"474 26 CURVE",
"179 26 LINE",
"179 675 LINE",
"207 679 OFFCURVE",
"236 684 OFFCURVE",
"260 692 CURVE",
"260 700 LINE",
"47 700 LINE",
"47 692 LINE",
"72 684 OFFCURVE",
"101 679 OFFCURVE",
"129 675 CURVE",
"129 24 LINE",
"89 20 OFFCURVE",
"66 14 OFFCURVE",
"47 8 CURVE",
"47 0 LINE"
);
}
);
width = 562;
}
);
note = L;
rightKerningGroup = L;
unicode = 004C;
},
{
glyphname = Lacute;
lastChange = "2015-10-01 14:35:46 +0000";
layers = (
{
layerId = "047EFF1B-D2DC-4EF2-AB21-67EF4112B097";
name = Light;
paths = (
{
closed = 1;
nodes = (
"505 0 LINE",
"517 124 LINE",
"504 124 LINE",
"494 105 OFFCURVE",
"476 51 OFFCURVE",
"474 26 CURVE",
"179 26 LINE",
"179 675 LINE",
"207 679 OFFCURVE",
"236 684 OFFCURVE",
"260 692 CURVE",
"260 700 LINE",
"47 700 LINE",
"47 692 LINE",
"72 684 OFFCURVE",
"101 679 OFFCURVE",
"129 675 CURVE",
"129 24 LINE",
"89 20 OFFCURVE",
"66 14 OFFCURVE",
"47 8 CURVE",
"47 0 LINE"
);
},
{
closed = 1;
nodes = (
"272 862 LINE",
"287 870 OFFCURVE",
"294 881 OFFCURVE",
"294 891 CURVE SMOOTH",
"294 902 OFFCURVE",
"286 910 OFFCURVE",
"274 910 CURVE SMOOTH",
"260 910 OFFCURVE",
"249 901 OFFCURVE",
"242 894 CURVE",
"132 801 LINE",
"142 786 LINE"
);
}
);
width = 562;
}
);
note = Lacute;
rightKerningGroup = L;
unicode = 0139;
},
{
glyphname = Lcaron;
lastChange = "2015-10-01 14:35:46 +0000";
layers = (
{
layerId = "047EFF1B-D2DC-4EF2-AB21-67EF4112B097";
name = Light;
paths = (
{
closed = 1;
nodes = (
"505 0 LINE",
"517 124 LINE",
"504 124 LINE",
"494 105 OFFCURVE",
"476 51 OFFCURVE",
"474 26 CURVE",
"179 26 LINE",
"179 675 LINE",
"207 679 OFFCURVE",
"236 684 OFFCURVE",
"260 692 CURVE",
"260 700 LINE",
"47 700 LINE",
"47 692 LINE",
"72 684 OFFCURVE",
"101 679 OFFCURVE",
"129 675 CURVE",
"129 24 LINE",
"89 20 OFFCURVE",
"66 14 OFFCURVE",
"47 8 CURVE",
"47 0 LINE"
);
},
{
closed = 1;
nodes = (
"438 543 OFFCURVE",
"459 608 OFFCURVE",
"459 649 CURVE SMOOTH",
"459 684 OFFCURVE",
"447 710 OFFCURVE",
"410 710 CURVE SMOOTH",
"387 710 OFFCURVE",
"370 696 OFFCURVE",
"370 670 CURVE SMOOTH",
"370 648 OFFCURVE",
"386 634 OFFCURVE",
"405 634 CURVE SMOOTH",
"410 634 OFFCURVE",
"417 634 OFFCURVE",
"422 637 CURVE",
"420 622 LINE",
"417 588 OFFCURVE",
"404 553 OFFCURVE",
"384 528 CURVE",
"404 511 LINE"
);
}
);
width = 562;
}
);
note = Lcaron;
rightKerningGroup = L;
unicode = 013D;
},
{
glyphname = Lcommaaccent;
lastChange = "2015-10-01 14:35:46 +0000";
layers = (
{
layerId = "047EFF1B-D2DC-4EF2-AB21-67EF4112B097";
name = Light;
paths = (
{
closed = 1;
nodes = (
"505 0 LINE",
"517 124 LINE",
"504 124 LINE",
"494 105 OFFCURVE",
"476 51 OFFCURVE",
"474 26 CURVE",
"179 26 LINE",
"179 675 LINE",
"207 679 OFFCURVE",
"236 684 OFFCURVE",
"260 692 CURVE",
"260 700 LINE",
"47 700 LINE",
"47 692 LINE",
"72 684 OFFCURVE",
"101 679 OFFCURVE",
"129 675 CURVE",
"129 24 LINE",
"89 20 OFFCURVE",
"66 14 OFFCURVE",
"47 8 CURVE",
"47 0 LINE"
);
},
{
closed = 1;
nodes = (
"328 -225 OFFCURVE",
"349 -160 OFFCURVE",
"349 -119 CURVE SMOOTH",
"349 -85 OFFCURVE",
"335 -61 OFFCURVE",
"300 -61 CURVE SMOOTH",
"280 -61 OFFCURVE",
"261 -72 OFFCURVE",
"261 -98 CURVE SMOOTH",
"261 -119 OFFCURVE",
"276 -135 OFFCURVE",
"295 -135 CURVE SMOOTH",
"300 -135 OFFCURVE",
"307 -134 OFFCURVE",
"312 -132 CURVE",
"310 -147 LINE",
"307 -180 OFFCURVE",
"294 -216 OFFCURVE",
"274 -241 CURVE",
"295 -258 LINE"
);
}
);
width = 562;
}
);
note = Lcommaaccent;
rightKerningGroup = L;
unicode = 013B;
},
{
glyphname = Ldot;
lastChange = "2015-10-01 14:35:46 +0000";
layers = (
{
layerId = "047EFF1B-D2DC-4EF2-AB21-67EF4112B097";
name = Light;
paths = (
{
closed = 1;
nodes = (
"505 0 LINE",
"517 124 LINE",
"504 124 LINE",
"494 105 OFFCURVE",
"476 51 OFFCURVE",
"474 26 CURVE",
"179 26 LINE",
"179 675 LINE",
"207 679 OFFCURVE",
"236 684 OFFCURVE",
"260 692 CURVE",
"260 700 LINE",
"47 700 LINE",
"47 692 LINE",
"72 684 OFFCURVE",
"101 679 OFFCURVE",
"129 675 CURVE",
"129 24 LINE",
"89 20 OFFCURVE",
"66 14 OFFCURVE",
"47 8 CURVE",
"47 0 LINE"
);
},
{
closed = 1;
nodes = (
"373 333 OFFCURVE",
"387 347 OFFCURVE",
"387 369 CURVE SMOOTH",
"387 390 OFFCURVE",
"373 404 OFFCURVE",
"353 404 CURVE SMOOTH",
"334 404 OFFCURVE",
"320 390 OFFCURVE",
"320 369 CURVE SMOOTH",
"320 347 OFFCURVE",
"334 333 OFFCURVE",
"353 333 CURVE SMOOTH"
);
}
);
width = 562;
}
);
note = Ldot;
rightKerningGroup = L;
unicode = 013F;
},
{
glyphname = Ldotbelow;
lastChange = "2015-10-01 14:35:46 +0000";
layers = (
{
layerId = "047EFF1B-D2DC-4EF2-AB21-67EF4112B097";
name = Light;
paths = (
{
closed = 1;
nodes = (
"505 0 LINE",
"517 124 LINE",
"504 124 LINE",
"494 105 OFFCURVE",
"476 51 OFFCURVE",
"474 26 CURVE",
"179 26 LINE",
"179 675 LINE",
"207 679 OFFCURVE",
"236 684 OFFCURVE",
"260 692 CURVE",
"260 700 LINE",
"47 700 LINE",
"47 692 LINE",
"72 684 OFFCURVE",
"101 679 OFFCURVE",
"129 675 CURVE",
"129 24 LINE",
"89 20 OFFCURVE",
"66 14 OFFCURVE",
"47 8 CURVE",
"47 0 LINE"
);
},
{
closed = 1;
nodes = (
"336 -124 OFFCURVE",
"350 -110 OFFCURVE",
"350 -88 CURVE SMOOTH",
"350 -67 OFFCURVE",
"336 -53 OFFCURVE",
"317 -53 CURVE SMOOTH",
"297 -53 OFFCURVE",
"283 -67 OFFCURVE",
"283 -88 CURVE SMOOTH",
"283 -110 OFFCURVE",
"297 -124 OFFCURVE",
"317 -124 CURVE SMOOTH"
);
}
);
width = 562;
}
);
note = Ldotbelow;
rightKerningGroup = L;
unicode = 1E36;
},
{
glyphname = Ldotbelowmacron;
lastChange = "2015-10-01 14:35:46 +0000";
layers = (
{
layerId = "047EFF1B-D2DC-4EF2-AB21-67EF4112B097";
name = Light;
paths = (
{
closed = 1;
nodes = (
"505 0 LINE",
"517 124 LINE",
"504 124 LINE",
"494 105 OFFCURVE",
"476 51 OFFCURVE",
"474 26 CURVE",
"179 26 LINE",
"179 675 LINE",
"207 679 OFFCURVE",
"236 684 OFFCURVE",
"260 692 CURVE",
"260 700 LINE",
"47 700 LINE",
"47 692 LINE",
"72 684 OFFCURVE",
"101 679 OFFCURVE",
"129 675 CURVE",
"129 24 LINE",
"89 20 OFFCURVE",
"66 14 OFFCURVE",
"47 8 CURVE",
"47 0 LINE"
);
},
{
closed = 1;
nodes = (
"336 -124 OFFCURVE",
"350 -110 OFFCURVE",
"350 -88 CURVE SMOOTH",
"350 -67 OFFCURVE",
"336 -53 OFFCURVE",
"316 -53 CURVE SMOOTH",
"297 -53 OFFCURVE",
"283 -67 OFFCURVE",
"283 -88 CURVE SMOOTH",
"283 -110 OFFCURVE",
"297 -124 OFFCURVE",
"316 -124 CURVE SMOOTH"
);
},
{
closed = 1;
nodes = (
"302 785 LINE",
"302 811 LINE",
"7 811 LINE",
"7 785 LINE"
);
}
);
width = 562;
}
);
note = Ldotbelowmacron;
rightKerningGroup = L;
unicode = 1E38;
},
{
glyphname = Llinebelow;
lastChange = "2015-10-01 14:35:47 +0000";
layers = (
{
layerId = "047EFF1B-D2DC-4EF2-AB21-67EF4112B097";
name = Light;
paths = (
{
closed = 1;
nodes = (
"505 0 LINE",
"517 124 LINE",
"504 124 LINE",
"494 105 OFFCURVE",
"476 51 OFFCURVE",
"474 26 CURVE",
"179 26 LINE",
"179 675 LINE",
"207 679 OFFCURVE",
"236 684 OFFCURVE",
"260 692 CURVE",
"260 700 LINE",
"47 700 LINE",
"47 692 LINE",
"72 684 OFFCURVE",
"101 679 OFFCURVE",
"129 675 CURVE",
"129 24 LINE",
"89 20 OFFCURVE",
"66 14 OFFCURVE",
"47 8 CURVE",
"47 0 LINE"
);
},
{
closed = 1;
nodes = (
"443 -100 LINE",
"443 -74 LINE",
"148 -74 LINE",
"148 -100 LINE"
);
}
);
width = 562;
}
);
note = Llinebelow;
rightKerningGroup = L;
unicode = 1E3A;
},
{
glyphname = Lslash;
lastChange = "2015-10-01 14:35:46 +0000";
layers = (
{
layerId = "047EFF1B-D2DC-4EF2-AB21-67EF4112B097";
name = Light;
paths = (
{
closed = 1;
nodes = (
"505 0 LINE",
"517 124 LINE",
"504 124 LINE",
"494 105 OFFCURVE",
"476 51 OFFCURVE",
"474 26 CURVE",
"179 26 LINE",
"179 675 LINE",
"207 679 OFFCURVE",
"236 684 OFFCURVE",
"260 692 CURVE",
"260 700 LINE",
"47 700 LINE",
"47 692 LINE",
"72 684 OFFCURVE",
"101 679 OFFCURVE",
"129 675 CURVE",
"129 24 LINE",
"89 20 OFFCURVE",
"66 14 OFFCURVE",
"47 8 CURVE",
"47 0 LINE"
);
},
{
closed = 1;
nodes = (
"396 386 LINE",
"396 420 LINE",
"36 290 LINE",
"36 256 LINE"
);
}
);
width = 562;
}
);
note = Lslash;
rightKerningGroup = L;
unicode = 0141;
},
{
glyphname = M;
lastChange = "2015-10-01 14:35:45 +0000";
layers = (
{
layerId = "047EFF1B-D2DC-4EF2-AB21-67EF4112B097";
name = Light;
paths = (
{
closed = 1;
nodes = (
"243 0 LINE",
"243 7 LINE",
"218 15 OFFCURVE",
"190 20 OFFCURVE",
"162 24 CURVE",
"162 664 LINE",
"415 78 LINE",
"444 78 LINE",
"701 662 LINE",
"701 24 LINE",
"673 20 OFFCURVE",
"644 15 OFFCURVE",
"620 7 CURVE",
"620 0 LINE",
"832 0 LINE",
"832 7 LINE",
"807 15 OFFCURVE",
"779 20 OFFCURVE",
"751 23 CURVE",
"751 674 LINE",
"779 678 OFFCURVE",
"808 683 OFFCURVE",
"832 692 CURVE",
"832 700 LINE",
"686 700 LINE",
"437 131 LINE",
"196 700 LINE",
"46 700 LINE",
"46 692 LINE",
"71 684 OFFCURVE",
"100 679 OFFCURVE",
"128 675 CURVE",
"128 23 LINE",
"100 20 OFFCURVE",
"71 15 OFFCURVE",
"46 7 CURVE",
"46 0 LINE"
);
}
);
width = 879;
}
);
note = M;
unicode = 004D;
},
{
glyphname = Mdotbelow;
lastChange = "2015-10-01 14:35:47 +0000";
layers = (
{
layerId = "047EFF1B-D2DC-4EF2-AB21-67EF4112B097";
name = Light;
paths = (
{
closed = 1;
nodes = (
"243 0 LINE",
"243 7 LINE",
"218 15 OFFCURVE",
"190 20 OFFCURVE",
"162 24 CURVE",
"162 664 LINE",
"415 78 LINE",
"444 78 LINE",
"701 662 LINE",
"701 24 LINE",
"673 20 OFFCURVE",
"644 15 OFFCURVE",
"620 7 CURVE",
"620 0 LINE",
"832 0 LINE",
"832 7 LINE",
"807 15 OFFCURVE",
"779 20 OFFCURVE",
"751 23 CURVE",
"751 674 LINE",
"779 678 OFFCURVE",
"808 683 OFFCURVE",
"832 692 CURVE",
"832 700 LINE",
"686 700 LINE",
"437 131 LINE",
"196 700 LINE",
"46 700 LINE",
"46 692 LINE",
"71 684 OFFCURVE",
"100 679 OFFCURVE",
"128 675 CURVE",
"128 23 LINE",
"100 20 OFFCURVE",
"71 15 OFFCURVE",
"46 7 CURVE",
"46 0 LINE"
);
},
{
closed = 1;
nodes = (
"457 -133 OFFCURVE",
"471 -120 OFFCURVE",
"471 -98 CURVE SMOOTH",
"471 -76 OFFCURVE",
"457 -63 OFFCURVE",
"438 -63 CURVE SMOOTH",
"418 -63 OFFCURVE",
"404 -76 OFFCURVE",
"404 -98 CURVE SMOOTH",
"404 -120 OFFCURVE",
"418 -133 OFFCURVE",
"438 -133 CURVE SMOOTH"
);
}
);
width = 879;
}
);
note = Mdotbelow;
unicode = 1E42;
},
{
glyphname = N;
lastChange = "2015-10-01 14:35:45 +0000";
layers = (
{
layerId = "047EFF1B-D2DC-4EF2-AB21-67EF4112B097";
name = Light;
paths = (
{
closed = 1;
nodes = (
"243 0 LINE",
"243 7 LINE",
"218 15 OFFCURVE",
"190 20 OFFCURVE",
"162 24 CURVE",
"162 669 LINE",
"609 0 LINE",
"645 0 LINE",
"645 675 LINE",
"673 679 OFFCURVE",
"702 684 OFFCURVE",
"726 692 CURVE",
"726 700 LINE",
"530 700 LINE",
"530 692 LINE",
"554 684 OFFCURVE",
"583 679 OFFCURVE",
"611 676 CURVE",
"611 69 LINE",
"192 700 LINE",
"46 700 LINE",
"46 692 LINE",
"71 684 OFFCURVE",
"100 679 OFFCURVE",
"128 675 CURVE",
"128 23 LINE",
"100 20 OFFCURVE",
"71 15 OFFCURVE",
"46 7 CURVE",
"46 0 LINE"
);
}
);
width = 773;
}
);
note = N;
unicode = 004E;
},
{
glyphname = Nacute;
lastChange = "2015-10-01 14:35:46 +0000";
layers = (
{
layerId = "047EFF1B-D2DC-4EF2-AB21-67EF4112B097";
name = Light;
paths = (
{
closed = 1;
nodes = (
"243 0 LINE",
"243 7 LINE",
"218 15 OFFCURVE",
"190 20 OFFCURVE",
"162 24 CURVE",
"162 669 LINE",
"609 0 LINE",
"645 0 LINE",
"645 675 LINE",
"673 679 OFFCURVE",
"702 684 OFFCURVE",
"726 692 CURVE",
"726 700 LINE",
"530 700 LINE",
"530 692 LINE",
"554 684 OFFCURVE",
"583 679 OFFCURVE",
"611 676 CURVE",
"611 69 LINE",
"192 700 LINE",
"46 700 LINE",
"46 692 LINE",
"71 684 OFFCURVE",
"100 679 OFFCURVE",
"128 675 CURVE",
"128 23 LINE",
"100 20 OFFCURVE",
"71 15 OFFCURVE",
"46 7 CURVE",
"46 0 LINE"
);
},
{
closed = 1;
nodes = (
"475 862 LINE",
"490 870 OFFCURVE",
"497 881 OFFCURVE",
"497 891 CURVE SMOOTH",
"497 902 OFFCURVE",
"489 910 OFFCURVE",
"477 910 CURVE SMOOTH",
"463 910 OFFCURVE",
"452 901 OFFCURVE",
"445 894 CURVE",
"335 801 LINE",
"345 786 LINE"
);
}
);
width = 773;
}
);
note = Nacute;
unicode = 0143;
},
{
glyphname = Ncaron;
lastChange = "2015-10-01 14:35:47 +0000";
layers = (
{
layerId = "047EFF1B-D2DC-4EF2-AB21-67EF4112B097";
name = Light;
paths = (
{
closed = 1;
nodes = (
"243 0 LINE",
"243 7 LINE",
"218 15 OFFCURVE",
"190 20 OFFCURVE",
"162 24 CURVE",
"162 669 LINE",
"609 0 LINE",
"645 0 LINE",
"645 675 LINE",
"673 679 OFFCURVE",
"702 684 OFFCURVE",
"726 692 CURVE",
"726 700 LINE",
"530 700 LINE",
"530 692 LINE",
"554 684 OFFCURVE",
"583 679 OFFCURVE",
"611 676 CURVE",
"611 69 LINE",
"192 700 LINE",
"46 700 LINE",
"46 692 LINE",
"71 684 OFFCURVE",
"100 679 OFFCURVE",
"128 675 CURVE",
"128 23 LINE",
"100 20 OFFCURVE",
"71 15 OFFCURVE",
"46 7 CURVE",
"46 0 LINE"
);
},
{
closed = 1;
nodes = (
"397 786 LINE",
"430 831 OFFCURVE",
"475 870 OFFCURVE",
"512 896 CURVE",
"491 919 LINE",
"456 893 OFFCURVE",
"416 858 OFFCURVE",
"388 823 CURVE",
"383 823 LINE",
"355 858 OFFCURVE",
"315 893 OFFCURVE",
"280 919 CURVE",
"259 896 LINE",
"296 870 OFFCURVE",
"341 831 OFFCURVE",
"374 786 CURVE"
);
}
);
width = 773;
}
);
note = Ncaron;
unicode = 0147;
},
{
glyphname = Ncommaaccent;
lastChange = "2015-10-01 14:35:47 +0000";
layers = (
{
layerId = "047EFF1B-D2DC-4EF2-AB21-67EF4112B097";
name = Light;
paths = (
{
closed = 1;
nodes = (
"243 0 LINE",
"243 7 LINE",
"218 15 OFFCURVE",
"190 20 OFFCURVE",
"162 24 CURVE",
"162 669 LINE",
"609 0 LINE",
"645 0 LINE",
"645 675 LINE",
"673 679 OFFCURVE",
"702 684 OFFCURVE",
"726 692 CURVE",
"726 700 LINE",
"530 700 LINE",
"530 692 LINE",
"554 684 OFFCURVE",
"583 679 OFFCURVE",
"611 676 CURVE",
"611 69 LINE",
"192 700 LINE",
"46 700 LINE",
"46 692 LINE",
"71 684 OFFCURVE",
"100 679 OFFCURVE",
"128 675 CURVE",
"128 23 LINE",
"100 20 OFFCURVE",
"71 15 OFFCURVE",
"46 7 CURVE",
"46 0 LINE"
);
},
{
closed = 1;
nodes = (
"407 -225 OFFCURVE",
"428 -160 OFFCURVE",
"428 -119 CURVE SMOOTH",
"428 -85 OFFCURVE",
"414 -61 OFFCURVE",
"379 -61 CURVE SMOOTH",
"359 -61 OFFCURVE",
"340 -72 OFFCURVE",
"340 -98 CURVE SMOOTH",
"340 -119 OFFCURVE",
"355 -135 OFFCURVE",
"374 -135 CURVE SMOOTH",
"379 -135 OFFCURVE",
"386 -134 OFFCURVE",
"391 -132 CURVE",
"389 -147 LINE",
"386 -180 OFFCURVE",
"373 -216 OFFCURVE",
"353 -241 CURVE",
"374 -258 LINE"
);
}
);
width = 773;
}
);
note = Ncommaaccent;
unicode = 0145;
},
{
glyphname = Ndotaccent;
lastChange = "2015-10-01 14:35:46 +0000";
layers = (
{
layerId = "047EFF1B-D2DC-4EF2-AB21-67EF4112B097";
name = Light;
paths = (
{
closed = 1;
nodes = (
"243 0 LINE",
"243 7 LINE",
"218 15 OFFCURVE",
"190 20 OFFCURVE",
"162 24 CURVE",
"162 669 LINE",
"609 0 LINE",
"645 0 LINE",
"645 675 LINE",
"673 679 OFFCURVE",
"702 684 OFFCURVE",
"726 692 CURVE",
"726 700 LINE",
"530 700 LINE",
"530 692 LINE",
"554 684 OFFCURVE",
"583 679 OFFCURVE",
"611 676 CURVE",
"611 69 LINE",
"192 700 LINE",
"46 700 LINE",
"46 692 LINE",
"71 684 OFFCURVE",
"100 679 OFFCURVE",
"128 675 CURVE",
"128 23 LINE",
"100 20 OFFCURVE",
"71 15 OFFCURVE",
"46 7 CURVE",
"46 0 LINE"
);
},
{
closed = 1;
nodes = (
"410 785 OFFCURVE",
"424 798 OFFCURVE",
"424 820 CURVE SMOOTH",
"424 842 OFFCURVE",
"410 855 OFFCURVE",
"391 855 CURVE SMOOTH",
"371 855 OFFCURVE",
"357 842 OFFCURVE",
"357 820 CURVE SMOOTH",
"357 798 OFFCURVE",
"371 785 OFFCURVE",
"391 785 CURVE SMOOTH"
);
}
);
width = 773;
}
);
note = Ndotaccent;
unicode = 1E44;
},
{
glyphname = Ndotbelow;
lastChange = "2015-10-01 14:35:47 +0000";
layers = (
{
layerId = "047EFF1B-D2DC-4EF2-AB21-67EF4112B097";
name = Light;
paths = (
{
closed = 1;
nodes = (
"243 0 LINE",
"243 7 LINE",
"218 15 OFFCURVE",
"190 20 OFFCURVE",
"162 24 CURVE",
"162 669 LINE",
"609 0 LINE",
"645 0 LINE",
"645 675 LINE",
"673 679 OFFCURVE",
"702 684 OFFCURVE",
"726 692 CURVE",
"726 700 LINE",
"530 700 LINE",
"530 692 LINE",
"554 684 OFFCURVE",
"583 679 OFFCURVE",
"611 676 CURVE",
"611 69 LINE",
"192 700 LINE",
"46 700 LINE",
"46 692 LINE",
"71 684 OFFCURVE",
"100 679 OFFCURVE",
"128 675 CURVE",
"128 23 LINE",
"100 20 OFFCURVE",
"71 15 OFFCURVE",
"46 7 CURVE",
"46 0 LINE"
);
},
{
closed = 1;
nodes = (
"392 -133 OFFCURVE",
"406 -120 OFFCURVE",
"406 -98 CURVE SMOOTH",
"406 -76 OFFCURVE",
"392 -63 OFFCURVE",
"373 -63 CURVE SMOOTH",
"353 -63 OFFCURVE",
"339 -76 OFFCURVE",
"339 -98 CURVE SMOOTH",
"339 -120 OFFCURVE",
"353 -133 OFFCURVE",
"373 -133 CURVE SMOOTH"
);
}
);
width = 773;
}
);
note = uni1E46;
unicode = 1E46;
},
{
glyphname = Eng;
lastChange = "2015-10-01 14:35:46 +0000";
layers = (
{
layerId = "047EFF1B-D2DC-4EF2-AB21-67EF4112B097";
name = Light;
paths = (
{
closed = 1;
nodes = (
"596 -248 OFFCURVE",
"645 -196 OFFCURVE",
"645 -111 CURVE SMOOTH",
"645 675 LINE",
"673 679 OFFCURVE",
"702 684 OFFCURVE",
"726 692 CURVE",
"726 700 LINE",
"530 700 LINE",
"530 692 LINE",
"554 684 OFFCURVE",
"583 679 OFFCURVE",
"611 676 CURVE",
"611 69 LINE",
"192 700 LINE",
"46 700 LINE",
"46 692 LINE",
"71 684 OFFCURVE",
"100 679 OFFCURVE",
"128 675 CURVE",
"128 23 LINE",
"100 20 OFFCURVE",
"71 15 OFFCURVE",
"46 7 CURVE",
"46 0 LINE",
"243 0 LINE",
"243 7 LINE",
"218 15 OFFCURVE",
"190 20 OFFCURVE",
"162 24 CURVE",
"162 669 LINE",
"611 0 LINE",
"611 -106 LINE SMOOTH",
"611 -188 OFFCURVE",
"559 -217 OFFCURVE",
"488 -217 CURVE SMOOTH",
"446 -217 OFFCURVE",
"411 -209 OFFCURVE",
"381 -194 CURVE",
"373 -209 LINE",
"406 -233 OFFCURVE",
"444 -248 OFFCURVE",
"500 -248 CURVE SMOOTH"
);
}
);
width = 773;
}
);
note = Eng;
unicode = 014A;
},
{
glyphname = Nlinebelow;
lastChange = "2015-10-01 14:35:46 +0000";
layers = (
{
layerId = "047EFF1B-D2DC-4EF2-AB21-67EF4112B097";
name = Light;
paths = (
{
closed = 1;
nodes = (
"243 0 LINE",
"243 7 LINE",
"218 15 OFFCURVE",
"190 20 OFFCURVE",
"162 24 CURVE",
"162 669 LINE",
"609 0 LINE",
"645 0 LINE",
"645 675 LINE",
"673 679 OFFCURVE",
"702 684 OFFCURVE",
"726 692 CURVE",
"726 700 LINE",
"530 700 LINE",
"530 692 LINE",
"554 684 OFFCURVE",
"583 679 OFFCURVE",
"611 676 CURVE",
"611 69 LINE",
"192 700 LINE",
"46 700 LINE",
"46 692 LINE",
"71 684 OFFCURVE",
"100 679 OFFCURVE",
"128 675 CURVE",
"128 23 LINE",
"100 20 OFFCURVE",
"71 15 OFFCURVE",
"46 7 CURVE",
"46 0 LINE"
);
},
{
closed = 1;
nodes = (
"537 -100 LINE",
"537 -74 LINE",
"242 -74 LINE",
"242 -100 LINE"
);
}
);
width = 773;
}
);
note = Nlinebelow;
unicode = 1E48;
},
{
glyphname = Ntilde;
lastChange = "2015-10-01 14:35:47 +0000";
layers = (
{
layerId = "047EFF1B-D2DC-4EF2-AB21-67EF4112B097";
name = Light;
paths = (
{
closed = 1;
nodes = (
"243 0 LINE",
"243 7 LINE",
"218 15 OFFCURVE",
"190 20 OFFCURVE",
"162 24 CURVE",
"162 669 LINE",
"609 0 LINE",
"645 0 LINE",
"645 675 LINE",
"673 679 OFFCURVE",
"702 684 OFFCURVE",
"726 692 CURVE",
"726 700 LINE",
"530 700 LINE",
"530 692 LINE",
"554 684 OFFCURVE",
"583 679 OFFCURVE",
"611 676 CURVE",
"611 69 LINE",
"192 700 LINE",
"46 700 LINE",
"46 692 LINE",
"71 684 OFFCURVE",
"100 679 OFFCURVE",
"128 675 CURVE",
"128 23 LINE",
"100 20 OFFCURVE",
"71 15 OFFCURVE",
"46 7 CURVE",
"46 0 LINE"
);
},
{
closed = 1;
nodes = (
"256 786 LINE",
"265 823 OFFCURVE",
"287 846 OFFCURVE",
"318 846 CURVE SMOOTH",
"360 846 OFFCURVE",
"409 787 OFFCURVE",
"454 787 CURVE SMOOTH",
"500 787 OFFCURVE",
"528 824 OFFCURVE",
"537 882 CURVE",
"519 882 LINE",
"509 841 OFFCURVE",
"489 818 OFFCURVE",
"456 818 CURVE SMOOTH",
"415 818 OFFCURVE",
"368 876 OFFCURVE",
"320 876 CURVE SMOOTH",
"278 876 OFFCURVE",
"246 849 OFFCURVE",
"238 786 CURVE"
);
}
);
width = 773;
}
);
note = Ntilde;
unicode = 00D1;
},
{
glyphname = O;
lastChange = "2015-10-01 14:35:46 +0000";
layers = (
{
layerId = "047EFF1B-D2DC-4EF2-AB21-67EF4112B097";
name = Light;
paths = (
{
closed = 1;
nodes = (
"536 -10 OFFCURVE",
"642 127 OFFCURVE",
"642 350 CURVE SMOOTH",
"642 572 OFFCURVE",
"536 710 OFFCURVE",
"340 710 CURVE SMOOTH",
"144 710 OFFCURVE",
"39 572 OFFCURVE",
"39 350 CURVE SMOOTH",
"39 127 OFFCURVE",
"144 -10 OFFCURVE",
"340 -10 CURVE SMOOTH"
);
},
{
closed = 1;
nodes = (
"168 17 OFFCURVE",
"90 157 OFFCURVE",
"90 350 CURVE SMOOTH",
"90 542 OFFCURVE",
"168 683 OFFCURVE",
"340 683 CURVE SMOOTH",
"512 683 OFFCURVE",
"591 542 OFFCURVE",
"591 350 CURVE SMOOTH",
"591 157 OFFCURVE",
"512 17 OFFCURVE",
"340 17 CURVE SMOOTH"
);
}
);
width = 681;
}
);
leftKerningGroup = O;
note = O;
rightKerningGroup = O;
unicode = 004F;
},
{
glyphname = Oacute;
lastChange = "2015-10-01 14:35:46 +0000";
layers = (
{
layerId = "047EFF1B-D2DC-4EF2-AB21-67EF4112B097";
name = Light;
paths = (
{
closed = 1;
nodes = (
"536 -10 OFFCURVE",
"642 127 OFFCURVE",
"642 350 CURVE SMOOTH",
"642 572 OFFCURVE",
"536 710 OFFCURVE",
"340 710 CURVE SMOOTH",
"144 710 OFFCURVE",
"39 572 OFFCURVE",
"39 350 CURVE SMOOTH",
"39 127 OFFCURVE",
"144 -10 OFFCURVE",
"340 -10 CURVE SMOOTH"
);
},
{
closed = 1;
nodes = (
"168 17 OFFCURVE",
"90 157 OFFCURVE",
"90 350 CURVE SMOOTH",
"90 542 OFFCURVE",
"168 683 OFFCURVE",
"340 683 CURVE SMOOTH",
"512 683 OFFCURVE",
"591 542 OFFCURVE",
"591 350 CURVE SMOOTH",
"591 157 OFFCURVE",
"512 17 OFFCURVE",
"340 17 CURVE SMOOTH"
);
},
{
closed = 1;
nodes = (
"399 862 LINE",
"414 870 OFFCURVE",
"421 881 OFFCURVE",
"421 891 CURVE SMOOTH",
"421 902 OFFCURVE",
"413 910 OFFCURVE",
"401 910 CURVE SMOOTH",
"387 910 OFFCURVE",
"376 901 OFFCURVE",
"369 894 CURVE",
"259 801 LINE",
"269 786 LINE"
);
}
);
width = 681;
}
);
leftKerningGroup = O;
note = Oacute;
rightKerningGroup = O;
unicode = 00D3;
},
{
glyphname = Obreve;
lastChange = "2015-10-01 14:35:46 +0000";
layers = (
{
layerId = "047EFF1B-D2DC-4EF2-AB21-67EF4112B097";
name = Light;
paths = (
{
closed = 1;
nodes = (
"536 -10 OFFCURVE",
"642 127 OFFCURVE",
"642 350 CURVE SMOOTH",
"642 572 OFFCURVE",
"536 710 OFFCURVE",
"340 710 CURVE SMOOTH",
"144 710 OFFCURVE",
"39 572 OFFCURVE",
"39 350 CURVE SMOOTH",
"39 127 OFFCURVE",
"144 -10 OFFCURVE",
"340 -10 CURVE SMOOTH"
);
},
{
closed = 1;
nodes = (
"168 17 OFFCURVE",
"90 157 OFFCURVE",
"90 350 CURVE SMOOTH",
"90 542 OFFCURVE",
"168 683 OFFCURVE",
"340 683 CURVE SMOOTH",
"512 683 OFFCURVE",
"591 542 OFFCURVE",
"591 350 CURVE SMOOTH",
"591 157 OFFCURVE",
"512 17 OFFCURVE",
"340 17 CURVE SMOOTH"
);
},
{
closed = 1;
nodes = (
"415 772 OFFCURVE",
"471 808 OFFCURVE",
"478 889 CURVE",
"442 889 LINE",
"433 811 OFFCURVE",
"381 799 OFFCURVE",
"340 799 CURVE SMOOTH",
"299 799 OFFCURVE",
"246 811 OFFCURVE",
"237 889 CURVE",
"201 889 LINE",
"209 808 OFFCURVE",
"264 772 OFFCURVE",
"340 772 CURVE SMOOTH"
);
}
);
width = 681;
}
);
leftKerningGroup = O;
note = Obreve;
rightKerningGroup = O;
unicode = 014E;
},
{
glyphname = Ocaron;
lastChange = "2015-10-01 14:35:47 +0000";
layers = (
{
layerId = "047EFF1B-D2DC-4EF2-AB21-67EF4112B097";
name = Light;
paths = (
{
closed = 1;
nodes = (
"536 -10 OFFCURVE",
"642 127 OFFCURVE",
"642 350 CURVE SMOOTH",
"642 572 OFFCURVE",
"536 710 OFFCURVE",
"340 710 CURVE SMOOTH",
"144 710 OFFCURVE",
"39 572 OFFCURVE",
"39 350 CURVE SMOOTH",
"39 127 OFFCURVE",
"144 -10 OFFCURVE",
"340 -10 CURVE SMOOTH"
);
},
{
closed = 1;
nodes = (
"168 17 OFFCURVE",
"90 157 OFFCURVE",
"90 350 CURVE SMOOTH",
"90 542 OFFCURVE",
"168 683 OFFCURVE",
"340 683 CURVE SMOOTH",
"512 683 OFFCURVE",
"591 542 OFFCURVE",
"591 350 CURVE SMOOTH",
"591 157 OFFCURVE",
"512 17 OFFCURVE",
"340 17 CURVE SMOOTH"
);
},
{
closed = 1;
nodes = (
"352 786 LINE",
"385 831 OFFCURVE",
"430 870 OFFCURVE",
"467 896 CURVE",
"446 919 LINE",
"411 893 OFFCURVE",
"371 858 OFFCURVE",
"343 823 CURVE",
"338 823 LINE",
"310 858 OFFCURVE",
"270 893 OFFCURVE",
"235 919 CURVE",
"214 896 LINE",
"251 870 OFFCURVE",
"296 831 OFFCURVE",
"329 786 CURVE"
);
}
);
width = 681;
}
);
leftKerningGroup = O;
note = Ocaron;
rightKerningGroup = O;
unicode = 01D1;
},
{
glyphname = Ocircumflex;
lastChange = "2015-10-01 14:35:46 +0000";
layers = (
{
layerId = "047EFF1B-D2DC-4EF2-AB21-67EF4112B097";
name = Light;
paths = (
{
closed = 1;
nodes = (
"536 -10 OFFCURVE",
"642 127 OFFCURVE",
"642 350 CURVE SMOOTH",
"642 572 OFFCURVE",
"536 710 OFFCURVE",
"340 710 CURVE SMOOTH",
"144 710 OFFCURVE",
"39 572 OFFCURVE",
"39 350 CURVE SMOOTH",
"39 127 OFFCURVE",
"144 -10 OFFCURVE",
"340 -10 CURVE SMOOTH"
);
},
{
closed = 1;
nodes = (
"168 17 OFFCURVE",
"90 157 OFFCURVE",
"90 350 CURVE SMOOTH",
"90 542 OFFCURVE",
"168 683 OFFCURVE",
"340 683 CURVE SMOOTH",
"512 683 OFFCURVE",
"591 542 OFFCURVE",
"591 350 CURVE SMOOTH",
"591 157 OFFCURVE",
"512 17 OFFCURVE",
"340 17 CURVE SMOOTH"
);
},
{
closed = 1;
nodes = (
"269 803 OFFCURVE",
"309 838 OFFCURVE",
"337 873 CURVE",
"342 873 LINE",
"370 838 OFFCURVE",
"410 803 OFFCURVE",
"445 778 CURVE",
"466 800 LINE",
"429 827 OFFCURVE",
"384 866 OFFCURVE",
"351 910 CURVE",
"328 910 LINE",
"295 866 OFFCURVE",
"250 827 OFFCURVE",
"213 800 CURVE",
"234 778 LINE"
);
}
);
width = 681;
}
);
leftKerningGroup = O;
note = Ocircumflex;
rightKerningGroup = O;
unicode = 00D4;
},
{
glyphname = Ocircumflexacute;
lastChange = "2015-10-01 14:35:46 +0000";
layers = (
{
layerId = "047EFF1B-D2DC-4EF2-AB21-67EF4112B097";
name = Light;
paths = (
{
closed = 1;
nodes = (
"536 -10 OFFCURVE",
"642 127 OFFCURVE",
"642 350 CURVE SMOOTH",
"642 572 OFFCURVE",
"536 710 OFFCURVE",
"340 710 CURVE SMOOTH",
"144 710 OFFCURVE",
"39 572 OFFCURVE",
"39 350 CURVE SMOOTH",
"39 127 OFFCURVE",
"144 -10 OFFCURVE",
"340 -10 CURVE SMOOTH"
);
},
{
closed = 1;
nodes = (
"168 17 OFFCURVE",
"90 157 OFFCURVE",
"90 350 CURVE SMOOTH",
"90 542 OFFCURVE",
"168 683 OFFCURVE",
"340 683 CURVE SMOOTH",
"512 683 OFFCURVE",
"591 542 OFFCURVE",
"591 350 CURVE SMOOTH",
"591 157 OFFCURVE",
"512 17 OFFCURVE",
"340 17 CURVE SMOOTH"
);
},
{
closed = 1;
nodes = (
"269 803 OFFCURVE",
"308 838 OFFCURVE",
"336 873 CURVE",
"342 873 LINE",
"370 838 OFFCURVE",
"409 803 OFFCURVE",
"445 778 CURVE",
"466 800 LINE",
"429 827 OFFCURVE",
"383 866 OFFCURVE",
"351 910 CURVE",
"327 910 LINE",
"295 866 OFFCURVE",
"250 827 OFFCURVE",
"212 800 CURVE",
"234 778 LINE"
);
},
{
closed = 1;
nodes = (
"560 953 LINE",
"578 962 OFFCURVE",
"586 975 OFFCURVE",
"586 986 CURVE SMOOTH",
"586 996 OFFCURVE",
"578 1003 OFFCURVE",
"568 1003 CURVE SMOOTH",
"556 1003 OFFCURVE",
"543 996 OFFCURVE",
"531 984 CURVE",
"433 899 LINE",
"443 886 LINE"
);
}
);
width = 681;
}
);
leftKerningGroup = O;
note = Ocircumflexacute;
rightKerningGroup = O;
unicode = 1ED0;
},
{
glyphname = Ocircumflexdotbelow;
lastChange = "2015-10-01 14:35:47 +0000";
layers = (
{
layerId = "047EFF1B-D2DC-4EF2-AB21-67EF4112B097";
name = Light;
paths = (
{
closed = 1;
nodes = (
"536 -10 OFFCURVE",
"642 127 OFFCURVE",
"642 350 CURVE SMOOTH",
"642 572 OFFCURVE",
"536 710 OFFCURVE",
"340 710 CURVE SMOOTH",
"144 710 OFFCURVE",
"39 572 OFFCURVE",
"39 350 CURVE SMOOTH",
"39 127 OFFCURVE",
"144 -10 OFFCURVE",
"340 -10 CURVE SMOOTH"
);
},
{
closed = 1;
nodes = (
"359 -133 OFFCURVE",
"373 -120 OFFCURVE",
"373 -98 CURVE SMOOTH",
"373 -76 OFFCURVE",
"359 -63 OFFCURVE",
"340 -63 CURVE SMOOTH",
"320 -63 OFFCURVE",
"306 -76 OFFCURVE",
"306 -98 CURVE SMOOTH",
"306 -120 OFFCURVE",
"320 -133 OFFCURVE",
"340 -133 CURVE SMOOTH"
);
},
{
closed = 1;
nodes = (
"168 17 OFFCURVE",
"90 157 OFFCURVE",
"90 350 CURVE SMOOTH",
"90 542 OFFCURVE",
"168 683 OFFCURVE",
"340 683 CURVE SMOOTH",
"512 683 OFFCURVE",
"591 542 OFFCURVE",
"591 350 CURVE SMOOTH",
"591 157 OFFCURVE",
"512 17 OFFCURVE",
"340 17 CURVE SMOOTH"
);
},
{
closed = 1;
nodes = (
"269 803 OFFCURVE",
"309 838 OFFCURVE",
"337 873 CURVE",
"342 873 LINE",
"370 838 OFFCURVE",
"410 803 OFFCURVE",
"445 778 CURVE",
"466 800 LINE",
"429 827 OFFCURVE",
"384 866 OFFCURVE",
"351 910 CURVE",
"328 910 LINE",
"295 866 OFFCURVE",
"250 827 OFFCURVE",
"213 800 CURVE",
"234 778 LINE"
);
}
);
width = 681;
}
);
leftKerningGroup = O;
note = Ocircumflexdotbelow;
rightKerningGroup = O;
unicode = 1ED8;
},
{
glyphname = Ocircumflexgrave;
lastChange = "2015-10-01 14:35:47 +0000";
layers = (
{
layerId = "047EFF1B-D2DC-4EF2-AB21-67EF4112B097";
name = Light;
paths = (
{
closed = 1;
nodes = (
"536 -10 OFFCURVE",
"642 127 OFFCURVE",
"642 350 CURVE SMOOTH",
"642 572 OFFCURVE",
"536 710 OFFCURVE",
"340 710 CURVE SMOOTH",
"144 710 OFFCURVE",
"39 572 OFFCURVE",
"39 350 CURVE SMOOTH",
"39 127 OFFCURVE",
"144 -10 OFFCURVE",
"340 -10 CURVE SMOOTH"
);
},
{
closed = 1;
nodes = (
"168 17 OFFCURVE",
"90 157 OFFCURVE",
"90 350 CURVE SMOOTH",
"90 542 OFFCURVE",
"168 683 OFFCURVE",
"340 683 CURVE SMOOTH",
"512 683 OFFCURVE",
"591 542 OFFCURVE",
"591 350 CURVE SMOOTH",
"591 157 OFFCURVE",
"512 17 OFFCURVE",
"340 17 CURVE SMOOTH"
);
},
{
closed = 1;
nodes = (
"256 899 LINE",
"166 976 LINE SMOOTH",
"150 989 OFFCURVE",
"137 1003 OFFCURVE",
"122 1003 CURVE SMOOTH",
"110 1003 OFFCURVE",
"103 994 OFFCURVE",
"103 984 CURVE SMOOTH",
"103 971 OFFCURVE",
"118 959 OFFCURVE",
"139 947 CURVE SMOOTH",
"246 886 LINE"
);
},
{
closed = 1;
nodes = (
"269 803 OFFCURVE",
"308 838 OFFCURVE",
"336 873 CURVE",
"342 873 LINE",
"370 838 OFFCURVE",
"409 803 OFFCURVE",
"445 778 CURVE",
"466 800 LINE",
"429 827 OFFCURVE",
"383 866 OFFCURVE",
"351 910 CURVE",
"327 910 LINE",
"295 866 OFFCURVE",
"250 827 OFFCURVE",
"212 800 CURVE",
"234 778 LINE"
);
}
);
width = 681;
}
);
leftKerningGroup = O;
note = Ocircumflexgrave;
rightKerningGroup = O;
unicode = 1ED2;
},
{
glyphname = Ocircumflexhookabove;
lastChange = "2015-10-01 14:35:46 +0000";
layers = (
{
layerId = "047EFF1B-D2DC-4EF2-AB21-67EF4112B097";
name = Light;
paths = (
{
closed = 1;
nodes = (
"536 -10 OFFCURVE",
"642 127 OFFCURVE",
"642 350 CURVE SMOOTH",
"642 572 OFFCURVE",
"536 710 OFFCURVE",
"340 710 CURVE SMOOTH",
"144 710 OFFCURVE",
"39 572 OFFCURVE",
"39 350 CURVE SMOOTH",
"39 127 OFFCURVE",
"144 -10 OFFCURVE",
"340 -10 CURVE SMOOTH"
);
},
{
closed = 1;
nodes = (
"168 17 OFFCURVE",
"90 157 OFFCURVE",
"90 350 CURVE SMOOTH",
"90 542 OFFCURVE",
"168 683 OFFCURVE",
"340 683 CURVE SMOOTH",
"512 683 OFFCURVE",
"591 542 OFFCURVE",
"591 350 CURVE SMOOTH",
"591 157 OFFCURVE",
"512 17 OFFCURVE",
"340 17 CURVE SMOOTH"
);
},
{
closed = 1;
nodes = (
"269 810 OFFCURVE",
"308 845 OFFCURVE",
"336 880 CURVE",
"342 880 LINE",
"370 845 OFFCURVE",
"409 810 OFFCURVE",
"445 785 CURVE",
"466 807 LINE",
"429 834 OFFCURVE",
"383 873 OFFCURVE",
"351 917 CURVE",
"327 917 LINE",
"295 873 OFFCURVE",
"250 834 OFFCURVE",
"212 807 CURVE",
"234 785 LINE"
);
},
{
closed = 1;
nodes = (
"456 874 LINE",
"465 923 LINE",
"508 928 OFFCURVE",
"530 946 OFFCURVE",
"530 982 CURVE SMOOTH",
"530 1023 OFFCURVE",
"496 1040 OFFCURVE",
"460 1040 CURVE SMOOTH",
"437 1040 OFFCURVE",
"415 1033 OFFCURVE",
"401 1026 CURVE",
"406 1006 LINE",
"423 1015 OFFCURVE",
"439 1018 OFFCURVE",
"452 1018 CURVE SMOOTH",
"484 1018 OFFCURVE",
"499 1004 OFFCURVE",
"499 983 CURVE SMOOTH",
"499 960 OFFCURVE",
"484 941 OFFCURVE",
"443 941 CURVE SMOOTH",
"430 941 LINE",
"435 874 LINE"
);
}
);
width = 681;
}
);
leftKerningGroup = O;
note = Ocircumflexhookabove;
rightKerningGroup = O;
unicode = 1ED4;
},
{
glyphname = Ocircumflextilde;
lastChange = "2015-10-01 14:35:46 +0000";
layers = (
{
layerId = "047EFF1B-D2DC-4EF2-AB21-67EF4112B097";
name = Light;
paths = (
{
closed = 1;
nodes = (
"536 -10 OFFCURVE",
"642 127 OFFCURVE",
"642 350 CURVE SMOOTH",
"642 572 OFFCURVE",
"536 710 OFFCURVE",
"340 710 CURVE SMOOTH",
"144 710 OFFCURVE",
"39 572 OFFCURVE",
"39 350 CURVE SMOOTH",
"39 127 OFFCURVE",
"144 -10 OFFCURVE",
"340 -10 CURVE SMOOTH"
);
},
{
closed = 1;
nodes = (
"168 17 OFFCURVE",
"90 157 OFFCURVE",
"90 350 CURVE SMOOTH",
"90 542 OFFCURVE",
"168 683 OFFCURVE",
"340 683 CURVE SMOOTH",
"512 683 OFFCURVE",
"591 542 OFFCURVE",
"591 350 CURVE SMOOTH",
"591 157 OFFCURVE",
"512 17 OFFCURVE",
"340 17 CURVE SMOOTH"
);
},
{
closed = 1;
nodes = (
"269 803 OFFCURVE",
"308 838 OFFCURVE",
"336 873 CURVE",
"342 873 LINE",
"370 838 OFFCURVE",
"409 803 OFFCURVE",
"445 778 CURVE",
"466 800 LINE",
"429 827 OFFCURVE",
"383 866 OFFCURVE",
"351 910 CURVE",
"327 910 LINE",
"295 866 OFFCURVE",
"250 827 OFFCURVE",
"212 800 CURVE",
"234 778 LINE"
);
},
{
closed = 1;
nodes = (
"215 943 LINE",
"224 980 OFFCURVE",
"244 1003 OFFCURVE",
"274 1003 CURVE SMOOTH",
"314 1003 OFFCURVE",
"361 944 OFFCURVE",
"403 944 CURVE SMOOTH",
"447 944 OFFCURVE",
"473 981 OFFCURVE",
"481 1039 CURVE",
"464 1039 LINE",
"455 998 OFFCURVE",
"436 975 OFFCURVE",
"405 975 CURVE SMOOTH",
"366 975 OFFCURVE",
"321 1033 OFFCURVE",
"276 1033 CURVE SMOOTH",
"237 1033 OFFCURVE",
"206 1006 OFFCURVE",
"198 943 CURVE"
);
}
);
width = 681;
}
);
leftKerningGroup = O;
note = Ocircumflextilde;
rightKerningGroup = O;
unicode = 1ED6;
},
{
glyphname = Odieresis;
lastChange = "2015-10-01 14:35:46 +0000";
layers = (
{
layerId = "047EFF1B-D2DC-4EF2-AB21-67EF4112B097";
name = Light;
paths = (
{
closed = 1;
nodes = (
"536 -10 OFFCURVE",
"642 127 OFFCURVE",
"642 350 CURVE SMOOTH",
"642 572 OFFCURVE",
"536 710 OFFCURVE",
"340 710 CURVE SMOOTH",
"144 710 OFFCURVE",
"39 572 OFFCURVE",
"39 350 CURVE SMOOTH",
"39 127 OFFCURVE",
"144 -10 OFFCURVE",
"340 -10 CURVE SMOOTH"
);
},
{
closed = 1;
nodes = (
"168 17 OFFCURVE",
"90 157 OFFCURVE",
"90 350 CURVE SMOOTH",
"90 542 OFFCURVE",
"168 683 OFFCURVE",
"340 683 CURVE SMOOTH",
"512 683 OFFCURVE",
"591 542 OFFCURVE",
"591 350 CURVE SMOOTH",
"591 157 OFFCURVE",
"512 17 OFFCURVE",
"340 17 CURVE SMOOTH"
);
},
{
closed = 1;
nodes = (
"256 785 OFFCURVE",
"270 798 OFFCURVE",
"270 820 CURVE SMOOTH",
"270 842 OFFCURVE",
"256 855 OFFCURVE",
"236 855 CURVE SMOOTH",
"217 855 OFFCURVE",
"203 842 OFFCURVE",
"203 820 CURVE SMOOTH",
"203 798 OFFCURVE",
"217 785 OFFCURVE",
"236 785 CURVE SMOOTH"
);
},
{
closed = 1;
nodes = (
"462 785 OFFCURVE",
"476 798 OFFCURVE",
"476 820 CURVE SMOOTH",
"476 842 OFFCURVE",
"462 855 OFFCURVE",
"443 855 CURVE SMOOTH",
"423 855 OFFCURVE",
"409 842 OFFCURVE",
"409 820 CURVE SMOOTH",
"409 798 OFFCURVE",
"423 785 OFFCURVE",
"443 785 CURVE SMOOTH"
);
}
);
width = 681;
}
);
leftKerningGroup = O;
note = Odieresis;
rightKerningGroup = O;
unicode = 00D6;
},
{
glyphname = Odotbelow;
lastChange = "2015-10-01 14:35:46 +0000";
layers = (
{
layerId = "047EFF1B-D2DC-4EF2-AB21-67EF4112B097";
name = Light;
paths = (
{
closed = 1;
nodes = (
"536 -10 OFFCURVE",
"642 127 OFFCURVE",
"642 350 CURVE SMOOTH",
"642 572 OFFCURVE",
"536 710 OFFCURVE",
"340 710 CURVE SMOOTH",
"144 710 OFFCURVE",
"39 572 OFFCURVE",
"39 350 CURVE SMOOTH",
"39 127 OFFCURVE",
"144 -10 OFFCURVE",
"340 -10 CURVE SMOOTH"
);
},
{
closed = 1;
nodes = (
"359 -133 OFFCURVE",
"373 -120 OFFCURVE",
"373 -98 CURVE SMOOTH",
"373 -76 OFFCURVE",
"359 -63 OFFCURVE",
"340 -63 CURVE SMOOTH",
"320 -63 OFFCURVE",
"306 -76 OFFCURVE",
"306 -98 CURVE SMOOTH",
"306 -120 OFFCURVE",
"320 -133 OFFCURVE",
"340 -133 CURVE SMOOTH"
);
},
{
closed = 1;
nodes = (
"168 17 OFFCURVE",
"90 157 OFFCURVE",
"90 350 CURVE SMOOTH",
"90 542 OFFCURVE",
"168 683 OFFCURVE",
"340 683 CURVE SMOOTH",
"512 683 OFFCURVE",
"591 542 OFFCURVE",
"591 350 CURVE SMOOTH",
"591 157 OFFCURVE",
"512 17 OFFCURVE",
"340 17 CURVE SMOOTH"
);
}
);
width = 681;
}
);
leftKerningGroup = O;
note = Odotbelow;
rightKerningGroup = O;
unicode = 1ECC;
},
{
glyphname = Ograve;
lastChange = "2015-10-01 14:35:46 +0000";
layers = (
{
layerId = "047EFF1B-D2DC-4EF2-AB21-67EF4112B097";
name = Light;
paths = (
{
closed = 1;
nodes = (
"536 -10 OFFCURVE",
"642 127 OFFCURVE",
"642 350 CURVE SMOOTH",
"642 572 OFFCURVE",
"536 710 OFFCURVE",
"340 710 CURVE SMOOTH",
"144 710 OFFCURVE",
"39 572 OFFCURVE",
"39 350 CURVE SMOOTH",
"39 127 OFFCURVE",
"144 -10 OFFCURVE",
"340 -10 CURVE SMOOTH"
);
},
{
closed = 1;
nodes = (
"168 17 OFFCURVE",
"90 157 OFFCURVE",
"90 350 CURVE SMOOTH",
"90 542 OFFCURVE",
"168 683 OFFCURVE",
"340 683 CURVE SMOOTH",
"512 683 OFFCURVE",
"591 542 OFFCURVE",
"591 350 CURVE SMOOTH",
"591 157 OFFCURVE",
"512 17 OFFCURVE",
"340 17 CURVE SMOOTH"
);
},
{
closed = 1;
nodes = (
"419 801 LINE",
"309 894 LINE",
"300 903 OFFCURVE",
"290 910 OFFCURVE",
"277 910 CURVE SMOOTH",
"265 910 OFFCURVE",
"257 902 OFFCURVE",
"257 891 CURVE SMOOTH",
"257 881 OFFCURVE",
"264 870 OFFCURVE",
"279 862 CURVE",
"409 786 LINE"
);
}
);
width = 681;
}
);
leftKerningGroup = O;
note = Ograve;
rightKerningGroup = O;
unicode = 00D2;
},
{
glyphname = Ohookabove;
lastChange = "2015-10-01 14:35:46 +0000";
layers = (
{
layerId = "047EFF1B-D2DC-4EF2-AB21-67EF4112B097";
name = Light;
paths = (
{
closed = 1;
nodes = (
"536 -10 OFFCURVE",
"642 127 OFFCURVE",
"642 350 CURVE SMOOTH",
"642 572 OFFCURVE",
"536 710 OFFCURVE",
"340 710 CURVE SMOOTH",
"144 710 OFFCURVE",
"39 572 OFFCURVE",
"39 350 CURVE SMOOTH",
"39 127 OFFCURVE",
"144 -10 OFFCURVE",
"340 -10 CURVE SMOOTH"
);
},
{
closed = 1;
nodes = (
"168 17 OFFCURVE",
"90 157 OFFCURVE",
"90 350 CURVE SMOOTH",
"90 542 OFFCURVE",
"168 683 OFFCURVE",
"340 683 CURVE SMOOTH",
"512 683 OFFCURVE",
"591 542 OFFCURVE",
"591 350 CURVE SMOOTH",
"591 157 OFFCURVE",
"512 17 OFFCURVE",
"340 17 CURVE SMOOTH"
);
},
{
closed = 1;
nodes = (
"346 777 LINE",
"357 838 LINE",
"408 843 OFFCURVE",
"433 869 OFFCURVE",
"433 908 CURVE SMOOTH",
"433 956 OFFCURVE",
"394 978 OFFCURVE",
"350 978 CURVE SMOOTH",
"322 978 OFFCURVE",
"296 970 OFFCURVE",
"279 962 CURVE",
"286 938 LINE",
"306 949 OFFCURVE",
"326 954 OFFCURVE",
"342 954 CURVE SMOOTH",
"380 954 OFFCURVE",
"399 935 OFFCURVE",
"399 910 CURVE SMOOTH",
"399 883 OFFCURVE",
"381 858 OFFCURVE",
"333 858 CURVE SMOOTH",
"318 858 LINE",
"323 777 LINE"
);
}
);
width = 681;
}
);
leftKerningGroup = O;
note = Ohookabove;
rightKerningGroup = O;
unicode = 1ECE;
},
{
glyphname = Ohorn;
lastChange = "2015-10-01 14:35:47 +0000";
layers = (
{
layerId = "047EFF1B-D2DC-4EF2-AB21-67EF4112B097";
name = Light;
paths = (
{
closed = 1;
nodes = (
"536 -10 OFFCURVE",
"642 127 OFFCURVE",
"642 350 CURVE SMOOTH",
"642 572 OFFCURVE",
"536 710 OFFCURVE",
"340 710 CURVE SMOOTH",
"144 710 OFFCURVE",
"39 572 OFFCURVE",
"39 350 CURVE SMOOTH",
"39 127 OFFCURVE",
"144 -10 OFFCURVE",
"340 -10 CURVE SMOOTH"
);
},
{
closed = 1;
nodes = (
"168 17 OFFCURVE",
"90 157 OFFCURVE",
"90 350 CURVE SMOOTH",
"90 542 OFFCURVE",
"168 683 OFFCURVE",
"340 683 CURVE SMOOTH",
"512 683 OFFCURVE",
"591 542 OFFCURVE",
"591 350 CURVE SMOOTH",
"591 157 OFFCURVE",
"512 17 OFFCURVE",
"340 17 CURVE SMOOTH"
);
},
{
closed = 1;
nodes = (
"659 574 OFFCURVE",
"683 631 OFFCURVE",
"683 671 CURVE SMOOTH",
"683 704 OFFCURVE",
"672 732 OFFCURVE",
"634 732 CURVE SMOOTH",
"607 732 OFFCURVE",
"593 714 OFFCURVE",
"593 692 CURVE SMOOTH",
"593 668 OFFCURVE",
"609 655 OFFCURVE",
"629 655 CURVE SMOOTH",
"636 655 OFFCURVE",
"644 657 OFFCURVE",
"650 661 CURVE",
"648 616 OFFCURVE",
"618 577 OFFCURVE",
"587 555 CURVE",
"602 535 LINE"
);
}
);
width = 688;
}
);
leftKerningGroup = O;
note = Ohorn;
rightKerningGroup = O;
unicode = 01A0;
},
{
glyphname = Ohornacute;
lastChange = "2015-10-01 14:35:47 +0000";
layers = (
{
layerId = "047EFF1B-D2DC-4EF2-AB21-67EF4112B097";
name = Light;
paths = (
{
closed = 1;
nodes = (
"536 -10 OFFCURVE",
"642 127 OFFCURVE",
"642 350 CURVE SMOOTH",
"642 572 OFFCURVE",
"536 710 OFFCURVE",
"340 710 CURVE SMOOTH",
"144 710 OFFCURVE",
"39 572 OFFCURVE",
"39 350 CURVE SMOOTH",
"39 127 OFFCURVE",
"144 -10 OFFCURVE",
"340 -10 CURVE SMOOTH"
);
},
{
closed = 1;
nodes = (
"168 17 OFFCURVE",
"90 157 OFFCURVE",
"90 350 CURVE SMOOTH",
"90 542 OFFCURVE",
"168 683 OFFCURVE",
"340 683 CURVE SMOOTH",
"512 683 OFFCURVE",
"591 542 OFFCURVE",
"591 350 CURVE SMOOTH",
"591 157 OFFCURVE",
"512 17 OFFCURVE",
"340 17 CURVE SMOOTH"
);
},
{
closed = 1;
nodes = (
"400 861 LINE",
"415 869 OFFCURVE",
"422 880 OFFCURVE",
"422 890 CURVE SMOOTH",
"422 901 OFFCURVE",
"414 909 OFFCURVE",
"402 909 CURVE SMOOTH",
"388 909 OFFCURVE",
"377 900 OFFCURVE",
"370 893 CURVE",
"260 800 LINE",
"270 785 LINE"
);
},
{
closed = 1;
nodes = (
"659 574 OFFCURVE",
"683 631 OFFCURVE",
"683 671 CURVE SMOOTH",
"683 704 OFFCURVE",
"672 732 OFFCURVE",
"634 732 CURVE SMOOTH",
"607 732 OFFCURVE",
"593 714 OFFCURVE",
"593 692 CURVE SMOOTH",
"593 668 OFFCURVE",
"609 655 OFFCURVE",
"629 655 CURVE SMOOTH",
"636 655 OFFCURVE",
"644 657 OFFCURVE",
"650 661 CURVE",
"648 616 OFFCURVE",
"618 577 OFFCURVE",
"587 555 CURVE",
"602 535 LINE"
);
}
);
width = 688;
}
);
leftKerningGroup = O;
note = Ohornacute;
rightKerningGroup = O;
unicode = 1EDA;
},
{
glyphname = Ohorndotbelow;
lastChange = "2015-10-01 14:35:47 +0000";
layers = (
{
layerId = "047EFF1B-D2DC-4EF2-AB21-67EF4112B097";
name = Light;
paths = (
{
closed = 1;
nodes = (
"536 -10 OFFCURVE",
"642 127 OFFCURVE",
"642 350 CURVE SMOOTH",
"642 572 OFFCURVE",
"536 710 OFFCURVE",
"340 710 CURVE SMOOTH",
"144 710 OFFCURVE",
"39 572 OFFCURVE",
"39 350 CURVE SMOOTH",
"39 127 OFFCURVE",
"144 -10 OFFCURVE",
"340 -10 CURVE SMOOTH"
);
},
{
closed = 1;
nodes = (
"359 -133 OFFCURVE",
"373 -120 OFFCURVE",
"373 -98 CURVE SMOOTH",
"373 -76 OFFCURVE",
"359 -63 OFFCURVE",
"340 -63 CURVE SMOOTH",
"320 -63 OFFCURVE",
"306 -76 OFFCURVE",
"306 -98 CURVE SMOOTH",
"306 -120 OFFCURVE",
"320 -133 OFFCURVE",
"340 -133 CURVE SMOOTH"
);
},
{
closed = 1;
nodes = (
"168 17 OFFCURVE",
"90 157 OFFCURVE",
"90 350 CURVE SMOOTH",
"90 542 OFFCURVE",
"168 683 OFFCURVE",
"340 683 CURVE SMOOTH",
"512 683 OFFCURVE",
"591 542 OFFCURVE",
"591 350 CURVE SMOOTH",
"591 157 OFFCURVE",
"512 17 OFFCURVE",
"340 17 CURVE SMOOTH"
);
},
{
closed = 1;
nodes = (
"659 574 OFFCURVE",
"683 631 OFFCURVE",
"683 671 CURVE SMOOTH",
"683 704 OFFCURVE",
"672 732 OFFCURVE",
"634 732 CURVE SMOOTH",
"607 732 OFFCURVE",
"593 714 OFFCURVE",
"593 692 CURVE SMOOTH",
"593 668 OFFCURVE",
"609 655 OFFCURVE",
"629 655 CURVE SMOOTH",
"636 655 OFFCURVE",
"644 657 OFFCURVE",
"650 661 CURVE",
"648 616 OFFCURVE",
"618 577 OFFCURVE",
"587 555 CURVE",
"602 535 LINE"
);
}
);
width = 688;
}
);
leftKerningGroup = O;
note = Ohorndotbelow;
rightKerningGroup = O;
unicode = 1EE2;
},
{
glyphname = Ohorngrave;
lastChange = "2015-10-01 14:35:46 +0000";
layers = (
{
layerId = "047EFF1B-D2DC-4EF2-AB21-67EF4112B097";
name = Light;
paths = (
{
closed = 1;
nodes = (
"536 -10 OFFCURVE",
"642 127 OFFCURVE",
"642 350 CURVE SMOOTH",
"642 572 OFFCURVE",
"536 710 OFFCURVE",
"340 710 CURVE SMOOTH",
"144 710 OFFCURVE",
"39 572 OFFCURVE",
"39 350 CURVE SMOOTH",
"39 127 OFFCURVE",
"144 -10 OFFCURVE",
"340 -10 CURVE SMOOTH"
);
},
{
closed = 1;
nodes = (
"168 17 OFFCURVE",
"90 157 OFFCURVE",
"90 350 CURVE SMOOTH",
"90 542 OFFCURVE",
"168 683 OFFCURVE",
"340 683 CURVE SMOOTH",
"512 683 OFFCURVE",
"591 542 OFFCURVE",
"591 350 CURVE SMOOTH",
"591 157 OFFCURVE",
"512 17 OFFCURVE",
"340 17 CURVE SMOOTH"
);
},
{
closed = 1;
nodes = (
"420 800 LINE",
"310 893 LINE",
"301 902 OFFCURVE",
"291 909 OFFCURVE",
"278 909 CURVE SMOOTH",
"266 909 OFFCURVE",
"258 901 OFFCURVE",
"258 890 CURVE SMOOTH",
"258 880 OFFCURVE",
"265 869 OFFCURVE",
"280 861 CURVE",
"410 785 LINE"
);
},
{
closed = 1;
nodes = (
"659 574 OFFCURVE",
"683 631 OFFCURVE",
"683 671 CURVE SMOOTH",
"683 704 OFFCURVE",
"672 732 OFFCURVE",
"634 732 CURVE SMOOTH",
"607 732 OFFCURVE",
"593 714 OFFCURVE",
"593 692 CURVE SMOOTH",
"593 668 OFFCURVE",
"609 655 OFFCURVE",
"629 655 CURVE SMOOTH",
"636 655 OFFCURVE",
"644 657 OFFCURVE",
"650 661 CURVE",
"648 616 OFFCURVE",
"618 577 OFFCURVE",
"587 555 CURVE",
"602 535 LINE"
);
}
);
width = 688;
}
);
leftKerningGroup = O;
note = Ohorngrave;
rightKerningGroup = O;
unicode = 1EDC;
},
{
glyphname = Ohornhookabove;
lastChange = "2015-10-01 14:35:47 +0000";
layers = (
{
layerId = "047EFF1B-D2DC-4EF2-AB21-67EF4112B097";
name = Light;
paths = (
{
closed = 1;
nodes = (
"536 -10 OFFCURVE",
"642 127 OFFCURVE",
"642 350 CURVE SMOOTH",
"642 572 OFFCURVE",
"536 710 OFFCURVE",
"340 710 CURVE SMOOTH",
"144 710 OFFCURVE",
"39 572 OFFCURVE",
"39 350 CURVE SMOOTH",
"39 127 OFFCURVE",
"144 -10 OFFCURVE",
"340 -10 CURVE SMOOTH"
);
},
{
closed = 1;
nodes = (
"168 17 OFFCURVE",
"90 157 OFFCURVE",
"90 350 CURVE SMOOTH",
"90 542 OFFCURVE",
"168 683 OFFCURVE",
"340 683 CURVE SMOOTH",
"512 683 OFFCURVE",
"591 542 OFFCURVE",
"591 350 CURVE SMOOTH",
"591 157 OFFCURVE",
"512 17 OFFCURVE",
"340 17 CURVE SMOOTH"
);
},
{
closed = 1;
nodes = (
"347 777 LINE",
"358 838 LINE",
"409 843 OFFCURVE",
"434 869 OFFCURVE",
"434 908 CURVE SMOOTH",
"434 956 OFFCURVE",
"395 978 OFFCURVE",
"351 978 CURVE SMOOTH",
"323 978 OFFCURVE",
"297 970 OFFCURVE",
"280 962 CURVE",
"287 938 LINE",
"307 949 OFFCURVE",
"327 954 OFFCURVE",
"343 954 CURVE SMOOTH",
"381 954 OFFCURVE",
"400 935 OFFCURVE",
"400 910 CURVE SMOOTH",
"400 883 OFFCURVE",
"382 858 OFFCURVE",
"334 858 CURVE SMOOTH",
"319 858 LINE",
"324 777 LINE"
);
},
{
closed = 1;
nodes = (
"659 574 OFFCURVE",
"683 631 OFFCURVE",
"683 671 CURVE SMOOTH",
"683 704 OFFCURVE",
"672 732 OFFCURVE",
"634 732 CURVE SMOOTH",
"607 732 OFFCURVE",
"593 714 OFFCURVE",
"593 692 CURVE SMOOTH",
"593 668 OFFCURVE",
"609 655 OFFCURVE",
"629 655 CURVE SMOOTH",
"636 655 OFFCURVE",
"644 657 OFFCURVE",
"650 661 CURVE",
"648 616 OFFCURVE",
"618 577 OFFCURVE",
"587 555 CURVE",
"602 535 LINE"
);
}
);
width = 688;
}
);
leftKerningGroup = O;
note = Ohornhookabove;
rightKerningGroup = O;
unicode = 1EDE;
},
{
glyphname = Ohorntilde;
lastChange = "2015-10-01 14:35:46 +0000";
layers = (
{
layerId = "047EFF1B-D2DC-4EF2-AB21-67EF4112B097";
name = Light;
paths = (
{
closed = 1;
nodes = (
"536 -10 OFFCURVE",
"642 127 OFFCURVE",
"642 350 CURVE SMOOTH",
"642 572 OFFCURVE",
"536 710 OFFCURVE",
"340 710 CURVE SMOOTH",
"144 710 OFFCURVE",
"39 572 OFFCURVE",
"39 350 CURVE SMOOTH",
"39 127 OFFCURVE",
"144 -10 OFFCURVE",
"340 -10 CURVE SMOOTH"
);
},
{
closed = 1;
nodes = (
"168 17 OFFCURVE",
"90 157 OFFCURVE",
"90 350 CURVE SMOOTH",
"90 542 OFFCURVE",
"168 683 OFFCURVE",
"340 683 CURVE SMOOTH",
"512 683 OFFCURVE",
"591 542 OFFCURVE",
"591 350 CURVE SMOOTH",
"591 157 OFFCURVE",
"512 17 OFFCURVE",
"340 17 CURVE SMOOTH"
);
},
{
closed = 1;
nodes = (
"209 786 LINE",
"218 823 OFFCURVE",
"240 846 OFFCURVE",
"271 846 CURVE SMOOTH",
"313 846 OFFCURVE",
"362 787 OFFCURVE",
"407 787 CURVE SMOOTH",
"453 787 OFFCURVE",
"481 824 OFFCURVE",
"490 882 CURVE",
"472 882 LINE",
"462 841 OFFCURVE",
"442 818 OFFCURVE",
"409 818 CURVE SMOOTH",
"368 818 OFFCURVE",
"321 876 OFFCURVE",
"273 876 CURVE SMOOTH",
"231 876 OFFCURVE",
"199 849 OFFCURVE",
"191 786 CURVE"
);
},
{
closed = 1;
nodes = (
"659 574 OFFCURVE",
"683 631 OFFCURVE",
"683 671 CURVE SMOOTH",
"683 704 OFFCURVE",
"672 732 OFFCURVE",
"634 732 CURVE SMOOTH",
"607 732 OFFCURVE",
"593 714 OFFCURVE",
"593 692 CURVE SMOOTH",
"593 668 OFFCURVE",
"609 655 OFFCURVE",
"629 655 CURVE SMOOTH",
"636 655 OFFCURVE",
"644 657 OFFCURVE",
"650 661 CURVE",
"648 616 OFFCURVE",
"618 577 OFFCURVE",
"587 555 CURVE",
"602 535 LINE"
);
}
);
width = 688;
}
);
leftKerningGroup = O;
note = Ohorntilde;
rightKerningGroup = O;
unicode = 1EE0;
},
{
glyphname = Ohungarumlaut;
lastChange = "2015-10-01 14:35:46 +0000";
layers = (
{
layerId = "047EFF1B-D2DC-4EF2-AB21-67EF4112B097";
name = Light;
paths = (
{
closed = 1;
nodes = (
"536 -10 OFFCURVE",
"642 127 OFFCURVE",
"642 350 CURVE SMOOTH",
"642 572 OFFCURVE",
"536 710 OFFCURVE",
"340 710 CURVE SMOOTH",
"144 710 OFFCURVE",
"39 572 OFFCURVE",
"39 350 CURVE SMOOTH",
"39 127 OFFCURVE",
"144 -10 OFFCURVE",
"340 -10 CURVE SMOOTH"
);
},
{
closed = 1;
nodes = (
"168 17 OFFCURVE",
"90 157 OFFCURVE",
"90 350 CURVE SMOOTH",
"90 542 OFFCURVE",
"168 683 OFFCURVE",
"340 683 CURVE SMOOTH",
"512 683 OFFCURVE",
"591 542 OFFCURVE",
"591 350 CURVE SMOOTH",
"591 157 OFFCURVE",
"512 17 OFFCURVE",
"340 17 CURVE SMOOTH"
);
},
{
closed = 1;
nodes = (
"355 862 LINE",
"370 870 OFFCURVE",
"377 880 OFFCURVE",
"377 891 CURVE SMOOTH",
"377 902 OFFCURVE",
"369 910 OFFCURVE",
"357 910 CURVE SMOOTH",
"343 910 OFFCURVE",
"332 901 OFFCURVE",
"325 894 CURVE",
"215 800 LINE",
"225 786 LINE"
);
},
{
closed = 1;
nodes = (
"539 862 LINE SMOOTH",
"553 870 OFFCURVE",
"560 880 OFFCURVE",
"560 891 CURVE SMOOTH",
"560 902 OFFCURVE",
"552 910 OFFCURVE",
"540 910 CURVE SMOOTH",
"527 910 OFFCURVE",
"515 901 OFFCURVE",
"508 894 CURVE",
"399 800 LINE",
"409 786 LINE"
);
}
);
width = 681;
}
);
leftKerningGroup = O;
note = Ohungarumlaut;
rightKerningGroup = O;
unicode = 0150;
},
{
glyphname = Omacron;
lastChange = "2015-10-01 14:35:46 +0000";
layers = (
{
layerId = "047EFF1B-D2DC-4EF2-AB21-67EF4112B097";
name = Light;
paths = (
{
closed = 1;
nodes = (
"536 -10 OFFCURVE",
"642 127 OFFCURVE",
"642 350 CURVE SMOOTH",
"642 572 OFFCURVE",
"536 710 OFFCURVE",
"340 710 CURVE SMOOTH",
"144 710 OFFCURVE",
"39 572 OFFCURVE",
"39 350 CURVE SMOOTH",
"39 127 OFFCURVE",
"144 -10 OFFCURVE",
"340 -10 CURVE SMOOTH"
);
},
{
closed = 1;
nodes = (
"168 17 OFFCURVE",
"90 157 OFFCURVE",
"90 350 CURVE SMOOTH",
"90 542 OFFCURVE",
"168 683 OFFCURVE",
"340 683 CURVE SMOOTH",
"512 683 OFFCURVE",
"591 542 OFFCURVE",
"591 350 CURVE SMOOTH",
"591 157 OFFCURVE",
"512 17 OFFCURVE",
"340 17 CURVE SMOOTH"
);
},
{
closed = 1;
nodes = (
"487 802 LINE",
"487 829 LINE",
"192 829 LINE",
"192 802 LINE"
);
}
);
width = 681;
}
);
leftKerningGroup = O;
note = Omacron;
rightKerningGroup = O;
unicode = 014C;
},
{
glyphname = Oslash;
lastChange = "2015-10-01 14:35:46 +0000";
layers = (
{
layerId = "047EFF1B-D2DC-4EF2-AB21-67EF4112B097";
name = Light;
paths = (
{
closed = 1;
nodes = (
"536 -10 OFFCURVE",
"642 127 OFFCURVE",
"642 350 CURVE SMOOTH",
"642 572 OFFCURVE",
"536 710 OFFCURVE",
"340 710 CURVE SMOOTH",
"144 710 OFFCURVE",
"39 572 OFFCURVE",
"39 350 CURVE SMOOTH",
"39 127 OFFCURVE",
"144 -10 OFFCURVE",
"340 -10 CURVE SMOOTH"
);
},
{
closed = 1;
nodes = (
"572 702 LINE",
"547 718 LINE",
"93 -10 LINE",
"117 -26 LINE"
);
},
{
closed = 1;
nodes = (
"168 17 OFFCURVE",
"90 157 OFFCURVE",
"90 350 CURVE SMOOTH",
"90 542 OFFCURVE",
"168 683 OFFCURVE",
"340 683 CURVE SMOOTH",
"512 683 OFFCURVE",
"591 542 OFFCURVE",
"591 350 CURVE SMOOTH",
"591 157 OFFCURVE",
"512 17 OFFCURVE",
"340 17 CURVE SMOOTH"
);
}
);
width = 681;
}
);
leftKerningGroup = O;
note = Oslash;
rightKerningGroup = O;
unicode = 00D8;
},
{
glyphname = Oslashacute;
lastChange = "2015-10-01 14:35:46 +0000";
layers = (
{
layerId = "047EFF1B-D2DC-4EF2-AB21-67EF4112B097";
name = Light;
paths = (
{
closed = 1;
nodes = (
"536 -10 OFFCURVE",
"642 127 OFFCURVE",
"642 350 CURVE SMOOTH",
"642 572 OFFCURVE",
"536 710 OFFCURVE",
"340 710 CURVE SMOOTH",
"144 710 OFFCURVE",
"39 572 OFFCURVE",
"39 350 CURVE SMOOTH",
"39 127 OFFCURVE",
"144 -10 OFFCURVE",
"340 -10 CURVE SMOOTH"
);
},
{
closed = 1;
nodes = (
"572 702 LINE",
"547 718 LINE",
"93 -10 LINE",
"117 -26 LINE"
);
},
{
closed = 1;
nodes = (
"168 17 OFFCURVE",
"90 157 OFFCURVE",
"90 350 CURVE SMOOTH",
"90 542 OFFCURVE",
"168 683 OFFCURVE",
"340 683 CURVE SMOOTH",
"512 683 OFFCURVE",
"591 542 OFFCURVE",
"591 350 CURVE SMOOTH",
"591 157 OFFCURVE",
"512 17 OFFCURVE",
"340 17 CURVE SMOOTH"
);
},
{
closed = 1;
nodes = (
"416 862 LINE",
"431 870 OFFCURVE",
"438 881 OFFCURVE",
"438 891 CURVE SMOOTH",
"438 902 OFFCURVE",
"430 910 OFFCURVE",
"418 910 CURVE SMOOTH",
"404 910 OFFCURVE",
"393 901 OFFCURVE",
"386 894 CURVE",
"276 801 LINE",
"286 786 LINE"
);
}
);
width = 681;
}
);
leftKerningGroup = O;
note = Oslashacute;
rightKerningGroup = O;
unicode = 01FE;
},
{
glyphname = Otilde;
lastChange = "2015-10-01 14:35:47 +0000";
layers = (
{
layerId = "047EFF1B-D2DC-4EF2-AB21-67EF4112B097";
name = Light;
paths = (
{
closed = 1;
nodes = (
"536 -10 OFFCURVE",
"642 127 OFFCURVE",
"642 350 CURVE SMOOTH",
"642 572 OFFCURVE",
"536 710 OFFCURVE",
"340 710 CURVE SMOOTH",
"144 710 OFFCURVE",
"39 572 OFFCURVE",
"39 350 CURVE SMOOTH",
"39 127 OFFCURVE",
"144 -10 OFFCURVE",
"340 -10 CURVE SMOOTH"
);
},
{
closed = 1;
nodes = (
"168 17 OFFCURVE",
"90 157 OFFCURVE",
"90 350 CURVE SMOOTH",
"90 542 OFFCURVE",
"168 683 OFFCURVE",
"340 683 CURVE SMOOTH",
"512 683 OFFCURVE",
"591 542 OFFCURVE",
"591 350 CURVE SMOOTH",
"591 157 OFFCURVE",
"512 17 OFFCURVE",
"340 17 CURVE SMOOTH"
);
},
{
closed = 1;
nodes = (
"208 786 LINE",
"217 823 OFFCURVE",
"239 846 OFFCURVE",
"270 846 CURVE SMOOTH",
"312 846 OFFCURVE",
"361 787 OFFCURVE",
"406 787 CURVE SMOOTH",
"452 787 OFFCURVE",
"480 824 OFFCURVE",
"489 882 CURVE",
"471 882 LINE",
"461 841 OFFCURVE",
"441 818 OFFCURVE",
"408 818 CURVE SMOOTH",
"367 818 OFFCURVE",
"320 876 OFFCURVE",
"272 876 CURVE SMOOTH",
"230 876 OFFCURVE",
"198 849 OFFCURVE",
"190 786 CURVE"
);
}
);
width = 681;
}
);
leftKerningGroup = O;
note = Otilde;
rightKerningGroup = O;
unicode = 00D5;
},
{
glyphname = OE;
lastChange = "2015-10-01 14:35:46 +0000";
layers = (
{
layerId = "047EFF1B-D2DC-4EF2-AB21-67EF4112B097";
name = Light;
paths = (
{
closed = 1;
nodes = (
"403 -10 OFFCURVE",
"458 6 OFFCURVE",
"502 38 CURVE",
"502 0 LINE",
"890 0 LINE",
"902 124 LINE",
"889 124 LINE",
"879 105 OFFCURVE",
"862 51 OFFCURVE",
"859 26 CURVE",
"552 26 LINE",
"552 346 LINE",
"784 346 LINE",
"786 328 OFFCURVE",
"792 288 OFFCURVE",
"800 265 CURVE",
"811 265 LINE",
"811 454 LINE",
"800 454 LINE",
"792 432 OFFCURVE",
"786 391 OFFCURVE",
"784 373 CURVE",
"552 373 LINE",
"552 673 LINE",
"858 673 LINE",
"860 649 OFFCURVE",
"868 594 OFFCURVE",
"877 575 CURVE",
"891 575 LINE",
"891 700 LINE",
"502 700 LINE",
"502 659 LINE",
"459 692 OFFCURVE",
"403 710 OFFCURVE",
"336 710 CURVE SMOOTH",
"139 710 OFFCURVE",
"39 566 OFFCURVE",
"39 350 CURVE SMOOTH",
"39 133 OFFCURVE",
"139 -10 OFFCURVE",
"336 -10 CURVE SMOOTH"
);
},
{
closed = 1;
nodes = (
"170 17 OFFCURVE",
"90 157 OFFCURVE",
"90 350 CURVE SMOOTH",
"90 542 OFFCURVE",
"170 683 OFFCURVE",
"340 683 CURVE SMOOTH",
"408 683 OFFCURVE",
"463 657 OFFCURVE",
"502 618 CURVE",
"502 80 LINE",
"462 40 OFFCURVE",
"408 17 OFFCURVE",
"340 17 CURVE SMOOTH"
);
}
);
width = 955;
}
);
note = OE;
unicode = 0152;
},
{
glyphname = P;
lastChange = "2015-10-01 14:35:46 +0000";
layers = (
{
layerId = "047EFF1B-D2DC-4EF2-AB21-67EF4112B097";
name = Light;
paths = (
{
closed = 1;
nodes = (
"258 0 LINE",
"258 7 LINE",
"234 15 OFFCURVE",
"205 20 OFFCURVE",
"177 24 CURVE",
"177 281 LINE",
"340 281 LINE SMOOTH",
"486 281 OFFCURVE",
"548 369 OFFCURVE",
"548 491 CURVE SMOOTH",
"548 616 OFFCURVE",
"488 700 OFFCURVE",
"332 700 CURVE SMOOTH",
"47 700 LINE",
"47 692 LINE",
"72 684 OFFCURVE",
"99 679 OFFCURVE",
"127 675 CURVE",
"127 24 LINE",
"101 21 OFFCURVE",
"70 15 OFFCURVE",
"45 7 CURVE",
"45 0 LINE"
);
},
{
closed = 1;
nodes = (
"177 673 LINE",
"334 673 LINE SMOOTH",
"450 673 OFFCURVE",
"499 597 OFFCURVE",
"499 491 CURVE SMOOTH",
"499 387 OFFCURVE",
"451 307 OFFCURVE",
"334 307 CURVE SMOOTH",
"177 307 LINE"
);
}
);
width = 585;
}
);
note = P;
unicode = 0050;
},
{
glyphname = Thorn;
lastChange = "2015-10-01 14:35:47 +0000";
layers = (
{
layerId = "047EFF1B-D2DC-4EF2-AB21-67EF4112B097";
name = Light;
paths = (
{
closed = 1;
nodes = (
"259 0 LINE",
"259 7 LINE",
"234 15 OFFCURVE",
"205 20 OFFCURVE",
"177 24 CURVE",
"177 134 LINE",
"341 134 LINE SMOOTH",
"487 134 OFFCURVE",
"549 223 OFFCURVE",
"549 345 CURVE SMOOTH",
"549 466 OFFCURVE",
"490 553 OFFCURVE",
"341 553 CURVE SMOOTH",
"177 553 LINE",
"177 700 LINE",
"48 700 LINE",
"48 692 LINE",
"73 684 OFFCURVE",
"99 679 OFFCURVE",
"128 675 CURVE",
"128 24 LINE",
"102 21 OFFCURVE",
"71 15 OFFCURVE",
"46 7 CURVE",
"46 0 LINE"
);
},
{
closed = 1;
nodes = (
"177 527 LINE",
"331 527 LINE SMOOTH",
"450 527 OFFCURVE",
"499 453 OFFCURVE",
"499 345 CURVE SMOOTH",
"499 240 OFFCURVE",
"452 161 OFFCURVE",
"335 161 CURVE SMOOTH",
"177 161 LINE"
);
}
);
width = 583;
}
);
note = Thorn;
unicode = 00DE;
},
{
glyphname = Q;
lastChange = "2015-10-01 14:35:46 +0000";
layers = (
{
layerId = "047EFF1B-D2DC-4EF2-AB21-67EF4112B097";
name = Light;
paths = (
{
closed = 1;
nodes = (
"536 -10 OFFCURVE",
"642 127 OFFCURVE",
"642 350 CURVE SMOOTH",
"642 572 OFFCURVE",
"536 710 OFFCURVE",
"340 710 CURVE SMOOTH",
"144 710 OFFCURVE",
"39 572 OFFCURVE",
"39 350 CURVE SMOOTH",
"39 127 OFFCURVE",
"144 -10 OFFCURVE",
"340 -10 CURVE SMOOTH"
);
},
{
closed = 1;
nodes = (
"559 -137 LINE",
"456 -128 OFFCURVE",
"392 -76 OFFCURVE",
"384 0 CURVE",
"336 0 LINE",
"348 -89 OFFCURVE",
"421 -148 OFFCURVE",
"559 -159 CURVE"
);
},
{
closed = 1;
nodes = (
"170 17 OFFCURVE",
"90 157 OFFCURVE",
"90 350 CURVE SMOOTH",
"90 542 OFFCURVE",
"170 683 OFFCURVE",
"340 683 CURVE SMOOTH",
"510 683 OFFCURVE",
"591 542 OFFCURVE",
"591 350 CURVE SMOOTH",
"591 157 OFFCURVE",
"510 17 OFFCURVE",
"340 17 CURVE SMOOTH"
);
}
);
width = 681;
}
);
leftKerningGroup = O;
note = Q;
rightKerningGroup = O;
unicode = 0051;
},
{
glyphname = R;
lastChange = "2015-10-01 14:35:46 +0000";
layers = (
{
layerId = "047EFF1B-D2DC-4EF2-AB21-67EF4112B097";
name = Light;
paths = (
{
closed = 1;
nodes = (
"259 0 LINE",
"259 7 LINE",
"235 15 OFFCURVE",
"206 20 OFFCURVE",
"178 24 CURVE",
"178 302 LINE",
"343 302 LINE SMOOTH",
"487 302 OFFCURVE",
"550 378 OFFCURVE",
"550 501 CURVE SMOOTH",
"550 622 OFFCURVE",
"493 700 OFFCURVE",
"343 700 CURVE SMOOTH",
"48 700 LINE",
"48 692 LINE",
"73 684 OFFCURVE",
"100 679 OFFCURVE",
"128 675 CURVE",
"128 24 LINE",
"103 21 OFFCURVE",
"71 15 OFFCURVE",
"46 7 CURVE",
"46 0 LINE"
);
},
{
closed = 1;
nodes = (
"603 0 LINE",
"603 8 LINE",
"587 15 OFFCURVE",
"554 20 OFFCURVE",
"532 24 CURVE",
"368 307 LINE",
"320 307 LINE",
"495 0 LINE"
);
},
{
closed = 1;
nodes = (
"178 673 LINE",
"335 673 LINE SMOOTH",
"452 673 OFFCURVE",
"501 607 OFFCURVE",
"501 501 CURVE SMOOTH",
"501 397 OFFCURVE",
"453 328 OFFCURVE",
"335 328 CURVE SMOOTH",
"178 328 LINE"
);
}
);
width = 633;
}
);
note = R;
rightKerningGroup = R;
unicode = 0052;
},
{
glyphname = Racute;
lastChange = "2015-10-01 14:35:46 +0000";
layers = (
{
layerId = "047EFF1B-D2DC-4EF2-AB21-67EF4112B097";
name = Light;
paths = (
{
closed = 1;
nodes = (
"259 0 LINE",
"259 7 LINE",
"235 15 OFFCURVE",
"206 20 OFFCURVE",
"178 24 CURVE",
"178 302 LINE",
"343 302 LINE SMOOTH",
"487 302 OFFCURVE",
"550 378 OFFCURVE",
"550 501 CURVE SMOOTH",
"550 622 OFFCURVE",
"493 700 OFFCURVE",
"343 700 CURVE SMOOTH",
"48 700 LINE",
"48 692 LINE",
"73 684 OFFCURVE",
"100 679 OFFCURVE",
"128 675 CURVE",
"128 24 LINE",
"103 21 OFFCURVE",
"71 15 OFFCURVE",
"46 7 CURVE",
"46 0 LINE"
);
},
{
closed = 1;
nodes = (
"603 0 LINE",
"603 8 LINE",
"587 15 OFFCURVE",
"554 20 OFFCURVE",
"532 24 CURVE",
"368 307 LINE",
"320 307 LINE",
"495 0 LINE"
);
},
{
closed = 1;
nodes = (
"178 673 LINE",
"335 673 LINE SMOOTH",
"452 673 OFFCURVE",
"501 607 OFFCURVE",
"501 501 CURVE SMOOTH",
"501 397 OFFCURVE",
"453 328 OFFCURVE",
"335 328 CURVE SMOOTH",
"178 328 LINE"
);
},
{
closed = 1;
nodes = (
"375 862 LINE",
"390 870 OFFCURVE",
"397 881 OFFCURVE",
"397 891 CURVE SMOOTH",
"397 902 OFFCURVE",
"389 910 OFFCURVE",
"377 910 CURVE SMOOTH",
"363 910 OFFCURVE",
"352 901 OFFCURVE",
"345 894 CURVE",
"235 801 LINE",
"245 786 LINE"
);
}
);
width = 633;
}
);
note = Racute;
rightKerningGroup = R;
unicode = 0154;
},
{
glyphname = Rcaron;
lastChange = "2015-10-01 14:35:46 +0000";
layers = (
{
layerId = "047EFF1B-D2DC-4EF2-AB21-67EF4112B097";
name = Light;
paths = (
{
closed = 1;
nodes = (
"259 0 LINE",
"259 7 LINE",
"235 15 OFFCURVE",
"206 20 OFFCURVE",
"178 24 CURVE",
"178 302 LINE",
"343 302 LINE SMOOTH",
"487 302 OFFCURVE",
"550 378 OFFCURVE",
"550 501 CURVE SMOOTH",
"550 622 OFFCURVE",
"493 700 OFFCURVE",
"343 700 CURVE SMOOTH",
"48 700 LINE",
"48 692 LINE",
"73 684 OFFCURVE",
"100 679 OFFCURVE",
"128 675 CURVE",
"128 24 LINE",
"103 21 OFFCURVE",
"71 15 OFFCURVE",
"46 7 CURVE",
"46 0 LINE"
);
},
{
closed = 1;
nodes = (
"603 0 LINE",
"603 8 LINE",
"587 15 OFFCURVE",
"554 20 OFFCURVE",
"532 24 CURVE",
"368 307 LINE",
"320 307 LINE",
"495 0 LINE"
);
},
{
closed = 1;
nodes = (
"178 673 LINE",
"335 673 LINE SMOOTH",
"452 673 OFFCURVE",
"501 607 OFFCURVE",
"501 501 CURVE SMOOTH",
"501 397 OFFCURVE",
"453 328 OFFCURVE",
"335 328 CURVE SMOOTH",
"178 328 LINE"
);
},
{
closed = 1;
nodes = (
"326 786 LINE",
"359 831 OFFCURVE",
"404 870 OFFCURVE",
"441 896 CURVE",
"420 919 LINE",
"385 893 OFFCURVE",
"345 858 OFFCURVE",
"317 823 CURVE",
"312 823 LINE",
"284 858 OFFCURVE",
"244 893 OFFCURVE",
"209 919 CURVE",
"188 896 LINE",
"225 870 OFFCURVE",
"270 831 OFFCURVE",
"303 786 CURVE"
);
}
);
width = 633;
}
);
note = Rcaron;
rightKerningGroup = R;
unicode = 0158;
},
{
glyphname = Rcommaaccent;
lastChange = "2015-10-01 14:35:46 +0000";
layers = (
{
layerId = "047EFF1B-D2DC-4EF2-AB21-67EF4112B097";
name = Light;
paths = (
{
closed = 1;
nodes = (
"259 0 LINE",
"259 7 LINE",
"235 15 OFFCURVE",
"206 20 OFFCURVE",
"178 24 CURVE",
"178 302 LINE",
"343 302 LINE SMOOTH",
"487 302 OFFCURVE",
"550 378 OFFCURVE",
"550 501 CURVE SMOOTH",
"550 622 OFFCURVE",
"493 700 OFFCURVE",
"343 700 CURVE SMOOTH",
"48 700 LINE",
"48 692 LINE",
"73 684 OFFCURVE",
"100 679 OFFCURVE",
"128 675 CURVE",
"128 24 LINE",
"103 21 OFFCURVE",
"71 15 OFFCURVE",
"46 7 CURVE",
"46 0 LINE"
);
},
{
closed = 1;
nodes = (
"359 -225 OFFCURVE",
"380 -160 OFFCURVE",
"380 -119 CURVE SMOOTH",
"380 -85 OFFCURVE",
"366 -61 OFFCURVE",
"331 -61 CURVE SMOOTH",
"311 -61 OFFCURVE",
"292 -72 OFFCURVE",
"292 -98 CURVE SMOOTH",
"292 -119 OFFCURVE",
"307 -135 OFFCURVE",
"326 -135 CURVE SMOOTH",
"331 -135 OFFCURVE",
"338 -134 OFFCURVE",
"343 -132 CURVE",
"341 -147 LINE",
"338 -180 OFFCURVE",
"325 -216 OFFCURVE",
"305 -241 CURVE",
"326 -258 LINE"
);
},
{
closed = 1;
nodes = (
"603 0 LINE",
"603 8 LINE",
"587 15 OFFCURVE",
"554 20 OFFCURVE",
"532 24 CURVE",
"368 307 LINE",
"320 307 LINE",
"495 0 LINE"
);
},
{
closed = 1;
nodes = (
"178 673 LINE",
"335 673 LINE SMOOTH",
"452 673 OFFCURVE",
"501 607 OFFCURVE",
"501 501 CURVE SMOOTH",
"501 397 OFFCURVE",
"453 328 OFFCURVE",
"335 328 CURVE SMOOTH",
"178 328 LINE"
);
}
);
width = 633;
}
);
note = Rcommaaccent;
rightKerningGroup = R;
unicode = 0156;
},
{
glyphname = Rdotbelow;
lastChange = "2015-10-01 14:35:46 +0000";
layers = (
{
layerId = "047EFF1B-D2DC-4EF2-AB21-67EF4112B097";
name = Light;
paths = (
{
closed = 1;
nodes = (
"259 0 LINE",
"259 7 LINE",
"235 15 OFFCURVE",
"206 20 OFFCURVE",
"178 24 CURVE",
"178 302 LINE",
"343 302 LINE SMOOTH",
"487 302 OFFCURVE",
"550 378 OFFCURVE",
"550 501 CURVE SMOOTH",
"550 622 OFFCURVE",
"493 700 OFFCURVE",
"343 700 CURVE SMOOTH",
"48 700 LINE",
"48 692 LINE",
"73 684 OFFCURVE",
"100 679 OFFCURVE",
"128 675 CURVE",
"128 24 LINE",
"103 21 OFFCURVE",
"71 15 OFFCURVE",
"46 7 CURVE",
"46 0 LINE"
);
},
{
closed = 1;
nodes = (
"352 -133 OFFCURVE",
"366 -120 OFFCURVE",
"366 -98 CURVE SMOOTH",
"366 -76 OFFCURVE",
"352 -63 OFFCURVE",
"333 -63 CURVE SMOOTH",
"313 -63 OFFCURVE",
"299 -76 OFFCURVE",
"299 -98 CURVE SMOOTH",
"299 -120 OFFCURVE",
"313 -133 OFFCURVE",
"333 -133 CURVE SMOOTH"
);
},
{
closed = 1;
nodes = (
"603 0 LINE",
"603 8 LINE",
"587 15 OFFCURVE",
"554 20 OFFCURVE",
"532 24 CURVE",
"368 307 LINE",
"320 307 LINE",
"495 0 LINE"
);
},
{
closed = 1;
nodes = (
"178 673 LINE",
"335 673 LINE SMOOTH",
"452 673 OFFCURVE",
"501 607 OFFCURVE",
"501 501 CURVE SMOOTH",
"501 397 OFFCURVE",
"453 328 OFFCURVE",
"335 328 CURVE SMOOTH",
"178 328 LINE"
);
}
);
width = 633;
}
);
note = Rdotbelow;
rightKerningGroup = R;
unicode = 1E5A;
},
{
glyphname = Rdotbelowmacron;
lastChange = "2015-10-01 14:35:46 +0000";
layers = (
{
layerId = "047EFF1B-D2DC-4EF2-AB21-67EF4112B097";
name = Light;
paths = (
{
closed = 1;
nodes = (
"259 0 LINE",
"259 7 LINE",
"235 15 OFFCURVE",
"206 20 OFFCURVE",
"178 24 CURVE",
"178 302 LINE",
"343 302 LINE SMOOTH",
"487 302 OFFCURVE",
"550 378 OFFCURVE",
"550 501 CURVE SMOOTH",
"550 622 OFFCURVE",
"493 700 OFFCURVE",
"343 700 CURVE SMOOTH",
"48 700 LINE",
"48 692 LINE",
"73 684 OFFCURVE",
"100 679 OFFCURVE",
"128 675 CURVE",
"128 24 LINE",
"103 21 OFFCURVE",
"71 15 OFFCURVE",
"46 7 CURVE",
"46 0 LINE"
);
},
{
closed = 1;
nodes = (
"353 -133 OFFCURVE",
"367 -120 OFFCURVE",
"367 -98 CURVE SMOOTH",
"367 -76 OFFCURVE",
"353 -63 OFFCURVE",
"333 -63 CURVE SMOOTH",
"313 -63 OFFCURVE",
"299 -76 OFFCURVE",
"299 -98 CURVE SMOOTH",
"299 -120 OFFCURVE",
"313 -133 OFFCURVE",
"333 -133 CURVE SMOOTH"
);
},
{
closed = 1;
nodes = (
"603 0 LINE",
"603 8 LINE",
"587 15 OFFCURVE",
"554 20 OFFCURVE",
"532 24 CURVE",
"368 307 LINE",
"320 307 LINE",
"495 0 LINE"
);
},
{
closed = 1;
nodes = (
"178 673 LINE",
"335 673 LINE SMOOTH",
"452 673 OFFCURVE",
"501 607 OFFCURVE",
"501 501 CURVE SMOOTH",
"501 397 OFFCURVE",
"453 328 OFFCURVE",
"335 328 CURVE SMOOTH",
"178 328 LINE"
);
},
{
closed = 1;
nodes = (
"436 785 LINE",
"436 811 LINE",
"134 811 LINE",
"134 785 LINE"
);
}
);
width = 633;
}
);
note = Rdotbelowmacron;
rightKerningGroup = R;
unicode = 1E5C;
},
{
glyphname = Rlinebelow;
lastChange = "2015-10-01 14:35:46 +0000";
layers = (
{
layerId = "047EFF1B-D2DC-4EF2-AB21-67EF4112B097";
name = Light;
paths = (
{
closed = 1;
nodes = (
"259 0 LINE",
"259 7 LINE",
"235 15 OFFCURVE",
"206 20 OFFCURVE",
"178 24 CURVE",
"178 302 LINE",
"343 302 LINE SMOOTH",
"487 302 OFFCURVE",
"550 378 OFFCURVE",
"550 501 CURVE SMOOTH",
"550 622 OFFCURVE",
"493 700 OFFCURVE",
"343 700 CURVE SMOOTH",
"48 700 LINE",
"48 692 LINE",
"73 684 OFFCURVE",
"100 679 OFFCURVE",
"128 675 CURVE",
"128 24 LINE",
"103 21 OFFCURVE",
"71 15 OFFCURVE",
"46 7 CURVE",
"46 0 LINE"
);
},
{
closed = 1;
nodes = (
"473 -100 LINE",
"473 -74 LINE",
"178 -74 LINE",
"178 -100 LINE"
);
},
{
closed = 1;
nodes = (
"603 0 LINE",
"603 8 LINE",
"587 15 OFFCURVE",
"554 20 OFFCURVE",
"532 24 CURVE",
"368 307 LINE",
"320 307 LINE",
"495 0 LINE"
);
},
{
closed = 1;
nodes = (
"178 673 LINE",
"335 673 LINE SMOOTH",
"452 673 OFFCURVE",
"501 607 OFFCURVE",
"501 501 CURVE SMOOTH",
"501 397 OFFCURVE",
"453 328 OFFCURVE",
"335 328 CURVE SMOOTH",
"178 328 LINE"
);
}
);
width = 633;
}
);
note = Rlinebelow;
rightKerningGroup = R;
unicode = 1E5E;
},
{
glyphname = S;
lastChange = "2015-10-01 14:35:45 +0000";
layers = (
{
layerId = "047EFF1B-D2DC-4EF2-AB21-67EF4112B097";
name = Light;
paths = (
{
closed = 1;
nodes = (
"380 -10 OFFCURVE",
"473 63 OFFCURVE",
"473 176 CURVE",
"472 412 OFFCURVE",
"98 382 OFFCURVE",
"98 557 CURVE SMOOTH",
"98 633 OFFCURVE",
"151 683 OFFCURVE",
"276 683 CURVE SMOOTH",
"335 683 OFFCURVE",
"380 665 OFFCURVE",
"411 635 CURVE",
"413 607 OFFCURVE",
"419 555 OFFCURVE",
"427 535 CURVE",
"441 535 LINE",
"448 640 LINE",
"407 686 OFFCURVE",
"345 710 OFFCURVE",
"261 710 CURVE SMOOTH",
"133 710 OFFCURVE",
"48 658 OFFCURVE",
"48 553 CURVE SMOOTH",
"48 343 OFFCURVE",
"423 383 OFFCURVE",
"423 168 CURVE SMOOTH",
"423 70 OFFCURVE",
"335 17 OFFCURVE",
"243 17 CURVE SMOOTH",
"161 17 OFFCURVE",
"104 50 OFFCURVE",
"71 93 CURVE",
"69 119 OFFCURVE",
"63 189 OFFCURVE",
"55 210 CURVE",
"41 210 LINE",
"34 80 LINE",
"74 32 OFFCURVE",
"149 -10 OFFCURVE",
"254 -10 CURVE SMOOTH"
);
}
);
width = 508;
}
);
leftKerningGroup = S;
note = S;
rightKerningGroup = S;
unicode = 0053;
},
{
glyphname = Sacute;
lastChange = "2015-10-01 14:35:46 +0000";
layers = (
{
layerId = "047EFF1B-D2DC-4EF2-AB21-67EF4112B097";
name = Light;
paths = (
{
closed = 1;
nodes = (
"380 -10 OFFCURVE",
"473 63 OFFCURVE",
"473 176 CURVE",
"472 412 OFFCURVE",
"98 382 OFFCURVE",
"98 557 CURVE SMOOTH",
"98 633 OFFCURVE",
"151 683 OFFCURVE",
"276 683 CURVE SMOOTH",
"335 683 OFFCURVE",
"380 665 OFFCURVE",
"411 635 CURVE",
"413 607 OFFCURVE",
"419 555 OFFCURVE",
"427 535 CURVE",
"441 535 LINE",
"448 640 LINE",
"407 686 OFFCURVE",
"345 710 OFFCURVE",
"261 710 CURVE SMOOTH",
"133 710 OFFCURVE",
"48 658 OFFCURVE",
"48 553 CURVE SMOOTH",
"48 343 OFFCURVE",
"423 383 OFFCURVE",
"423 168 CURVE SMOOTH",
"423 70 OFFCURVE",
"335 17 OFFCURVE",
"243 17 CURVE SMOOTH",
"161 17 OFFCURVE",
"104 50 OFFCURVE",
"71 93 CURVE",
"69 119 OFFCURVE",
"63 189 OFFCURVE",
"55 210 CURVE",
"41 210 LINE",
"34 80 LINE",
"74 32 OFFCURVE",
"149 -10 OFFCURVE",
"254 -10 CURVE SMOOTH"
);
},
{
closed = 1;
nodes = (
"342 862 LINE",
"357 870 OFFCURVE",
"364 881 OFFCURVE",
"364 891 CURVE SMOOTH",
"364 902 OFFCURVE",
"356 910 OFFCURVE",
"344 910 CURVE SMOOTH",
"330 910 OFFCURVE",
"319 901 OFFCURVE",
"312 894 CURVE",
"202 801 LINE",
"212 786 LINE"
);
}
);
width = 508;
}
);
leftKerningGroup = S;
note = Sacute;
rightKerningGroup = S;
unicode = 015A;
},
{
glyphname = Scaron;
lastChange = "2015-10-01 14:35:46 +0000";
layers = (
{
layerId = "047EFF1B-D2DC-4EF2-AB21-67EF4112B097";
name = Light;
paths = (
{
closed = 1;
nodes = (
"380 -10 OFFCURVE",
"473 63 OFFCURVE",
"473 176 CURVE",
"472 412 OFFCURVE",
"98 382 OFFCURVE",
"98 557 CURVE SMOOTH",
"98 633 OFFCURVE",
"151 683 OFFCURVE",
"276 683 CURVE SMOOTH",
"335 683 OFFCURVE",
"380 665 OFFCURVE",
"411 635 CURVE",
"413 607 OFFCURVE",
"419 555 OFFCURVE",
"427 535 CURVE",
"441 535 LINE",
"448 640 LINE",
"407 686 OFFCURVE",
"345 710 OFFCURVE",
"261 710 CURVE SMOOTH",
"133 710 OFFCURVE",
"48 658 OFFCURVE",
"48 553 CURVE SMOOTH",
"48 343 OFFCURVE",
"423 383 OFFCURVE",
"423 168 CURVE SMOOTH",
"423 70 OFFCURVE",
"335 17 OFFCURVE",
"243 17 CURVE SMOOTH",
"161 17 OFFCURVE",
"104 50 OFFCURVE",
"71 93 CURVE",
"69 119 OFFCURVE",
"63 189 OFFCURVE",
"55 210 CURVE",
"41 210 LINE",
"34 80 LINE",
"74 32 OFFCURVE",
"149 -10 OFFCURVE",
"254 -10 CURVE SMOOTH"
);
},
{
closed = 1;
nodes = (
"265 786 LINE",
"298 831 OFFCURVE",
"343 870 OFFCURVE",
"380 896 CURVE",
"359 919 LINE",
"324 893 OFFCURVE",
"284 858 OFFCURVE",
"256 823 CURVE",
"251 823 LINE",
"223 858 OFFCURVE",
"183 893 OFFCURVE",
"148 919 CURVE",
"127 896 LINE",
"164 870 OFFCURVE",
"209 831 OFFCURVE",
"242 786 CURVE"
);
}
);
width = 508;
}
);
leftKerningGroup = S;
note = Scaron;
rightKerningGroup = S;
unicode = 0160;
},
{
glyphname = Scedilla;
lastChange = "2015-10-01 14:35:46 +0000";
layers = (
{
layerId = "047EFF1B-D2DC-4EF2-AB21-67EF4112B097";
name = Light;
paths = (
{
closed = 1;
nodes = (
"380 -10 OFFCURVE",
"473 63 OFFCURVE",
"473 176 CURVE",
"472 412 OFFCURVE",
"98 382 OFFCURVE",
"98 557 CURVE SMOOTH",
"98 633 OFFCURVE",
"151 683 OFFCURVE",
"276 683 CURVE SMOOTH",
"335 683 OFFCURVE",
"380 665 OFFCURVE",
"411 635 CURVE",
"413 607 OFFCURVE",
"419 555 OFFCURVE",
"427 535 CURVE",
"441 535 LINE",
"448 640 LINE",
"407 686 OFFCURVE",
"345 710 OFFCURVE",
"261 710 CURVE SMOOTH",
"133 710 OFFCURVE",
"48 658 OFFCURVE",
"48 553 CURVE SMOOTH",
"48 343 OFFCURVE",
"423 383 OFFCURVE",
"423 168 CURVE SMOOTH",
"423 70 OFFCURVE",
"335 17 OFFCURVE",
"243 17 CURVE SMOOTH",
"161 17 OFFCURVE",
"104 50 OFFCURVE",
"71 93 CURVE",
"69 119 OFFCURVE",
"63 189 OFFCURVE",
"55 210 CURVE",
"41 210 LINE",
"34 80 LINE",
"74 32 OFFCURVE",
"149 -10 OFFCURVE",
"254 -10 CURVE SMOOTH"
);
},
{
closed = 1;
nodes = (
"293 -197 OFFCURVE",
"338 -173 OFFCURVE",
"338 -123 CURVE SMOOTH",
"338 -84 OFFCURVE",
"302 -67 OFFCURVE",
"257 -67 CURVE SMOOTH",
"251 -67 OFFCURVE",
"245 -67 OFFCURVE",
"240 -68 CURVE",
"272 4 LINE",
"241 4 LINE",
"206 -67 LINE",
"226 -92 LINE",
"233 -91 OFFCURVE",
"242 -90 OFFCURVE",
"251 -90 CURVE SMOOTH",
"276 -90 OFFCURVE",
"304 -98 OFFCURVE",
"304 -122 CURVE SMOOTH",
"304 -157 OFFCURVE",
"276 -172 OFFCURVE",
"234 -172 CURVE SMOOTH",
"218 -172 OFFCURVE",
"199 -170 OFFCURVE",
"181 -166 CURVE",
"170 -187 LINE",
"190 -194 OFFCURVE",
"213 -197 OFFCURVE",
"234 -197 CURVE SMOOTH"
);
}
);
width = 508;
}
);
leftKerningGroup = S;
note = Scedilla;
rightKerningGroup = S;
unicode = 015E;
},
{
glyphname = Scircumflex;
lastChange = "2015-10-01 14:35:46 +0000";
layers = (
{
layerId = "047EFF1B-D2DC-4EF2-AB21-67EF4112B097";
name = Light;
paths = (
{
closed = 1;
nodes = (
"380 -10 OFFCURVE",
"473 63 OFFCURVE",
"473 176 CURVE",
"472 412 OFFCURVE",
"98 382 OFFCURVE",
"98 557 CURVE SMOOTH",
"98 633 OFFCURVE",
"151 683 OFFCURVE",
"276 683 CURVE SMOOTH",
"335 683 OFFCURVE",
"380 665 OFFCURVE",
"411 635 CURVE",
"413 607 OFFCURVE",
"419 555 OFFCURVE",
"427 535 CURVE",
"441 535 LINE",
"448 640 LINE",
"407 686 OFFCURVE",
"345 710 OFFCURVE",
"261 710 CURVE SMOOTH",
"133 710 OFFCURVE",
"48 658 OFFCURVE",
"48 553 CURVE SMOOTH",
"48 343 OFFCURVE",
"423 383 OFFCURVE",
"423 168 CURVE SMOOTH",
"423 70 OFFCURVE",
"335 17 OFFCURVE",
"243 17 CURVE SMOOTH",
"161 17 OFFCURVE",
"104 50 OFFCURVE",
"71 93 CURVE",
"69 119 OFFCURVE",
"63 189 OFFCURVE",
"55 210 CURVE",
"41 210 LINE",
"34 80 LINE",
"74 32 OFFCURVE",
"149 -10 OFFCURVE",
"254 -10 CURVE SMOOTH"
);
},
{
closed = 1;
nodes = (
"183 803 OFFCURVE",
"223 838 OFFCURVE",
"251 873 CURVE",
"256 873 LINE",
"284 838 OFFCURVE",
"324 803 OFFCURVE",
"359 778 CURVE",
"380 800 LINE",
"343 827 OFFCURVE",
"298 866 OFFCURVE",
"265 910 CURVE",
"242 910 LINE",
"209 866 OFFCURVE",
"164 827 OFFCURVE",
"127 800 CURVE",
"148 778 LINE"
);
}
);
width = 508;
}
);
leftKerningGroup = S;
note = Scircumflex;
rightKerningGroup = S;
unicode = 015C;
},
{
glyphname = Scommaaccent;
lastChange = "2015-10-01 14:35:46 +0000";
layers = (
{
layerId = "047EFF1B-D2DC-4EF2-AB21-67EF4112B097";
name = Light;
paths = (
{
closed = 1;
nodes = (
"380 -10 OFFCURVE",
"473 63 OFFCURVE",
"473 176 CURVE",
"472 412 OFFCURVE",
"98 382 OFFCURVE",
"98 557 CURVE SMOOTH",
"98 633 OFFCURVE",
"151 683 OFFCURVE",
"276 683 CURVE SMOOTH",
"335 683 OFFCURVE",
"380 665 OFFCURVE",
"411 635 CURVE",
"413 607 OFFCURVE",
"419 555 OFFCURVE",
"427 535 CURVE",
"441 535 LINE",
"448 640 LINE",
"407 686 OFFCURVE",
"345 710 OFFCURVE",
"261 710 CURVE SMOOTH",
"133 710 OFFCURVE",
"48 658 OFFCURVE",
"48 553 CURVE SMOOTH",
"48 343 OFFCURVE",
"423 383 OFFCURVE",
"423 168 CURVE SMOOTH",
"423 70 OFFCURVE",
"335 17 OFFCURVE",
"243 17 CURVE SMOOTH",
"161 17 OFFCURVE",
"104 50 OFFCURVE",
"71 93 CURVE",
"69 119 OFFCURVE",
"63 189 OFFCURVE",
"55 210 CURVE",
"41 210 LINE",
"34 80 LINE",
"74 32 OFFCURVE",
"149 -10 OFFCURVE",
"254 -10 CURVE SMOOTH"
);
},
{
closed = 1;
nodes = (
"277 -224 OFFCURVE",
"301 -158 OFFCURVE",
"301 -117 CURVE SMOOTH",
"301 -83 OFFCURVE",
"284 -56 OFFCURVE",
"249 -56 CURVE SMOOTH",
"226 -56 OFFCURVE",
"207 -73 OFFCURVE",
"207 -97 CURVE SMOOTH",
"207 -120 OFFCURVE",
"224 -135 OFFCURVE",
"243 -135 CURVE SMOOTH",
"248 -135 OFFCURVE",
"255 -135 OFFCURVE",
"260 -132 CURVE",
"259 -147 LINE SMOOTH",
"256 -181 OFFCURVE",
"241 -214 OFFCURVE",
"221 -239 CURVE",
"244 -256 LINE"
);
}
);
width = 508;
}
);
leftKerningGroup = S;
note = Scommaaccent;
rightKerningGroup = S;
unicode = 0218;
},
{
glyphname = Sdotaccent;
lastChange = "2015-10-01 14:35:46 +0000";
layers = (
{
layerId = "047EFF1B-D2DC-4EF2-AB21-67EF4112B097";
name = Light;
paths = (
{
closed = 1;
nodes = (
"380 -10 OFFCURVE",
"473 63 OFFCURVE",
"473 176 CURVE",
"472 412 OFFCURVE",
"98 382 OFFCURVE",
"98 557 CURVE SMOOTH",
"98 633 OFFCURVE",
"151 683 OFFCURVE",
"276 683 CURVE SMOOTH",
"335 683 OFFCURVE",
"380 665 OFFCURVE",
"411 635 CURVE",
"413 607 OFFCURVE",
"419 555 OFFCURVE",
"427 535 CURVE",
"441 535 LINE",
"448 640 LINE",
"407 686 OFFCURVE",
"345 710 OFFCURVE",
"261 710 CURVE SMOOTH",
"133 710 OFFCURVE",
"48 658 OFFCURVE",
"48 553 CURVE SMOOTH",
"48 343 OFFCURVE",
"423 383 OFFCURVE",
"423 168 CURVE SMOOTH",
"423 70 OFFCURVE",
"335 17 OFFCURVE",
"243 17 CURVE SMOOTH",
"161 17 OFFCURVE",
"104 50 OFFCURVE",
"71 93 CURVE",
"69 119 OFFCURVE",
"63 189 OFFCURVE",
"55 210 CURVE",
"41 210 LINE",
"34 80 LINE",
"74 32 OFFCURVE",
"149 -10 OFFCURVE",
"254 -10 CURVE SMOOTH"
);
},
{
closed = 1;
nodes = (
"279 785 OFFCURVE",
"293 798 OFFCURVE",
"293 820 CURVE SMOOTH",
"293 842 OFFCURVE",
"279 855 OFFCURVE",
"260 855 CURVE SMOOTH",
"240 855 OFFCURVE",
"226 842 OFFCURVE",
"226 820 CURVE SMOOTH",
"226 798 OFFCURVE",
"240 785 OFFCURVE",
"260 785 CURVE SMOOTH"
);
}
);
width = 508;
}
);
leftKerningGroup = S;
note = Sdotaccent;
rightKerningGroup = S;
unicode = 1E60;
},
{
glyphname = Sdotbelow;
lastChange = "2015-10-01 14:35:46 +0000";
layers = (
{
layerId = "047EFF1B-D2DC-4EF2-AB21-67EF4112B097";
name = Light;
paths = (
{
closed = 1;
nodes = (
"380 -10 OFFCURVE",
"473 63 OFFCURVE",
"473 176 CURVE",
"472 412 OFFCURVE",
"98 382 OFFCURVE",
"98 557 CURVE SMOOTH",
"98 633 OFFCURVE",
"151 683 OFFCURVE",
"276 683 CURVE SMOOTH",
"335 683 OFFCURVE",
"380 665 OFFCURVE",
"411 635 CURVE",
"413 607 OFFCURVE",
"419 555 OFFCURVE",
"427 535 CURVE",
"441 535 LINE",
"448 640 LINE",
"407 686 OFFCURVE",
"345 710 OFFCURVE",
"261 710 CURVE SMOOTH",
"133 710 OFFCURVE",
"48 658 OFFCURVE",
"48 553 CURVE SMOOTH",
"48 343 OFFCURVE",
"423 383 OFFCURVE",
"423 168 CURVE SMOOTH",
"423 70 OFFCURVE",
"335 17 OFFCURVE",
"243 17 CURVE SMOOTH",
"161 17 OFFCURVE",
"104 50 OFFCURVE",
"71 93 CURVE",
"69 119 OFFCURVE",
"63 189 OFFCURVE",
"55 210 CURVE",
"41 210 LINE",
"34 80 LINE",
"74 32 OFFCURVE",
"149 -10 OFFCURVE",
"254 -10 CURVE SMOOTH"
);
},
{
closed = 1;
nodes = (
"264 -133 OFFCURVE",
"278 -120 OFFCURVE",
"278 -98 CURVE SMOOTH",
"278 -76 OFFCURVE",
"264 -63 OFFCURVE",
"245 -63 CURVE SMOOTH",
"225 -63 OFFCURVE",
"211 -76 OFFCURVE",
"211 -98 CURVE SMOOTH",
"211 -120 OFFCURVE",
"225 -133 OFFCURVE",
"245 -133 CURVE SMOOTH"
);
}
);
width = 508;
}
);
leftKerningGroup = S;
note = Sdotbelow;
rightKerningGroup = S;
unicode = 1E62;
},
{
glyphname = Germandbls;
lastChange = "2015-10-01 14:35:46 +0000";
layers = (
{
layerId = "047EFF1B-D2DC-4EF2-AB21-67EF4112B097";
name = Light;
paths = (
{
closed = 1;
nodes = (
"564 -10 OFFCURVE",
"633 87 OFFCURVE",
"633 201 CURVE SMOOTH",
"633 315 OFFCURVE",
"546 389 OFFCURVE",
"397 395 CURVE",
"549 555 LINE",
"527 628 OFFCURVE",
"454 710 OFFCURVE",
"331 710 CURVE SMOOTH",
"166 710 OFFCURVE",
"86 611 OFFCURVE",
"86 462 CURVE SMOOTH",
"86 24 LINE",
"57 20 OFFCURVE",
"28 15 OFFCURVE",
"4 7 CURVE",
"4 0 LINE",
"206 0 LINE",
"206 6 LINE",
"187 13 OFFCURVE",
"162 20 OFFCURVE",
"135 24 CURVE",
"135 477 LINE SMOOTH",
"135 601 OFFCURVE",
"203 683 OFFCURVE",
"326 683 CURVE SMOOTH",
"419 683 OFFCURVE",
"484 630 OFFCURVE",
"510 566 CURVE",
"344 391 LINE",
"344 368 LINE",
"384 368 LINE SMOOTH",
"517 368 OFFCURVE",
"584 299 OFFCURVE",
"584 201 CURVE SMOOTH",
"584 92 OFFCURVE",
"517 16 OFFCURVE",
"397 16 CURVE SMOOTH",
"345 16 OFFCURVE",
"287 26 OFFCURVE",
"236 49 CURVE",
"236 20 LINE",
"280 0 OFFCURVE",
"336 -10 OFFCURVE",
"401 -10 CURVE SMOOTH"
);
}
);
width = 663;
}
);
note = uni1E9E;
unicode = 1E9E;
},
{
glyphname = Schwa;
lastChange = "2015-10-01 14:35:46 +0000";
layers = (
{
layerId = "047EFF1B-D2DC-4EF2-AB21-67EF4112B097";
name = Light;
paths = (
{
closed = 1;
nodes = (
"513 -10 OFFCURVE",
"640 111 OFFCURVE",
"640 344 CURVE SMOOTH",
"640 559 OFFCURVE",
"500 710 OFFCURVE",
"294 710 CURVE SMOOTH",
"186 710 OFFCURVE",
"110 676 OFFCURVE",
"67 641 CURVE",
"70 633 OFFCURVE",
"70 630 OFFCURVE",
"73 620 CURVE",
"129 658 OFFCURVE",
"200 680 OFFCURVE",
"279 680 CURVE SMOOTH",
"486 680 OFFCURVE",
"591 519 OFFCURVE",
"591 333 CURVE SMOOTH",
"591 167 OFFCURVE",
"511 16 OFFCURVE",
"313 16 CURVE SMOOTH",
"144 16 OFFCURVE",
"84 169 OFFCURVE",
"84 304 CURVE",
"598 304 LINE",
"598 333 LINE",
"38 333 LINE",
"38 311 LINE SMOOTH",
"38 138 OFFCURVE",
"123 -10 OFFCURVE",
"318 -10 CURVE SMOOTH"
);
}
);
width = 679;
}
);
note = uni018F;
unicode = 018F;
},
{
glyphname = T;
lastChange = "2015-10-01 14:35:45 +0000";
layers = (
{
layerId = "047EFF1B-D2DC-4EF2-AB21-67EF4112B097";
name = Light;
paths = (
{
closed = 1;
nodes = (
"414 0 LINE",
"414 7 LINE",
"389 15 OFFCURVE",
"359 20 OFFCURVE",
"331 24 CURVE",
"331 673 LINE",
"534 673 LINE",
"536 649 OFFCURVE",
"544 590 OFFCURVE",
"553 571 CURVE",
"566 571 LINE",
"566 700 LINE",
"46 700 LINE",
"46 571 LINE",
"59 571 LINE",
"68 590 OFFCURVE",
"76 649 OFFCURVE",
"78 673 CURVE",
"281 673 LINE",
"281 24 LINE",
"252 20 OFFCURVE",
"223 15 OFFCURVE",
"198 7 CURVE",
"198 0 LINE"
);
}
);
width = 613;
}
);
leftKerningGroup = T;
note = T;
rightKerningGroup = T;
unicode = 0054;
},
{
glyphname = Tbar;
lastChange = "2015-10-01 14:35:46 +0000";
layers = (
{
layerId = "047EFF1B-D2DC-4EF2-AB21-67EF4112B097";
name = Light;
paths = (
{
closed = 1;
nodes = (
"414 0 LINE",
"414 7 LINE",
"389 15 OFFCURVE",
"359 20 OFFCURVE",
"331 24 CURVE",
"331 673 LINE",
"534 673 LINE",
"536 649 OFFCURVE",
"544 590 OFFCURVE",
"553 571 CURVE",
"566 571 LINE",
"566 700 LINE",
"46 700 LINE",
"46 571 LINE",
"59 571 LINE",
"68 590 OFFCURVE",
"76 649 OFFCURVE",
"78 673 CURVE",
"281 673 LINE",
"281 24 LINE",
"252 20 OFFCURVE",
"223 15 OFFCURVE",
"198 7 CURVE",
"198 0 LINE"
);
},
{
closed = 1;
nodes = (
"484 341 LINE",
"484 367 LINE",
"130 367 LINE",
"130 341 LINE"
);
}
);
width = 613;
}
);
leftKerningGroup = T;
note = Tbar;
rightKerningGroup = T;
unicode = 0166;
},
{
glyphname = Tcaron;
lastChange = "2015-10-01 14:35:46 +0000";
layers = (
{
layerId = "047EFF1B-D2DC-4EF2-AB21-67EF4112B097";
name = Light;
paths = (
{
closed = 1;
nodes = (
"414 0 LINE",
"414 7 LINE",
"389 15 OFFCURVE",
"359 20 OFFCURVE",
"331 24 CURVE",
"331 673 LINE",
"534 673 LINE",
"536 649 OFFCURVE",
"544 590 OFFCURVE",
"553 571 CURVE",
"566 571 LINE",
"566 700 LINE",
"46 700 LINE",
"46 571 LINE",
"59 571 LINE",
"68 590 OFFCURVE",
"76 649 OFFCURVE",
"78 673 CURVE",
"281 673 LINE",
"281 24 LINE",
"252 20 OFFCURVE",
"223 15 OFFCURVE",
"198 7 CURVE",
"198 0 LINE"
);
},
{
closed = 1;
nodes = (
"317 786 LINE",
"350 831 OFFCURVE",
"395 870 OFFCURVE",
"432 896 CURVE",
"411 919 LINE",
"376 893 OFFCURVE",
"336 858 OFFCURVE",
"308 823 CURVE",
"303 823 LINE",
"275 858 OFFCURVE",
"235 893 OFFCURVE",
"200 919 CURVE",
"179 896 LINE",
"216 870 OFFCURVE",
"261 831 OFFCURVE",
"294 786 CURVE"
);
}
);
width = 613;
}
);
leftKerningGroup = T;
note = Tcaron;
rightKerningGroup = T;
unicode = 0164;
},
{
glyphname = Tcedilla;
lastChange = "2015-10-01 14:35:46 +0000";
layers = (
{
layerId = "047EFF1B-D2DC-4EF2-AB21-67EF4112B097";
name = Light;
paths = (
{
closed = 1;
nodes = (
"414 0 LINE",
"414 7 LINE",
"389 15 OFFCURVE",
"359 20 OFFCURVE",
"331 24 CURVE",
"331 673 LINE",
"534 673 LINE",
"536 649 OFFCURVE",
"544 590 OFFCURVE",
"553 571 CURVE",
"566 571 LINE",
"566 700 LINE",
"46 700 LINE",
"46 571 LINE",
"59 571 LINE",
"68 590 OFFCURVE",
"76 649 OFFCURVE",
"78 673 CURVE",
"281 673 LINE",
"281 24 LINE",
"252 20 OFFCURVE",
"223 15 OFFCURVE",
"198 7 CURVE",
"198 0 LINE"
);
},
{
closed = 1;
nodes = (
"343 -197 OFFCURVE",
"388 -173 OFFCURVE",
"388 -123 CURVE SMOOTH",
"388 -86 OFFCURVE",
"356 -67 OFFCURVE",
"314 -66 CURVE SMOOTH",
"305 -66 OFFCURVE",
"297 -66 OFFCURVE",
"289 -68 CURVE",
"322 4 LINE",
"291 4 LINE",
"256 -67 LINE",
"276 -92 LINE",
"283 -91 OFFCURVE",
"292 -90 OFFCURVE",
"300 -90 CURVE SMOOTH",
"326 -90 OFFCURVE",
"354 -98 OFFCURVE",
"354 -122 CURVE SMOOTH",
"354 -157 OFFCURVE",
"325 -172 OFFCURVE",
"284 -172 CURVE SMOOTH",
"268 -172 OFFCURVE",
"248 -170 OFFCURVE",
"231 -166 CURVE",
"219 -187 LINE",
"240 -194 OFFCURVE",
"263 -197 OFFCURVE",
"284 -197 CURVE SMOOTH"
);
}
);
width = 613;
}
);
leftKerningGroup = T;
note = Tcedilla;
rightKerningGroup = T;
unicode = 0162;
},
{
glyphname = Tcommaaccent;
lastChange = "2015-10-01 14:35:46 +0000";
layers = (
{
layerId = "047EFF1B-D2DC-4EF2-AB21-67EF4112B097";
name = Light;
paths = (
{
closed = 1;
nodes = (
"414 0 LINE",
"414 7 LINE",
"389 15 OFFCURVE",
"359 20 OFFCURVE",
"331 24 CURVE",
"331 673 LINE",
"534 673 LINE",
"536 649 OFFCURVE",
"544 590 OFFCURVE",
"553 571 CURVE",
"566 571 LINE",
"566 700 LINE",
"46 700 LINE",
"46 571 LINE",
"59 571 LINE",
"68 590 OFFCURVE",
"76 649 OFFCURVE",
"78 673 CURVE",
"281 673 LINE",
"281 24 LINE",
"252 20 OFFCURVE",
"223 15 OFFCURVE",
"198 7 CURVE",
"198 0 LINE"
);
},
{
closed = 1;
nodes = (
"329 -225 OFFCURVE",
"350 -160 OFFCURVE",
"350 -119 CURVE SMOOTH",
"350 -85 OFFCURVE",
"336 -61 OFFCURVE",
"301 -61 CURVE SMOOTH",
"281 -61 OFFCURVE",
"262 -72 OFFCURVE",
"262 -98 CURVE SMOOTH",
"262 -119 OFFCURVE",
"277 -135 OFFCURVE",
"296 -135 CURVE SMOOTH",
"301 -135 OFFCURVE",
"308 -134 OFFCURVE",
"313 -132 CURVE",
"311 -147 LINE",
"308 -180 OFFCURVE",
"295 -216 OFFCURVE",
"275 -241 CURVE",
"296 -258 LINE"
);
}
);
width = 613;
}
);
leftKerningGroup = T;
note = Tcommaaccent;
rightKerningGroup = T;
unicode = 021A;
},
{
glyphname = Tdotbelow;
lastChange = "2015-10-01 14:35:46 +0000";
layers = (
{
layerId = "047EFF1B-D2DC-4EF2-AB21-67EF4112B097";
name = Light;
paths = (
{
closed = 1;
nodes = (
"414 0 LINE",
"414 7 LINE",
"389 15 OFFCURVE",
"359 20 OFFCURVE",
"331 24 CURVE",
"331 673 LINE",
"534 673 LINE",
"536 649 OFFCURVE",
"544 590 OFFCURVE",
"553 571 CURVE",
"566 571 LINE",
"566 700 LINE",
"46 700 LINE",
"46 571 LINE",
"59 571 LINE",
"68 590 OFFCURVE",
"76 649 OFFCURVE",
"78 673 CURVE",
"281 673 LINE",
"281 24 LINE",
"252 20 OFFCURVE",
"223 15 OFFCURVE",
"198 7 CURVE",
"198 0 LINE"
);
},
{
closed = 1;
nodes = (
"325 -133 OFFCURVE",
"339 -120 OFFCURVE",
"339 -98 CURVE SMOOTH",
"339 -76 OFFCURVE",
"325 -63 OFFCURVE",
"306 -63 CURVE SMOOTH",
"286 -63 OFFCURVE",
"272 -76 OFFCURVE",
"272 -98 CURVE SMOOTH",
"272 -120 OFFCURVE",
"286 -133 OFFCURVE",
"306 -133 CURVE SMOOTH"
);
}
);
width = 613;
}
);
leftKerningGroup = T;
note = Tdotbelow;
rightKerningGroup = T;
unicode = 1E6C;
},
{
glyphname = Tlinebelow;
lastChange = "2015-10-01 14:35:47 +0000";
layers = (
{
layerId = "047EFF1B-D2DC-4EF2-AB21-67EF4112B097";
name = Light;
paths = (
{
closed = 1;
nodes = (
"414 0 LINE",
"414 7 LINE",
"389 15 OFFCURVE",
"359 20 OFFCURVE",
"331 24 CURVE",
"331 673 LINE",
"534 673 LINE",
"536 649 OFFCURVE",
"544 590 OFFCURVE",
"553 571 CURVE",
"566 571 LINE",
"566 700 LINE",
"46 700 LINE",
"46 571 LINE",
"59 571 LINE",
"68 590 OFFCURVE",
"76 649 OFFCURVE",
"78 673 CURVE",
"281 673 LINE",
"281 24 LINE",
"252 20 OFFCURVE",
"223 15 OFFCURVE",
"198 7 CURVE",
"198 0 LINE"
);
},
{
closed = 1;
nodes = (
"453 -100 LINE",
"453 -74 LINE",
"158 -74 LINE",
"158 -100 LINE"
);
}
);
width = 613;
}
);
leftKerningGroup = T;
note = Tlinebelow;
rightKerningGroup = T;
unicode = 1E6E;
},
{
glyphname = U;
lastChange = "2015-10-01 14:35:45 +0000";
layers = (
{
layerId = "047EFF1B-D2DC-4EF2-AB21-67EF4112B097";
name = Light;
paths = (
{
closed = 1;
nodes = (
"533 -10 OFFCURVE",
"620 54 OFFCURVE",
"620 209 CURVE SMOOTH",
"620 674 LINE",
"647 678 OFFCURVE",
"677 684 OFFCURVE",
"703 692 CURVE",
"703 700 LINE",
"506 700 LINE",
"506 692 LINE",
"531 684 OFFCURVE",
"560 679 OFFCURVE",
"588 676 CURVE",
"588 201 LINE SMOOTH",
"588 63 OFFCURVE",
"501 17 OFFCURVE",
"387 17 CURVE SMOOTH",
"267 17 OFFCURVE",
"177 59 OFFCURVE",
"177 201 CURVE SMOOTH",
"177 675 LINE",
"206 679 OFFCURVE",
"234 684 OFFCURVE",
"258 692 CURVE",
"258 700 LINE",
"46 700 LINE",
"46 692 LINE",
"70 684 OFFCURVE",
"99 679 OFFCURVE",
"127 675 CURVE",
"127 209 LINE SMOOTH",
"127 52 OFFCURVE",
"222 -10 OFFCURVE",
"374 -10 CURVE SMOOTH"
);
}
);
width = 749;
}
);
leftKerningGroup = U;
note = U;
rightKerningGroup = U;
unicode = 0055;
},
{
glyphname = Uacute;
lastChange = "2015-10-01 14:35:47 +0000";
layers = (
{
layerId = "047EFF1B-D2DC-4EF2-AB21-67EF4112B097";
name = Light;
paths = (
{
closed = 1;
nodes = (
"533 -10 OFFCURVE",
"620 54 OFFCURVE",
"620 209 CURVE SMOOTH",
"620 674 LINE",
"647 678 OFFCURVE",
"677 684 OFFCURVE",
"703 692 CURVE",
"703 700 LINE",
"506 700 LINE",
"506 692 LINE",
"531 684 OFFCURVE",
"560 679 OFFCURVE",
"588 676 CURVE",
"588 201 LINE SMOOTH",
"588 63 OFFCURVE",
"501 17 OFFCURVE",
"387 17 CURVE SMOOTH",
"267 17 OFFCURVE",
"177 59 OFFCURVE",
"177 201 CURVE SMOOTH",
"177 675 LINE",
"206 679 OFFCURVE",
"234 684 OFFCURVE",
"258 692 CURVE",
"258 700 LINE",
"46 700 LINE",
"46 692 LINE",
"70 684 OFFCURVE",
"99 679 OFFCURVE",
"127 675 CURVE",
"127 209 LINE SMOOTH",
"127 52 OFFCURVE",
"222 -10 OFFCURVE",
"374 -10 CURVE SMOOTH"
);
},
{
closed = 1;
nodes = (
"441 862 LINE",
"456 870 OFFCURVE",
"463 881 OFFCURVE",
"463 891 CURVE SMOOTH",
"463 902 OFFCURVE",
"455 910 OFFCURVE",
"443 910 CURVE SMOOTH",
"429 910 OFFCURVE",
"418 901 OFFCURVE",
"411 894 CURVE",
"301 801 LINE",
"311 786 LINE"
);
}
);
width = 749;
}
);
leftKerningGroup = U;
note = Uacute;
rightKerningGroup = U;
unicode = 00DA;
},
{
glyphname = Ubreve;
lastChange = "2015-10-01 14:35:46 +0000";
layers = (
{
layerId = "047EFF1B-D2DC-4EF2-AB21-67EF4112B097";
name = Light;
paths = (
{
closed = 1;
nodes = (
"533 -10 OFFCURVE",
"620 54 OFFCURVE",
"620 209 CURVE SMOOTH",
"620 674 LINE",
"647 678 OFFCURVE",
"677 684 OFFCURVE",
"703 692 CURVE",
"703 700 LINE",
"506 700 LINE",
"506 692 LINE",
"531 684 OFFCURVE",
"560 679 OFFCURVE",
"588 676 CURVE",
"588 201 LINE SMOOTH",
"588 63 OFFCURVE",
"501 17 OFFCURVE",
"387 17 CURVE SMOOTH",
"267 17 OFFCURVE",
"177 59 OFFCURVE",
"177 201 CURVE SMOOTH",
"177 675 LINE",
"206 679 OFFCURVE",
"234 684 OFFCURVE",
"258 692 CURVE",
"258 700 LINE",
"46 700 LINE",
"46 692 LINE",
"70 684 OFFCURVE",
"99 679 OFFCURVE",
"127 675 CURVE",
"127 209 LINE SMOOTH",
"127 52 OFFCURVE",
"222 -10 OFFCURVE",
"374 -10 CURVE SMOOTH"
);
},
{
closed = 1;
nodes = (
"451 772 OFFCURVE",
"507 808 OFFCURVE",
"514 889 CURVE",
"478 889 LINE",
"469 811 OFFCURVE",
"417 799 OFFCURVE",
"376 799 CURVE SMOOTH",
"335 799 OFFCURVE",
"282 811 OFFCURVE",
"273 889 CURVE",
"237 889 LINE",
"245 808 OFFCURVE",
"300 772 OFFCURVE",
"376 772 CURVE SMOOTH"
);
}
);
width = 749;
}
);
leftKerningGroup = U;
note = Ubreve;
rightKerningGroup = U;
unicode = 016C;
},
{
glyphname = Ucaron;
lastChange = "2015-10-01 14:35:47 +0000";
layers = (
{
layerId = "047EFF1B-D2DC-4EF2-AB21-67EF4112B097";
name = Light;
paths = (
{
closed = 1;
nodes = (
"533 -10 OFFCURVE",
"620 54 OFFCURVE",
"620 209 CURVE SMOOTH",
"620 674 LINE",
"647 678 OFFCURVE",
"677 684 OFFCURVE",
"703 692 CURVE",
"703 700 LINE",
"506 700 LINE",
"506 692 LINE",
"531 684 OFFCURVE",
"560 679 OFFCURVE",
"588 676 CURVE",
"588 201 LINE SMOOTH",
"588 63 OFFCURVE",
"501 17 OFFCURVE",
"387 17 CURVE SMOOTH",
"267 17 OFFCURVE",
"177 59 OFFCURVE",
"177 201 CURVE SMOOTH",
"177 675 LINE",
"206 679 OFFCURVE",
"234 684 OFFCURVE",
"258 692 CURVE",
"258 700 LINE",
"46 700 LINE",
"46 692 LINE",
"70 684 OFFCURVE",
"99 679 OFFCURVE",
"127 675 CURVE",
"127 209 LINE SMOOTH",
"127 52 OFFCURVE",
"222 -10 OFFCURVE",
"374 -10 CURVE SMOOTH"
);
},
{
closed = 1;
nodes = (
"383 786 LINE",
"416 831 OFFCURVE",
"461 870 OFFCURVE",
"498 896 CURVE",
"477 919 LINE",
"442 893 OFFCURVE",
"402 858 OFFCURVE",
"374 823 CURVE",
"369 823 LINE",
"341 858 OFFCURVE",
"301 893 OFFCURVE",
"266 919 CURVE",
"245 896 LINE",
"282 870 OFFCURVE",
"327 831 OFFCURVE",
"360 786 CURVE"
);
}
);
width = 749;
}
);
leftKerningGroup = U;
note = Ucaron;
rightKerningGroup = U;
unicode = 01D3;
},
{
glyphname = Ucircumflex;
lastChange = "2015-10-01 14:35:47 +0000";
layers = (
{
layerId = "047EFF1B-D2DC-4EF2-AB21-67EF4112B097";
name = Light;
paths = (
{
closed = 1;
nodes = (
"533 -10 OFFCURVE",
"620 54 OFFCURVE",
"620 209 CURVE SMOOTH",
"620 674 LINE",
"647 678 OFFCURVE",
"677 684 OFFCURVE",
"703 692 CURVE",
"703 700 LINE",
"506 700 LINE",
"506 692 LINE",
"531 684 OFFCURVE",
"560 679 OFFCURVE",
"588 676 CURVE",
"588 201 LINE SMOOTH",
"588 63 OFFCURVE",
"501 17 OFFCURVE",
"387 17 CURVE SMOOTH",
"267 17 OFFCURVE",
"177 59 OFFCURVE",
"177 201 CURVE SMOOTH",
"177 675 LINE",
"206 679 OFFCURVE",
"234 684 OFFCURVE",
"258 692 CURVE",
"258 700 LINE",
"46 700 LINE",
"46 692 LINE",
"70 684 OFFCURVE",
"99 679 OFFCURVE",
"127 675 CURVE",
"127 209 LINE SMOOTH",
"127 52 OFFCURVE",
"222 -10 OFFCURVE",
"374 -10 CURVE SMOOTH"
);
},
{
closed = 1;
nodes = (
"303 803 OFFCURVE",
"343 838 OFFCURVE",
"371 873 CURVE",
"376 873 LINE",
"404 838 OFFCURVE",
"444 803 OFFCURVE",
"479 778 CURVE",
"500 800 LINE",
"463 827 OFFCURVE",
"418 866 OFFCURVE",
"385 910 CURVE",
"362 910 LINE",
"329 866 OFFCURVE",
"284 827 OFFCURVE",
"247 800 CURVE",
"268 778 LINE"
);
}
);
width = 749;
}
);
leftKerningGroup = U;
note = Ucircumflex;
rightKerningGroup = U;
unicode = 00DB;
},
{
glyphname = Udieresis;
lastChange = "2015-10-01 14:35:46 +0000";
layers = (
{
layerId = "047EFF1B-D2DC-4EF2-AB21-67EF4112B097";
name = Light;
paths = (
{
closed = 1;
nodes = (
"533 -10 OFFCURVE",
"620 54 OFFCURVE",
"620 209 CURVE SMOOTH",
"620 674 LINE",
"647 678 OFFCURVE",
"677 684 OFFCURVE",
"703 692 CURVE",
"703 700 LINE",
"506 700 LINE",
"506 692 LINE",
"531 684 OFFCURVE",
"560 679 OFFCURVE",
"588 676 CURVE",
"588 201 LINE SMOOTH",
"588 63 OFFCURVE",
"501 17 OFFCURVE",
"387 17 CURVE SMOOTH",
"267 17 OFFCURVE",
"177 59 OFFCURVE",
"177 201 CURVE SMOOTH",
"177 675 LINE",
"206 679 OFFCURVE",
"234 684 OFFCURVE",
"258 692 CURVE",
"258 700 LINE",
"46 700 LINE",
"46 692 LINE",
"70 684 OFFCURVE",
"99 679 OFFCURVE",
"127 675 CURVE",
"127 209 LINE SMOOTH",
"127 52 OFFCURVE",
"222 -10 OFFCURVE",
"374 -10 CURVE SMOOTH"
);
},
{
closed = 1;
nodes = (
"294 785 OFFCURVE",
"308 798 OFFCURVE",
"308 820 CURVE SMOOTH",
"308 842 OFFCURVE",
"294 855 OFFCURVE",
"274 855 CURVE SMOOTH",
"255 855 OFFCURVE",
"241 842 OFFCURVE",
"241 820 CURVE SMOOTH",
"241 798 OFFCURVE",
"255 785 OFFCURVE",
"274 785 CURVE SMOOTH"
);
},
{
closed = 1;
nodes = (
"500 785 OFFCURVE",
"514 798 OFFCURVE",
"514 820 CURVE SMOOTH",
"514 842 OFFCURVE",
"500 855 OFFCURVE",
"481 855 CURVE SMOOTH",
"461 855 OFFCURVE",
"447 842 OFFCURVE",
"447 820 CURVE SMOOTH",
"447 798 OFFCURVE",
"461 785 OFFCURVE",
"481 785 CURVE SMOOTH"
);
}
);
width = 749;
}
);
leftKerningGroup = U;
note = Udieresis;
rightKerningGroup = U;
unicode = 00DC;
},
{
glyphname = Udieresisacute;
lastChange = "2015-10-01 14:35:46 +0000";
layers = (
{
layerId = "047EFF1B-D2DC-4EF2-AB21-67EF4112B097";
name = Light;
paths = (
{
closed = 1;
nodes = (
"533 -10 OFFCURVE",
"620 54 OFFCURVE",
"620 209 CURVE SMOOTH",
"620 674 LINE",
"647 678 OFFCURVE",
"677 684 OFFCURVE",
"703 692 CURVE",
"703 700 LINE",
"506 700 LINE",
"506 692 LINE",
"531 684 OFFCURVE",
"560 679 OFFCURVE",
"588 676 CURVE",
"588 201 LINE SMOOTH",
"588 63 OFFCURVE",
"501 17 OFFCURVE",
"387 17 CURVE SMOOTH",
"267 17 OFFCURVE",
"177 59 OFFCURVE",
"177 201 CURVE SMOOTH",
"177 675 LINE",
"206 679 OFFCURVE",
"234 684 OFFCURVE",
"258 692 CURVE",
"258 700 LINE",
"46 700 LINE",
"46 692 LINE",
"70 684 OFFCURVE",
"99 679 OFFCURVE",
"127 675 CURVE",
"127 209 LINE SMOOTH",
"127 52 OFFCURVE",
"222 -10 OFFCURVE",
"374 -10 CURVE SMOOTH"
);
},
{
closed = 1;
nodes = (
"298 785 OFFCURVE",
"312 798 OFFCURVE",
"312 820 CURVE SMOOTH",
"312 841 OFFCURVE",
"298 855 OFFCURVE",
"279 855 CURVE SMOOTH",
"259 855 OFFCURVE",
"245 841 OFFCURVE",
"245 820 CURVE SMOOTH",
"245 798 OFFCURVE",
"259 785 OFFCURVE",
"279 785 CURVE SMOOTH"
);
},
{
closed = 1;
nodes = (
"505 785 OFFCURVE",
"519 798 OFFCURVE",
"519 820 CURVE SMOOTH",
"519 841 OFFCURVE",
"505 855 OFFCURVE",
"485 855 CURVE SMOOTH",
"466 855 OFFCURVE",
"452 841 OFFCURVE",
"452 820 CURVE SMOOTH",
"452 798 OFFCURVE",
"466 785 OFFCURVE",
"485 785 CURVE SMOOTH"
);
},
{
closed = 1;
nodes = (
"495 962 LINE",
"510 970 OFFCURVE",
"517 980 OFFCURVE",
"517 991 CURVE SMOOTH",
"517 1002 OFFCURVE",
"508 1010 OFFCURVE",
"497 1010 CURVE SMOOTH",
"483 1010 OFFCURVE",
"472 1000 OFFCURVE",
"465 994 CURVE SMOOTH",
"359 904 LINE",
"369 889 LINE"
);
}
);
width = 749;
}
);
leftKerningGroup = U;
note = Udieresisacute;
rightKerningGroup = U;
unicode = 01D7;
},
{
glyphname = Udieresiscaron;
lastChange = "2015-10-01 14:35:46 +0000";
layers = (
{
layerId = "047EFF1B-D2DC-4EF2-AB21-67EF4112B097";
name = Light;
paths = (
{
closed = 1;
nodes = (
"533 -10 OFFCURVE",
"620 54 OFFCURVE",
"620 209 CURVE SMOOTH",
"620 674 LINE",
"647 678 OFFCURVE",
"677 684 OFFCURVE",
"703 692 CURVE",
"703 700 LINE",
"506 700 LINE",
"506 692 LINE",
"531 684 OFFCURVE",
"560 679 OFFCURVE",
"588 676 CURVE",
"588 201 LINE SMOOTH",
"588 63 OFFCURVE",
"501 17 OFFCURVE",
"387 17 CURVE SMOOTH",
"267 17 OFFCURVE",
"177 59 OFFCURVE",
"177 201 CURVE SMOOTH",
"177 675 LINE",
"206 679 OFFCURVE",
"234 684 OFFCURVE",
"258 692 CURVE",
"258 700 LINE",
"46 700 LINE",
"46 692 LINE",
"70 684 OFFCURVE",
"99 679 OFFCURVE",
"127 675 CURVE",
"127 209 LINE SMOOTH",
"127 52 OFFCURVE",
"222 -10 OFFCURVE",
"374 -10 CURVE SMOOTH"
);
},
{
closed = 1;
nodes = (
"302 793 OFFCURVE",
"316 806 OFFCURVE",
"316 828 CURVE SMOOTH",
"316 850 OFFCURVE",
"302 863 OFFCURVE",
"282 863 CURVE SMOOTH",
"263 863 OFFCURVE",
"249 850 OFFCURVE",
"249 828 CURVE SMOOTH",
"249 806 OFFCURVE",
"263 793 OFFCURVE",
"282 793 CURVE SMOOTH"
);
},
{
closed = 1;
nodes = (
"396 862 LINE",
"429 907 OFFCURVE",
"474 946 OFFCURVE",
"511 972 CURVE",
"490 995 LINE",
"455 969 OFFCURVE",
"416 934 OFFCURVE",
"387 899 CURVE",
"382 899 LINE",
"354 934 OFFCURVE",
"314 969 OFFCURVE",
"279 995 CURVE",
"258 972 LINE",
"295 946 OFFCURVE",
"340 907 OFFCURVE",
"373 862 CURVE"
);
},
{
closed = 1;
nodes = (
"508 793 OFFCURVE",
"522 806 OFFCURVE",
"522 828 CURVE SMOOTH",
"522 850 OFFCURVE",
"508 863 OFFCURVE",
"489 863 CURVE SMOOTH",
"469 863 OFFCURVE",
"455 850 OFFCURVE",
"455 828 CURVE SMOOTH",
"455 806 OFFCURVE",
"469 793 OFFCURVE",
"489 793 CURVE SMOOTH"
);
}
);
width = 749;
}
);
leftKerningGroup = U;
note = Udieresiscaron;
rightKerningGroup = U;
unicode = 01D9;
},
{
glyphname = Udieresisgrave;
lastChange = "2015-10-01 14:35:47 +0000";
layers = (
{
layerId = "047EFF1B-D2DC-4EF2-AB21-67EF4112B097";
name = Light;
paths = (
{
closed = 1;
nodes = (
"533 -10 OFFCURVE",
"620 54 OFFCURVE",
"620 209 CURVE SMOOTH",
"620 674 LINE",
"647 678 OFFCURVE",
"677 684 OFFCURVE",
"703 692 CURVE",
"703 700 LINE",
"506 700 LINE",
"506 692 LINE",
"531 684 OFFCURVE",
"560 679 OFFCURVE",
"588 676 CURVE",
"588 201 LINE SMOOTH",
"588 63 OFFCURVE",
"501 17 OFFCURVE",
"387 17 CURVE SMOOTH",
"267 17 OFFCURVE",
"177 59 OFFCURVE",
"177 201 CURVE SMOOTH",
"177 675 LINE",
"206 679 OFFCURVE",
"234 684 OFFCURVE",
"258 692 CURVE",
"258 700 LINE",
"46 700 LINE",
"46 692 LINE",
"70 684 OFFCURVE",
"99 679 OFFCURVE",
"127 675 CURVE",
"127 209 LINE SMOOTH",
"127 52 OFFCURVE",
"222 -10 OFFCURVE",
"374 -10 CURVE SMOOTH"
);
},
{
closed = 1;
nodes = (
"298 785 OFFCURVE",
"312 798 OFFCURVE",
"312 820 CURVE SMOOTH",
"312 841 OFFCURVE",
"298 855 OFFCURVE",
"278 855 CURVE SMOOTH",
"259 855 OFFCURVE",
"245 841 OFFCURVE",
"245 820 CURVE SMOOTH",
"245 798 OFFCURVE",
"259 785 OFFCURVE",
"278 785 CURVE SMOOTH"
);
},
{
closed = 1;
nodes = (
"416 898 LINE",
"316 985 LINE SMOOTH",
"309 991 OFFCURVE",
"298 1000 OFFCURVE",
"284 1000 CURVE SMOOTH",
"272 1000 OFFCURVE",
"264 993 OFFCURVE",
"264 982 CURVE SMOOTH",
"264 972 OFFCURVE",
"271 961 OFFCURVE",
"285 953 CURVE SMOOTH",
"406 884 LINE"
);
},
{
closed = 1;
nodes = (
"505 785 OFFCURVE",
"519 798 OFFCURVE",
"519 820 CURVE SMOOTH",
"519 841 OFFCURVE",
"505 855 OFFCURVE",
"485 855 CURVE SMOOTH",
"465 855 OFFCURVE",
"451 841 OFFCURVE",
"451 820 CURVE SMOOTH",
"451 798 OFFCURVE",
"465 785 OFFCURVE",
"485 785 CURVE SMOOTH"
);
}
);
width = 749;
}
);
leftKerningGroup = U;
note = Udieresisgrave;
rightKerningGroup = U;
unicode = 01DB;
},
{
glyphname = Udieresismacron;
lastChange = "2015-10-01 14:35:47 +0000";
layers = (
{
layerId = "047EFF1B-D2DC-4EF2-AB21-67EF4112B097";
name = Light;
paths = (
{
closed = 1;
nodes = (
"533 -10 OFFCURVE",
"620 54 OFFCURVE",
"620 209 CURVE SMOOTH",
"620 674 LINE",
"647 678 OFFCURVE",
"677 684 OFFCURVE",
"703 692 CURVE",
"703 700 LINE",
"506 700 LINE",
"506 692 LINE",
"531 684 OFFCURVE",
"560 679 OFFCURVE",
"588 676 CURVE",
"588 201 LINE SMOOTH",
"588 63 OFFCURVE",
"501 17 OFFCURVE",
"387 17 CURVE SMOOTH",
"267 17 OFFCURVE",
"177 59 OFFCURVE",
"177 201 CURVE SMOOTH",
"177 675 LINE",
"206 679 OFFCURVE",
"234 684 OFFCURVE",
"258 692 CURVE",
"258 700 LINE",
"46 700 LINE",
"46 692 LINE",
"70 684 OFFCURVE",
"99 679 OFFCURVE",
"127 675 CURVE",
"127 209 LINE SMOOTH",
"127 52 OFFCURVE",
"222 -10 OFFCURVE",
"374 -10 CURVE SMOOTH"
);
},
{
closed = 1;
nodes = (
"298 785 OFFCURVE",
"312 798 OFFCURVE",
"312 820 CURVE SMOOTH",
"312 841 OFFCURVE",
"298 855 OFFCURVE",
"279 855 CURVE SMOOTH",
"259 855 OFFCURVE",
"245 841 OFFCURVE",
"245 820 CURVE SMOOTH",
"245 798 OFFCURVE",
"259 785 OFFCURVE",
"279 785 CURVE SMOOTH"
);
},
{
closed = 1;
nodes = (
"505 785 OFFCURVE",
"519 798 OFFCURVE",
"519 820 CURVE SMOOTH",
"519 841 OFFCURVE",
"505 855 OFFCURVE",
"485 855 CURVE SMOOTH",
"466 855 OFFCURVE",
"452 841 OFFCURVE",
"452 820 CURVE SMOOTH",
"452 798 OFFCURVE",
"466 785 OFFCURVE",
"485 785 CURVE SMOOTH"
);
},
{
closed = 1;
nodes = (
"521 922 LINE",
"521 949 LINE",
"243 949 LINE",
"243 922 LINE"
);
}
);
width = 749;
}
);
leftKerningGroup = U;
note = Udieresismacron;
rightKerningGroup = U;
unicode = 01D5;
},
